<?xml version="1.0" encoding="utf-8"?>
<!-- Generator: Adobe Illustrator 15.1.0, SVG Export Plug-In . SVG Version: 6.00 Build 0)  -->
<!DOCTYPE svg PUBLIC "-//W3C//DTD SVG 1.1//EN" "http://www.w3.org/Graphics/SVG/1.1/DTD/svg11.dtd">
<svg version="1.1" id="Layer_1" xmlns="http://www.w3.org/2000/svg" xmlns:xlink="http://www.w3.org/1999/xlink" x="0px" y="0px"
	 width="63.75px" height="56.75px" viewBox="0 0 63.75 56.75" enable-background="new 0 0 63.75 56.75" xml:space="preserve">
<g>
	<path fill="#FFFFFF" d="M12.223,17.302c-4.87,0-8.817,3.947-8.817,8.817s3.947,8.817,8.817,8.817c2.514,0,4.782-1.053,6.389-2.74
		c-3.777-2.663-6.244-7.06-6.244-12.033c0-0.976,0.095-1.93,0.277-2.852C12.505,17.305,12.364,17.302,12.223,17.302"/>
	
		<path fill="none" stroke="#FFFFFF" stroke-width="5.482" stroke-linecap="round" stroke-linejoin="round" stroke-miterlimit="10" d="
		M12.223,17.302c-4.87,0-8.817,3.947-8.817,8.817s3.947,8.817,8.817,8.817c2.514,0,4.782-1.053,6.389-2.74
		c-3.777-2.663-6.244-7.06-6.244-12.033c0-0.976,0.095-1.93,0.277-2.852C12.505,17.305,12.364,17.302,12.223,17.302"/>
	<path fill="#FFFFFF" d="M27.083,5.447c-7.15,0-13.111,5.103-14.438,11.864c4.673,0.22,8.396,4.079,8.396,8.808
		c0,2.356-0.924,4.495-2.429,6.077c2.396,1.689,5.318,2.682,8.471,2.682c2.713,0,5.254-0.733,7.437-2.014
		c-3.552-2.297-5.904-6.292-5.904-10.836c0-5.721,3.728-10.572,8.885-12.259C34.836,7.099,31.153,5.447,27.083,5.447"/>
	
		<path fill="none" stroke="#FFFFFF" stroke-width="5.482" stroke-linecap="round" stroke-linejoin="round" stroke-miterlimit="10" d="
		M27.083,5.447c-7.15,0-13.111,5.103-14.438,11.864c4.673,0.22,8.396,4.079,8.396,8.808c0,2.356-0.924,4.495-2.429,6.077
		c2.396,1.689,5.318,2.682,8.471,2.682c2.713,0,5.254-0.733,7.437-2.014c-3.552-2.297-5.904-6.292-5.904-10.836
		c0-5.721,3.728-10.572,8.885-12.259C34.836,7.099,31.153,5.447,27.083,5.447"/>
	<path fill="#FFFFFF" d="M12.645,17.311c-0.182,0.922-0.277,1.876-0.277,2.852c0,4.973,2.467,9.37,6.244,12.033
		c1.505-1.582,2.429-3.721,2.429-6.077C21.041,21.39,17.318,17.531,12.645,17.311"/>
	
		<path fill="none" stroke="#FFFFFF" stroke-width="5.482" stroke-linecap="round" stroke-linejoin="round" stroke-miterlimit="10" d="
		M12.645,17.311c-0.182,0.922-0.277,1.876-0.277,2.852c0,4.973,2.467,9.37,6.244,12.033c1.505-1.582,2.429-3.721,2.429-6.077
		C21.041,21.39,17.318,17.531,12.645,17.311"/>
	<path fill="#FFFFFF" d="M41.51,9.133c-1.399,0-2.748,0.224-4.01,0.636c2.656,2.662,4.298,6.337,4.298,10.394
		c0,5.414-2.923,10.145-7.278,12.701c2.014,1.303,4.414,2.058,6.99,2.058c2.138,0,4.153-0.52,5.929-1.441
		c-2.001-1.425-3.305-3.764-3.305-6.408c0-4.342,3.521-7.862,7.862-7.862c0.75,0,1.475,0.104,2.161,0.3
		C52.986,13.594,47.769,9.133,41.51,9.133"/>
	
		<path fill="none" stroke="#FFFFFF" stroke-width="5.482" stroke-linecap="round" stroke-linejoin="round" stroke-miterlimit="10" d="
		M41.51,9.133c-1.399,0-2.748,0.224-4.01,0.636c2.656,2.662,4.298,6.337,4.298,10.394c0,5.414-2.923,10.145-7.278,12.701
		c2.014,1.303,4.414,2.058,6.99,2.058c2.138,0,4.153-0.52,5.929-1.441c-2.001-1.425-3.305-3.764-3.305-6.408
		c0-4.342,3.521-7.862,7.862-7.862c0.75,0,1.475,0.104,2.161,0.3C52.986,13.594,47.769,9.133,41.51,9.133"/>
	<path fill="#FFFFFF" d="M37.5,9.769c-5.157,1.687-8.885,6.538-8.885,12.259c0,4.544,2.352,8.539,5.904,10.836
		c4.355-2.556,7.278-7.287,7.278-12.701C41.798,16.105,40.156,12.431,37.5,9.769"/>
	
		<path fill="none" stroke="#FFFFFF" stroke-width="5.482" stroke-linecap="round" stroke-linejoin="round" stroke-miterlimit="10" d="
		M37.5,9.769c-5.157,1.687-8.885,6.538-8.885,12.259c0,4.544,2.352,8.539,5.904,10.836c4.355-2.556,7.278-7.287,7.278-12.701
		C41.798,16.105,40.156,12.431,37.5,9.769"/>
	<path fill="#FFFFFF" d="M21.966,22.62c0,1.948-1.579,3.526-3.526,3.526c-1.948,0-3.528-1.578-3.528-3.526
		c0-1.949,1.58-3.527,3.528-3.527C20.387,19.093,21.966,20.671,21.966,22.62"/>
	
		<circle fill="none" stroke="#FFFFFF" stroke-width="5.482" stroke-linecap="round" stroke-linejoin="round" stroke-miterlimit="10" cx="18.438" cy="22.62" r="3.527"/>
	<path fill="#FFFFFF" d="M25.204,34.907c0-5.285-3.016-9.57-6.736-9.57c-3.72,0-6.737,4.285-6.737,9.57H25.204"/>
	
		<path fill="none" stroke="#FFFFFF" stroke-width="5.482" stroke-linecap="round" stroke-linejoin="round" stroke-miterlimit="10" d="
		M25.204,34.907c0-5.285-3.016-9.57-6.736-9.57c-3.72,0-6.737,4.285-6.737,9.57H25.204z"/>
	<path fill="#FFFFFF" d="M35.891,18.208c0,2.65-2.15,4.799-4.8,4.799c-2.65,0-4.798-2.148-4.798-4.799
		c0-2.651,2.147-4.798,4.798-4.798C33.74,13.409,35.891,15.557,35.891,18.208"/>
	
		<circle fill="none" stroke="#FFFFFF" stroke-width="5.482" stroke-linecap="round" stroke-linejoin="round" stroke-miterlimit="10" cx="31.092" cy="18.208" r="4.799"/>
	<path fill="#FFFFFF" d="M40.295,34.924c0-7.19-4.103-13.02-9.165-13.02c-5.062,0-9.165,5.829-9.165,13.02H40.295"/>
	
		<path fill="none" stroke="#FFFFFF" stroke-width="5.482" stroke-linecap="round" stroke-linejoin="round" stroke-miterlimit="10" d="
		M40.295,34.924c0-7.19-4.103-13.02-9.165-13.02c-5.062,0-9.165,5.829-9.165,13.02H40.295z"/>
	<path fill="#FFFFFF" d="M54.157,19.509c0.161,0.814,0.246,1.656,0.246,2.519c0,4.983-2.827,9.306-6.965,11.452
		c1.285,0.917,2.858,1.456,4.558,1.456c4.344,0,7.863-3.521,7.863-7.864C59.859,23.479,57.449,20.448,54.157,19.509"/>
	
		<path fill="none" stroke="#FFFFFF" stroke-width="5.482" stroke-linecap="round" stroke-linejoin="round" stroke-miterlimit="10" d="
		M54.157,19.509c0.161,0.814,0.246,1.656,0.246,2.519c0,4.983-2.827,9.306-6.965,11.452c1.285,0.917,2.858,1.456,4.558,1.456
		c4.344,0,7.863-3.521,7.863-7.864C59.859,23.479,57.449,20.448,54.157,19.509"/>
	<path fill="#FFFFFF" d="M51.996,19.209c-4.342,0-7.862,3.52-7.862,7.862c0,2.644,1.304,4.983,3.305,6.408
		c4.138-2.146,6.965-6.469,6.965-11.452c0-0.862-0.085-1.704-0.246-2.519C53.471,19.313,52.746,19.209,51.996,19.209"/>
	
		<path fill="none" stroke="#FFFFFF" stroke-width="5.482" stroke-linecap="round" stroke-linejoin="round" stroke-miterlimit="10" d="
		M51.996,19.209c-4.342,0-7.862,3.52-7.862,7.862c0,2.644,1.304,4.983,3.305,6.408c4.138-2.146,6.965-6.469,6.965-11.452
		c0-0.862-0.085-1.704-0.246-2.519C53.471,19.313,52.746,19.209,51.996,19.209"/>
	<path fill="#FFFFFF" d="M47.442,23.428c0,1.822-1.478,3.3-3.302,3.3c-1.822,0-3.299-1.478-3.299-3.3c0-1.823,1.477-3.3,3.299-3.3
		C45.965,20.128,47.442,21.605,47.442,23.428"/>
	
		<circle fill="none" stroke="#FFFFFF" stroke-width="5.482" stroke-linecap="round" stroke-linejoin="round" stroke-miterlimit="10" cx="44.142" cy="23.428" r="3.3"/>
	<path fill="#FFFFFF" d="M50.472,34.924c0-4.944-2.823-8.953-6.303-8.953c-3.481,0-6.303,4.009-6.303,8.953H50.472"/>
	
		<path fill="none" stroke="#FFFFFF" stroke-width="5.482" stroke-linecap="round" stroke-linejoin="round" stroke-miterlimit="10" d="
		M50.472,34.924c0-4.944-2.823-8.953-6.303-8.953c-3.481,0-6.303,4.009-6.303,8.953H50.472z"/>
	<polyline fill="#FFFFFF" points="11.753,37.6 11.753,34.932 18.674,34.932 18.674,37.6 17.365,37.6 17.081,36.377 16.27,36.377 
		16.27,40.542 17.091,40.542 17.091,41.989 13.335,41.989 13.335,40.542 14.157,40.542 14.157,36.377 13.335,36.377 13.062,37.6 
		11.753,37.6 	"/>
	
		<polygon fill="none" stroke="#FFFFFF" stroke-width="5.482" stroke-linecap="round" stroke-linejoin="round" stroke-miterlimit="10" points="
		11.753,37.6 11.753,34.932 18.674,34.932 18.674,37.6 17.365,37.6 17.081,36.377 16.27,36.377 16.27,40.542 17.091,40.542 
		17.091,41.989 13.335,41.989 13.335,40.542 14.157,40.542 14.157,36.377 13.335,36.377 13.062,37.6 	"/>
	<path fill="#FFFFFF" d="M21.54,38.46c0,0.87,0.606,1.652,1.545,1.652c0.949,0,1.555-0.782,1.555-1.652s-0.606-1.652-1.555-1.652
		C22.146,36.808,21.54,37.59,21.54,38.46 M19.37,38.46c0-2.043,1.652-3.686,3.715-3.686c2.073,0,3.725,1.643,3.725,3.686
		s-1.652,3.687-3.725,3.687C21.021,42.146,19.37,40.503,19.37,38.46z"/>
	
		<path fill="none" stroke="#FFFFFF" stroke-width="5.482" stroke-linecap="round" stroke-linejoin="round" stroke-miterlimit="10" d="
		M19.37,38.46c0-2.043,1.652-3.686,3.715-3.686c2.073,0,3.725,1.643,3.725,3.686s-1.652,3.687-3.725,3.687
		C21.021,42.146,19.37,40.503,19.37,38.46z"/>
	
		<path fill="none" stroke="#FFFFFF" stroke-width="5.482" stroke-linecap="round" stroke-linejoin="round" stroke-miterlimit="10" d="
		M21.54,38.46c0,0.87,0.606,1.652,1.545,1.652c0.949,0,1.555-0.782,1.555-1.652s-0.606-1.652-1.555-1.652
		C22.146,36.808,21.54,37.59,21.54,38.46z"/>
	<path fill="#FFFFFF" d="M30.408,40.542h0.732c1.34,0,2.142-0.693,2.142-2.082c0-1.388-0.802-2.083-2.142-2.083h-0.732V40.542
		 M27.602,40.542h0.695v-4.165h-0.695v-1.445h4.019c2.052,0,3.833,0.732,3.833,3.479c0,2.171-1.174,3.578-4.136,3.578h-3.715V40.542
		z"/>
	
		<path fill="none" stroke="#FFFFFF" stroke-width="5.482" stroke-linecap="round" stroke-linejoin="round" stroke-miterlimit="10" d="
		M27.602,40.542h0.695v-4.165h-0.695v-1.445h4.019c2.052,0,3.833,0.732,3.833,3.479c0,2.171-1.174,3.578-4.136,3.578h-3.715V40.542z
		"/>
	
		<path fill="none" stroke="#FFFFFF" stroke-width="5.482" stroke-linecap="round" stroke-linejoin="round" stroke-miterlimit="10" d="
		M30.408,40.542h0.732c1.34,0,2.142-0.693,2.142-2.082c0-1.388-0.802-2.083-2.142-2.083h-0.732V40.542z"/>
	<path fill="#FFFFFF" d="M38.377,38.46c0,0.87,0.605,1.652,1.544,1.652c0.948,0,1.556-0.782,1.556-1.652s-0.607-1.652-1.556-1.652
		C38.982,36.808,38.377,37.59,38.377,38.46 M36.206,38.46c0-2.043,1.651-3.686,3.715-3.686c2.073,0,3.726,1.643,3.726,3.686
		s-1.652,3.687-3.726,3.687C37.857,42.146,36.206,40.503,36.206,38.46z"/>
	
		<path fill="none" stroke="#FFFFFF" stroke-width="5.482" stroke-linecap="round" stroke-linejoin="round" stroke-miterlimit="10" d="
		M36.206,38.46c0-2.043,1.651-3.686,3.715-3.686c2.073,0,3.726,1.643,3.726,3.686s-1.652,3.687-3.726,3.687
		C37.857,42.146,36.206,40.503,36.206,38.46z"/>
	
		<path fill="none" stroke="#FFFFFF" stroke-width="5.482" stroke-linecap="round" stroke-linejoin="round" stroke-miterlimit="10" d="
		M38.377,38.46c0,0.87,0.605,1.652,1.544,1.652c0.948,0,1.556-0.782,1.556-1.652s-0.607-1.652-1.556-1.652
		C38.982,36.808,38.377,37.59,38.377,38.46z"/>
	<path fill="#FFFFFF" d="M48.809,36.916c-0.176-0.245-0.392-0.431-0.655-0.567c-0.264-0.138-0.577-0.206-0.958-0.206
		c-0.392,0-0.861,0.128-0.861,0.509c0,0.616,1.115,0.597,2.23,0.821c1.114,0.225,2.229,0.693,2.229,2.297
		c0,1.565-1.153,2.377-2.669,2.377c-0.675,0-1.397-0.167-1.877-0.725v0.567h-1.75v-2.22h1.799c0.146,0.294,0.352,0.51,0.597,0.646
		c0.244,0.138,0.538,0.205,0.859,0.205c0.461,0,0.998-0.098,0.998-0.576c0-0.627-1.124-0.627-2.248-0.852
		c-1.125-0.226-2.249-0.665-2.249-2.181c0-1.144,0.968-2.238,2.708-2.238c0.752,0,1.291,0.165,1.857,0.693v-0.536h1.76v1.984H48.809
		"/>
	
		<path fill="none" stroke="#FFFFFF" stroke-width="5.482" stroke-linecap="round" stroke-linejoin="round" stroke-miterlimit="10" d="
		M48.809,36.916c-0.176-0.245-0.392-0.431-0.655-0.567c-0.264-0.138-0.577-0.206-0.958-0.206c-0.392,0-0.861,0.128-0.861,0.509
		c0,0.616,1.115,0.597,2.23,0.821c1.114,0.225,2.229,0.693,2.229,2.297c0,1.565-1.153,2.377-2.669,2.377
		c-0.675,0-1.397-0.167-1.877-0.725v0.567h-1.75v-2.22h1.799c0.146,0.294,0.352,0.51,0.597,0.646
		c0.244,0.138,0.538,0.205,0.859,0.205c0.461,0,0.998-0.098,0.998-0.576c0-0.627-1.124-0.627-2.248-0.852
		c-1.125-0.226-2.249-0.665-2.249-2.181c0-1.144,0.968-2.238,2.708-2.238c0.752,0,1.291,0.165,1.857,0.693v-0.536h1.76v1.984H48.809
		z"/>
	<path fill="#FFFFFF" d="M6.652,51.06c0.686,0,1.154-0.087,1.154-0.827v-5.438H6.881v-1.611h4.199v1.611h-0.925v6.026
		c0,2.035-1.24,2.415-3.046,2.415H6.652V51.06"/>
	
		<path fill="none" stroke="#FFFFFF" stroke-width="5.482" stroke-linecap="round" stroke-linejoin="round" stroke-miterlimit="10" d="
		M6.652,51.06c0.686,0,1.154-0.087,1.154-0.827v-5.438H6.881v-1.611h4.199v1.611h-0.925v6.026c0,2.035-1.24,2.415-3.046,2.415H6.652
		V51.06z"/>
	<path fill="#FFFFFF" d="M12.061,43.183h3.927v1.611h-0.761v2.991c0,0.913,0.183,1.479,1.207,1.479c1.022,0,1.218-0.565,1.208-1.479
		v-2.991h-0.762v-1.611h3.928v1.611H19.99v3.023c0,2.535-1.087,3.394-3.557,3.394c-2.47,0-3.557-0.858-3.557-3.229v-3.188h-0.816
		V43.183"/>
	
		<path fill="none" stroke="#FFFFFF" stroke-width="5.482" stroke-linecap="round" stroke-linejoin="round" stroke-miterlimit="10" d="
		M12.061,43.183h3.927v1.611h-0.761v2.991c0,0.913,0.183,1.479,1.207,1.479c1.022,0,1.218-0.565,1.208-1.479v-2.991h-0.762v-1.611
		h3.928v1.611H19.99v3.023c0,2.535-1.087,3.394-3.557,3.394c-2.47,0-3.557-0.858-3.557-3.229v-3.188h-0.816V43.183z"/>
	<polyline fill="#FFFFFF" points="21.743,43.183 24.8,43.183 27.486,47.34 27.486,44.794 26.572,44.794 26.572,43.183 
		30.466,43.183 30.466,44.794 29.683,44.794 29.683,51.037 27.508,51.037 24.723,46.664 24.723,49.428 25.637,49.428 25.637,51.037 
		21.743,51.037 21.743,49.428 22.525,49.428 22.525,44.794 21.743,44.794 21.743,43.183 	"/>
	
		<polygon fill="none" stroke="#FFFFFF" stroke-width="5.482" stroke-linecap="round" stroke-linejoin="round" stroke-miterlimit="10" points="
		21.743,43.183 24.8,43.183 27.486,47.34 27.486,44.794 26.572,44.794 26.572,43.183 30.466,43.183 30.466,44.794 29.683,44.794 
		29.683,51.037 27.508,51.037 24.723,46.664 24.723,49.428 25.637,49.428 25.637,51.037 21.743,51.037 21.743,49.428 22.525,49.428 
		22.525,44.794 21.743,44.794 	"/>
	<polyline fill="#FFFFFF" points="31.316,46.153 31.316,43.183 39.017,43.183 39.017,46.153 37.561,46.153 37.244,44.794 
		36.341,44.794 36.341,49.428 37.256,49.428 37.256,51.037 33.079,51.037 33.079,49.428 33.991,49.428 33.991,44.794 33.079,44.794 
		32.773,46.153 31.316,46.153 	"/>
	
		<polygon fill="none" stroke="#FFFFFF" stroke-width="5.482" stroke-linecap="round" stroke-linejoin="round" stroke-miterlimit="10" points="
		31.316,46.153 31.316,43.183 39.017,43.183 39.017,46.153 37.561,46.153 37.244,44.794 36.341,44.794 36.341,49.428 37.256,49.428 
		37.256,51.037 33.079,51.037 33.079,49.428 33.991,49.428 33.991,44.794 33.079,44.794 32.773,46.153 	"/>
	<path fill="#FFFFFF" d="M42.205,47.111c0,0.968,0.675,1.837,1.72,1.837c1.054,0,1.729-0.869,1.729-1.837
		c0-0.969-0.676-1.839-1.729-1.839C42.88,45.272,42.205,46.143,42.205,47.111 M39.791,47.111c0-2.273,1.838-4.103,4.134-4.103
		c2.306,0,4.145,1.829,4.145,4.103c0,2.272-1.839,4.1-4.145,4.1C41.629,51.211,39.791,49.384,39.791,47.111z"/>
	
		<path fill="none" stroke="#FFFFFF" stroke-width="5.482" stroke-linecap="round" stroke-linejoin="round" stroke-miterlimit="10" d="
		M39.791,47.111c0-2.273,1.838-4.103,4.134-4.103c2.306,0,4.145,1.829,4.145,4.103c0,2.272-1.839,4.1-4.145,4.1
		C41.629,51.211,39.791,49.384,39.791,47.111z"/>
	
		<path fill="none" stroke="#FFFFFF" stroke-width="5.482" stroke-linecap="round" stroke-linejoin="round" stroke-miterlimit="10" d="
		M42.205,47.111c0,0.968,0.675,1.837,1.72,1.837c1.054,0,1.729-0.869,1.729-1.837c0-0.969-0.676-1.839-1.729-1.839
		C42.88,45.272,42.205,46.143,42.205,47.111z"/>
	<path fill="#FFFFFF" d="M53.812,45.392c-0.195-0.271-0.435-0.479-0.729-0.63c-0.293-0.153-0.642-0.229-1.066-0.229
		c-0.435,0-0.957,0.141-0.957,0.565c0,0.684,1.24,0.662,2.48,0.914c1.24,0.249,2.481,0.771,2.481,2.555
		c0,1.741-1.284,2.644-2.97,2.644c-0.752,0-1.557-0.185-2.09-0.804v0.63h-1.947v-2.47h2.002c0.163,0.327,0.392,0.566,0.664,0.719
		c0.271,0.152,0.598,0.229,0.957,0.229c0.512,0,1.109-0.108,1.109-0.642c0-0.696-1.251-0.696-2.502-0.946
		c-1.251-0.249-2.502-0.74-2.502-2.426c0-1.272,1.076-2.492,3.013-2.492c0.838,0,1.437,0.186,2.067,0.772v-0.599h1.958v2.209H53.812
		"/>
	
		<path fill="none" stroke="#FFFFFF" stroke-width="5.482" stroke-linecap="round" stroke-linejoin="round" stroke-miterlimit="10" d="
		M53.812,45.392c-0.195-0.271-0.435-0.479-0.729-0.63c-0.293-0.153-0.642-0.229-1.066-0.229c-0.435,0-0.957,0.141-0.957,0.565
		c0,0.684,1.24,0.662,2.48,0.914c1.24,0.249,2.481,0.771,2.481,2.555c0,1.741-1.284,2.644-2.97,2.644
		c-0.752,0-1.557-0.185-2.09-0.804v0.63h-1.947v-2.47h2.002c0.163,0.327,0.392,0.566,0.664,0.719
		c0.271,0.152,0.598,0.229,0.957,0.229c0.512,0,1.109-0.108,1.109-0.642c0-0.696-1.251-0.696-2.502-0.946
		c-1.251-0.249-2.502-0.74-2.502-2.426c0-1.272,1.076-2.492,3.013-2.492c0.838,0,1.437,0.186,2.067,0.772v-0.599h1.958v2.209H53.812
		z"/>
	<path fill="#F2851F" d="M12.223,17.302c-4.87,0-8.817,3.947-8.817,8.817s3.947,8.817,8.817,8.817c2.514,0,4.782-1.053,6.389-2.74
		c-3.777-2.663-6.244-7.06-6.244-12.033c0-0.976,0.095-1.93,0.277-2.852C12.505,17.305,12.364,17.302,12.223,17.302"/>
	<path fill="#6CBE45" d="M27.083,5.447c-7.15,0-13.111,5.103-14.438,11.864c4.673,0.22,8.396,4.079,8.396,8.808
		c0,2.356-0.924,4.495-2.429,6.077c2.396,1.689,5.318,2.682,8.471,2.682c2.713,0,5.254-0.733,7.437-2.014
		c-3.552-2.297-5.904-6.292-5.904-10.836c0-5.721,3.728-10.572,8.885-12.259C34.836,7.099,31.153,5.447,27.083,5.447"/>
	<path fill="#7B703C" d="M12.645,17.311c-0.182,0.922-0.277,1.876-0.277,2.852c0,4.973,2.467,9.37,6.244,12.033
		c1.505-1.582,2.429-3.721,2.429-6.077C21.041,21.39,17.318,17.531,12.645,17.311"/>
	<path fill="#FFCD03" d="M41.51,9.133c-1.399,0-2.748,0.224-4.01,0.636c2.656,2.662,4.298,6.337,4.298,10.394
		c0,5.414-2.923,10.145-7.278,12.701c2.014,1.303,4.414,2.058,6.99,2.058c2.138,0,4.153-0.52,5.929-1.441
		c-2.001-1.425-3.305-3.764-3.305-6.408c0-4.342,3.521-7.862,7.862-7.862c0.75,0,1.475,0.104,2.161,0.3
		C52.986,13.594,47.769,9.133,41.51,9.133"/>
	<path fill="#74A343" d="M37.5,9.769c-5.157,1.687-8.885,6.538-8.885,12.259c0,4.544,2.352,8.539,5.904,10.836
		c4.355-2.556,7.278-7.287,7.278-12.701C41.798,16.105,40.156,12.431,37.5,9.769"/>
	<path fill="#FFFFFF" d="M21.966,22.62c0,1.948-1.579,3.526-3.526,3.526c-1.948,0-3.528-1.578-3.528-3.526
		c0-1.949,1.58-3.527,3.528-3.527C20.387,19.093,21.966,20.671,21.966,22.62"/>
	<path fill="#FFFFFF" d="M25.204,34.907c0-5.285-3.016-9.57-6.736-9.57c-3.72,0-6.737,4.285-6.737,9.57H25.204"/>
	<path fill="#FFFFFF" d="M35.891,18.208c0,2.65-2.15,4.799-4.8,4.799c-2.65,0-4.798-2.148-4.798-4.799
		c0-2.651,2.147-4.798,4.798-4.798C33.74,13.409,35.891,15.557,35.891,18.208"/>
	<path fill="#FFFFFF" d="M40.295,34.924c0-7.19-4.103-13.02-9.165-13.02c-5.062,0-9.165,5.829-9.165,13.02H40.295"/>
	<path fill="#007EB8" d="M54.157,19.509c0.161,0.814,0.246,1.656,0.246,2.519c0,4.983-2.827,9.306-6.965,11.452
		c1.285,0.917,2.858,1.456,4.558,1.456c4.344,0,7.863-3.521,7.863-7.864C59.859,23.479,57.449,20.448,54.157,19.509"/>
	<path fill="#196F43" d="M51.996,19.209c-4.342,0-7.862,3.52-7.862,7.862c0,2.644,1.304,4.983,3.305,6.408
		c4.138-2.146,6.965-6.469,6.965-11.452c0-0.862-0.085-1.704-0.246-2.519C53.471,19.313,52.746,19.209,51.996,19.209"/>
	<path fill="#FFFFFF" d="M47.442,23.428c0,1.822-1.478,3.3-3.302,3.3c-1.822,0-3.299-1.478-3.299-3.3c0-1.823,1.477-3.3,3.299-3.3
		C45.965,20.128,47.442,21.605,47.442,23.428"/>
	<path fill="#FFFFFF" d="M50.472,34.924c0-4.944-2.823-8.953-6.303-8.953c-3.481,0-6.303,4.009-6.303,8.953H50.472"/>
	<polyline fill="#F04E23" points="11.753,37.6 11.753,34.932 18.674,34.932 18.674,37.6 17.365,37.6 17.081,36.377 16.27,36.377 
		16.27,40.542 17.091,40.542 17.091,41.989 13.335,41.989 13.335,40.542 14.157,40.542 14.157,36.377 13.335,36.377 13.062,37.6 
		11.753,37.6 	"/>
	<path fill="#F04E23" d="M21.54,38.46c0,0.87,0.606,1.652,1.545,1.652c0.949,0,1.555-0.782,1.555-1.652s-0.606-1.652-1.555-1.652
		C22.146,36.808,21.54,37.59,21.54,38.46 M19.37,38.46c0-2.043,1.652-3.686,3.715-3.686c2.073,0,3.725,1.643,3.725,3.686
		s-1.652,3.687-3.725,3.687C21.021,42.146,19.37,40.503,19.37,38.46z"/>
	<path fill="#F04E23" d="M30.408,40.542h0.732c1.34,0,2.142-0.693,2.142-2.082c0-1.388-0.802-2.083-2.142-2.083h-0.732V40.542
		 M27.602,40.542h0.695v-4.165h-0.695v-1.445h4.019c2.052,0,3.833,0.732,3.833,3.479c0,2.171-1.174,3.578-4.136,3.578h-3.715V40.542
		z"/>
	<path fill="#F04E23" d="M38.377,38.46c0,0.87,0.605,1.652,1.544,1.652c0.948,0,1.556-0.782,1.556-1.652s-0.607-1.652-1.556-1.652
		C38.982,36.808,38.377,37.59,38.377,38.46 M36.206,38.46c0-2.043,1.651-3.686,3.715-3.686c2.073,0,3.726,1.643,3.726,3.686
		s-1.652,3.687-3.726,3.687C37.857,42.146,36.206,40.503,36.206,38.46z"/>
	<path fill="#F04E23" d="M48.809,36.916c-0.176-0.245-0.392-0.431-0.655-0.567c-0.264-0.138-0.577-0.206-0.958-0.206
		c-0.392,0-0.861,0.128-0.861,0.509c0,0.616,1.115,0.597,2.23,0.821c1.114,0.225,2.229,0.693,2.229,2.297
		c0,1.565-1.153,2.377-2.669,2.377c-0.675,0-1.397-0.167-1.877-0.725v0.567h-1.75v-2.22h1.799c0.146,0.294,0.352,0.51,0.597,0.646
		c0.244,0.138,0.538,0.205,0.859,0.205c0.461,0,0.998-0.098,0.998-0.576c0-0.627-1.124-0.627-2.248-0.852
		c-1.125-0.226-2.249-0.665-2.249-2.181c0-1.144,0.968-2.238,2.708-2.238c0.752,0,1.291,0.165,1.857,0.693v-0.536h1.76v1.984H48.809
		"/>
	<path fill="#F04E23" d="M6.652,51.06c0.686,0,1.154-0.087,1.154-0.827v-5.438H6.881v-1.611h4.199v1.611h-0.925v6.026
		c0,2.035-1.24,2.415-3.046,2.415H6.652V51.06"/>
	<path fill="#F04E23" d="M12.061,43.183h3.927v1.611h-0.761v2.991c0,0.913,0.183,1.479,1.207,1.479c1.022,0,1.218-0.565,1.208-1.479
		v-2.991h-0.762v-1.611h3.928v1.611H19.99v3.023c0,2.535-1.087,3.394-3.557,3.394c-2.47,0-3.557-0.858-3.557-3.229v-3.188h-0.816
		V43.183"/>
	<polyline fill="#F04E23" points="21.743,43.183 24.8,43.183 27.486,47.34 27.486,44.794 26.572,44.794 26.572,43.183 
		30.466,43.183 30.466,44.794 29.683,44.794 29.683,51.037 27.508,51.037 24.723,46.664 24.723,49.428 25.637,49.428 25.637,51.037 
		21.743,51.037 21.743,49.428 22.525,49.428 22.525,44.794 21.743,44.794 21.743,43.183 	"/>
	<polyline fill="#F04E23" points="31.316,46.153 31.316,43.183 39.017,43.183 39.017,46.153 37.561,46.153 37.244,44.794 
		36.341,44.794 36.341,49.428 37.256,49.428 37.256,51.037 33.079,51.037 33.079,49.428 33.991,49.428 33.991,44.794 33.079,44.794 
		32.773,46.153 31.316,46.153 	"/>
	<path fill="#F04E23" d="M42.205,47.111c0,0.968,0.675,1.837,1.72,1.837c1.054,0,1.729-0.869,1.729-1.837
		c0-0.969-0.676-1.839-1.729-1.839C42.88,45.272,42.205,46.143,42.205,47.111 M39.791,47.111c0-2.273,1.838-4.103,4.134-4.103
		c2.306,0,4.145,1.829,4.145,4.103c0,2.272-1.839,4.1-4.145,4.1C41.629,51.211,39.791,49.384,39.791,47.111z"/>
	<path fill="#F04E23" d="M53.812,45.392c-0.195-0.271-0.435-0.479-0.729-0.63c-0.293-0.153-0.642-0.229-1.066-0.229
		c-0.435,0-0.957,0.141-0.957,0.565c0,0.684,1.24,0.662,2.48,0.914c1.24,0.249,2.481,0.771,2.481,2.555
		c0,1.741-1.284,2.644-2.97,2.644c-0.752,0-1.557-0.185-2.09-0.804v0.63h-1.947v-2.47h2.002c0.163,0.327,0.392,0.566,0.664,0.719
		c0.271,0.152,0.598,0.229,0.957,0.229c0.512,0,1.109-0.108,1.109-0.642c0-0.696-1.251-0.696-2.502-0.946
		c-1.251-0.249-2.502-0.74-2.502-2.426c0-1.272,1.076-2.492,3.013-2.492c0.838,0,1.437,0.186,2.067,0.772v-0.599h1.958v2.209H53.812
		"/>
</g>
</svg>
