<?xml version="1.0" encoding="utf-8"?>
<!-- Generator: Adobe Illustrator 16.0.0, SVG Export Plug-In . SVG Version: 6.00 Build 0)  -->
<!DOCTYPE svg PUBLIC "-//W3C//DTD SVG 1.1//EN" "http://www.w3.org/Graphics/SVG/1.1/DTD/svg11.dtd">
<svg version="1.1" id="Layer_1" xmlns="http://www.w3.org/2000/svg" xmlns:xlink="http://www.w3.org/1999/xlink" x="0px" y="0px"
	 width="64px" height="67px" viewBox="0 0 64 67" enable-background="new 0 0 64 67" xml:space="preserve">
<g>
	<path fill="#020202" d="M52.553,33.033c0,0,12.719,2.739,2.674,18.648c-10.041,15.91-26.83,11.156-25.759,3.07
		c-5.195-0.479-9.665-5.998-9.665-5.998S7.497,48.671,6.176,46.649c-1.319-2.021-1.965-5.684-0.135-7.807
		c1.121-1.25,7.907-1.217,7.907-1.217s-5.725-3.037-6.4-3.513c-0.678-0.479-3.262-2.767-1.163-7.069
		c1.7-3.296,5.546-2.852,6.825-2.519l5.421,1.134c0,0-4.877-3.943-5.879-4.91c-1.006-0.965-2.02-4.397-0.2-6.871
		c1.821-2.472,3.76-3.848,7.557-1.204c3.795,2.64,6.808,5.252,6.808,5.252s-1.602-6.542-2.041-8.416
		c-0.439-1.875,1.765-4.228,4.071-4.626c2.308-0.398,5.416,0.215,6.889,3.187c1.473,2.974,4.879,10.581,4.879,10.581
		s3.586-4.583,7.537-5.509c3.947-0.925,6.801,1.303,7.387,3.211c0.592,1.913-2.758,8.415-4.285,10.044
		C52.412,29.405,52.553,33.033,52.553,33.033z"/>
	<path fill="#B086BD" d="M40.047,51.991c0,0-1.184,3.385-8.35,3.225c0.969,3.232,3.473,5.188,7.78,3.969
		c4.301-1.219,9.947-5.154,13.199-9.658s4.99-9.148,2.111-12.992c-1.053-1.282-2.352-1.002-2.352-1.002s0.41,5.974-5.18,9.542
		c2.336-4.502,5.691-9.166,1.969-19.028c-0.338-0.841,2.195-5.387,2.977-6.276c0.781-0.889,1.906-4.825-2.703-4.31
		c-4.609,0.517-9.316,6.348-11.33,10.703c-2.018,4.354-0.953,13.426,1.041,16.209c-4.029-3.932-5.304-14.927-0.297-20.621
		c-0.896-3.461-4.488-13.07-6.996-13.824c-2.505-0.755-4.288,1.288-4.288,1.288l3.664,12.626c0,0,2.997-0.772,4.014-0.656
		c-4.161,1.538-11.382,7.183-13.32,22.113c-1.007-1.881-0.963-2.598-0.963-2.598s-9.03-0.57-11.119-0.15
		c-2.092,0.418-2.509,0.445-2.537,2.43c-0.031,1.984,0.842,2.697,2.308,2.922c1.464,0.219,11.435,1.133,11.435,1.133
		S26.923,56.546,40.047,51.991z"/>
	<path fill="#B086BD" d="M25.644,27.263l2.846-3.845c0,0-9.625-7.915-10.601-8.465c-0.975-0.546-2.196-0.333-2.915,1.109
		c-0.725,1.44-0.421,2.428,1.37,4.056C18.14,21.745,25.644,27.263,25.644,27.263z"/>
	<path fill="#B086BD" d="M23.859,30.364c0,0-2.494,4.256-2.388,7.124c-5.253-2.23-10.487-4.392-11.744-5.227
		c-1.255-0.837-1.884-2.312-1.34-3.923c0.538-1.609,2.67-1.26,3.814-0.894C13.346,27.812,23.859,30.364,23.859,30.364z"/>
	<g>
		<path fill="#7F52A1" d="M35.307,21.185c-0.708-0.078-3.39,1.873-3.997,2.347c-2.682,2.168-5.555,5.803-7.496,11.6
			C26.869,27.522,32.251,22.314,35.307,21.185z"/>
		<path fill="#7F52A1" d="M31.237,9.786c2.351,0.707,5.656,9.206,6.798,13.114c0.27-0.401,0.559-0.786,0.877-1.147
			c-0.895-3.46-4.487-13.07-6.995-13.824c-2.506-0.754-4.287,1.288-4.287,1.288l0.307,1.058C28.701,9.8,29.858,9.371,31.237,9.786z"
			/>
		<path fill="#7F52A1" d="M48.541,27.905c2.119,5.606,1.943,9.536,0.971,12.708c1.49-3.495,2.262-7.813-0.289-14.566
			c-0.039-0.104-0.037-0.261-0.004-0.457C48.732,26.639,48.408,27.568,48.541,27.905z"/>
		<path fill="#7F52A1" d="M39.084,42.183c-0.871-1.215-1.441-1.709-2.459-4.281c-1.127-3.369-1.358-7.64-0.264-11.343
			C33.68,32.51,35.673,38.856,39.084,42.183z"/>
		<path fill="#7F52A1" d="M48.816,17.321c2.885-0.323,3.523,1.097,3.406,2.425c0.779-0.933,1.848-4.796-2.725-4.285
			c-4.609,0.517-9.314,6.349-11.33,10.703c-0.223,0.48-0.406,1.021-0.555,1.6C39.689,23.438,44.295,17.823,48.816,17.321z"/>
		<path fill="#7F52A1" d="M54.105,38.394c1.586,2.119,1.766,4.482,1.064,6.93c1.391-3.104,1.604-6.137-0.385-8.788
			c-1.051-1.282-2.352-1.003-2.352-1.003s0.049,0.737-0.125,1.845C52.783,37.425,53.486,37.638,54.105,38.394z"/>
		<path fill="#7F52A1" d="M20.34,42.558c0,0-0.136,1.768,1.646,3.283c-0.126-1.047-0.143-1.754,0.001-2.541
			c-0.695-1.439-0.964-2.598-0.964-2.598s-9.029-0.57-11.118-0.152c-2.066,0.412-2.496,0.451-2.534,2.359
			c0.381-0.217,0.964-0.324,1.852-0.502C11.31,41.987,20.34,42.558,20.34,42.558z"/>
		<path fill="#7F52A1" d="M17.207,16.812c0.852,0.479,8.291,6.567,10.171,8.108l1.113-1.502c0,0-9.626-7.915-10.601-8.465
			c-0.976-0.546-2.196-0.333-2.916,1.109c-0.241,0.48-0.357,0.912-0.353,1.331C15.349,16.44,16.368,16.342,17.207,16.812z"/>
		<path fill="#7F52A1" d="M11.518,29.301c1.044,0.335,9.846,2.479,11.416,2.861c0.495-1.062,0.926-1.799,0.926-1.799
			s-10.514-2.552-11.658-2.92c-1.145-0.366-3.276-0.716-3.814,0.894c-0.131,0.384-0.188,0.758-0.192,1.117
			C9.051,28.727,10.601,29.008,11.518,29.301z"/>
		<path fill="#7F52A1" d="M47.73,44.755c0.67-1.275,1.316-2.621,1.781-4.143c-0.684,1.607-1.521,3.045-2.256,4.463
			C47.42,44.97,47.578,44.862,47.73,44.755z"/>
	</g>
</g>
</svg>
