<?xml version="1.0" encoding="utf-8"?>
<!-- Generator: Adobe Illustrator 16.0.0, SVG Export Plug-In . SVG Version: 6.00 Build 0)  -->
<!DOCTYPE svg PUBLIC "-//W3C//DTD SVG 1.1//EN" "http://www.w3.org/Graphics/SVG/1.1/DTD/svg11.dtd">
<svg version="1.1" id="Layer_1" xmlns="http://www.w3.org/2000/svg" xmlns:xlink="http://www.w3.org/1999/xlink" x="0px" y="0px"
	 width="64px" height="67px" viewBox="0 0 64 67" enable-background="new 0 0 64 67" xml:space="preserve">
<g>
	<path fill="#010101" d="M53.553,35.53c0,0,12.209,4.495,0.038,18.842c-12.171,14.348-28.128,7.29-25.937-0.567
		c-5.078-1.201-8.729-7.291-8.729-7.291S6.75,44.709,5.728,42.525c-1.024-2.188-1.152-5.904,0.959-7.751
		c1.283-1.079,7.999-0.096,7.999-0.096S9.44,30.868,8.84,30.302c-0.604-0.567-2.843-3.196-0.163-7.162
		c2.144-3.024,5.889-2.048,7.109-1.538l5.208,1.879c0,0-4.277-4.584-5.134-5.683c-0.859-1.096-1.383-4.638,0.765-6.833
		c2.149-2.192,4.261-3.283,7.649-0.136c3.389,3.146,6.006,6.156,6.006,6.156s-0.671-6.704-0.844-8.621
		c-0.172-1.919,2.34-3.938,4.68-4.01c2.34-0.072,5.331,0.97,6.375,4.12c1.044,3.149,3.349,11.157,3.349,11.157
		s4.193-4.035,8.234-4.399c4.04-0.363,6.552,2.242,6.867,4.214c0.316,1.975-3.91,7.946-5.648,9.344
		C53.92,31.92,53.553,35.53,53.553,35.53z"/>
	<path fill="#F27BAA" d="M38.518,52.552c0,0-1.646,3.186-8.722,2.024c0.508,3.338,2.714,5.622,7.149,5.019
		c4.427-0.605,10.57-3.711,14.42-7.714c3.85-4.007,6.219-8.362,3.91-12.571c-0.865-1.417-2.19-1.319-2.19-1.319
		s-0.429,5.972-6.464,8.723c2.943-4.131,6.919-8.28,4.613-18.564c-0.218-0.88,2.928-5.027,3.826-5.798
		c0.896-0.772,2.562-4.512-2.074-4.645c-4.637-0.137-10.113,4.979-12.718,9.01c-2.606,4.031-2.819,13.162-1.237,16.195
		c-3.438-4.455-3.163-15.522,2.594-20.459c-0.403-3.551-2.616-13.57-4.991-14.669c-2.377-1.097-4.426,0.676-4.426,0.676l1.86,13.016
		c0,0,3.074-0.346,4.064-0.088c-4.334,0.94-12.273,5.519-16.283,20.03c-0.732-2.004-0.591-2.707-0.591-2.707
		s-8.86-1.827-10.988-1.706c-2.128,0.12-2.546,0.092-2.851,2.053c-0.31,1.96,0.455,2.787,1.873,3.214
		c1.421,0.425,11.165,2.724,11.165,2.724S24.883,55.228,38.518,52.552z"/>
	<path fill="#F27BAA" d="M27.715,26.051l3.354-3.406c0,0-8.423-9.186-9.312-9.864c-0.89-0.677-2.127-0.638-3.04,0.689
		c-0.92,1.323-0.758,2.345,0.79,4.207C21.056,19.54,27.715,26.051,27.715,26.051z"/>
	<path fill="#F27BAA" d="M25.512,28.873c0,0-3.064,3.863-3.358,6.718c-4.892-2.941-9.771-5.815-10.899-6.817
		c-1.125-1.005-1.54-2.552-0.778-4.074c0.759-1.518,2.821-0.871,3.902-0.351C15.459,24.874,25.512,28.873,25.512,28.873z"/>
	<g>
		<path fill="#C54277" d="M38.132,21.388c-0.687-0.179-3.616,1.38-4.286,1.764c-2.956,1.771-6.311,4.968-9.043,10.437
			C28.889,26.481,34.95,22.077,38.132,21.388z"/>
		<path fill="#C54277" d="M35.698,9.53c2.229,1.028,4.312,9.907,4.896,13.936c0.322-0.36,0.666-0.699,1.031-1.013
			c-0.403-3.552-2.616-13.569-4.991-14.668c-2.377-1.097-4.426,0.674-4.426,0.674l0.154,1.092C33.185,9.19,34.392,8.926,35.698,9.53
			z"/>
		<path fill="#C54277" d="M50.297,29.891c1.312,5.85,0.59,9.714-0.816,12.722c1.965-3.255,3.332-7.421,1.753-14.464
			c-0.026-0.107-0.003-0.264,0.061-0.455C50.665,28.666,50.21,29.54,50.297,29.891z"/>
		<path fill="#C54277" d="M38.934,42.708c-0.692-1.325-1.188-1.896-1.834-4.584c-0.646-3.494-0.273-7.755,1.326-11.27
			C34.938,32.371,36.021,38.934,38.934,42.708z"/>
		<path fill="#C54277" d="M52.051,19.449c2.902,0.085,3.336,1.583,3.033,2.878c0.902-0.814,2.5-4.488-2.097-4.621
			c-4.638-0.137-10.113,4.979-12.718,9.01c-0.287,0.444-0.543,0.952-0.773,1.507C42.156,24.23,47.504,19.315,52.051,19.449z"/>
		<path fill="#C54277" d="M54.339,41.054c1.274,2.322,1.12,4.686,0.084,7.015c1.812-2.879,2.446-5.854,0.853-8.758
			c-0.865-1.417-2.19-1.32-2.19-1.32s-0.054,0.736-0.382,1.808C53.165,39.912,53.831,40.223,54.339,41.054z"/>
		<path fill="#C54277" d="M20.323,40.453c0,0-0.382,1.733,1.17,3.482c0.022-1.054,0.104-1.757,0.356-2.518
			c-0.486-1.521-0.591-2.707-0.591-2.707s-8.86-1.828-10.988-1.706c-2.102,0.119-2.534,0.096-2.84,1.981
			c0.409-0.16,1.002-0.185,1.905-0.237C11.462,38.627,20.323,40.453,20.323,40.453z"/>
		<path fill="#C54277" d="M20.823,14.523c0.776,0.593,7.29,7.662,8.936,9.453l1.311-1.334c0,0-8.422-9.185-9.311-9.863
			c-0.891-0.678-2.127-0.638-3.042,0.688c-0.307,0.443-0.482,0.852-0.535,1.27C19.034,13.895,20.058,13.94,20.823,14.523z"/>
		<path fill="#C54277" d="M13.441,26.095c0.987,0.478,9.401,3.832,10.904,4.431c0.638-0.984,1.166-1.652,1.166-1.652
			s-10.053-3.999-11.135-4.522c-1.082-0.522-3.143-1.167-3.903,0.351c-0.18,0.361-0.29,0.725-0.345,1.081
			C11.081,25.179,12.576,25.677,13.441,26.095z"/>
		<path fill="#C54277" d="M47.137,46.463c0.841-1.17,1.672-2.413,2.344-3.852c-0.902,1.495-1.932,2.801-2.859,4.102
			C46.799,46.633,46.969,46.548,47.137,46.463z"/>
	</g>
</g>
</svg>
