<?xml version="1.0" encoding="utf-8"?>
<!-- Generator: Adobe Illustrator 16.0.0, SVG Export Plug-In . SVG Version: 6.00 Build 0)  -->
<!DOCTYPE svg PUBLIC "-//W3C//DTD SVG 1.1//EN" "http://www.w3.org/Graphics/SVG/1.1/DTD/svg11.dtd">
<svg version="1.1" id="Layer_1" xmlns="http://www.w3.org/2000/svg" xmlns:xlink="http://www.w3.org/1999/xlink" x="0px" y="0px"
	 width="64px" height="67px" viewBox="0 0 64 67" enable-background="new 0 0 64 67" xml:space="preserve">
<g>
	<path fill="#010101" d="M52.836,33.647c0,0,12.615,3.173,2.036,18.73c-10.579,15.557-27.196,10.234-25.849,2.188
		c-5.177-0.654-9.456-6.322-9.456-6.322s-12.295-0.504-13.546-2.57c-1.25-2.064-1.77-5.746,0.132-7.805
		c1.164-1.213,7.944-0.945,7.944-0.945s-5.619-3.231-6.277-3.733c-0.662-0.499-3.165-2.875-0.921-7.104
		c1.812-3.233,5.639-2.66,6.906-2.282l5.378,1.315c0,0-4.738-4.104-5.708-5.106c-0.97-0.999-1.867-4.464,0.037-6.875
		c1.904-2.408,3.888-3.717,7.592-0.946c3.704,2.769,6.625,5.485,6.625,5.485s-1.377-6.596-1.753-8.485
		c-0.375-1.887,1.907-4.165,4.229-4.482c2.317-0.318,5.403,0.399,6.775,3.42c1.37,3.022,4.514,10.741,4.514,10.741
		s3.741-4.457,7.72-5.247c3.979-0.791,6.753,1.533,7.275,3.461c0.525,1.93-3.045,8.316-4.625,9.89
		C52.818,30.018,52.836,33.647,52.836,33.647z"/>
	<path fill="#00A99D" d="M39.69,52.167c0,0-1.299,3.342-8.457,2.939c0.86,3.264,3.296,5.303,7.64,4.232
		c4.34-1.072,10.119-4.811,13.522-9.201s5.298-8.973,2.554-12.915c-1.01-1.314-2.317-1.079-2.317-1.079s0.206,5.986-5.502,9.359
		c2.487-4.42,5.999-8.968,2.617-18.951c-0.309-0.852,2.379-5.309,3.19-6.17c0.812-0.863,2.07-4.757-2.557-4.398
		c-4.623,0.356-9.525,6.024-11.688,10.309c-2.165,4.284-1.41,13.387,0.488,16.236c-3.892-4.064-4.793-15.101,0.407-20.619
		c-0.778-3.488-4.041-13.217-6.52-14.057c-2.479-0.839-4.33,1.143-4.33,1.143l3.23,12.743c0,0,3.021-0.667,4.033-0.52
		c-4.208,1.396-11.617,6.793-14.065,21.647c-0.942-1.916-0.875-2.631-0.875-2.631s-9.005-0.877-11.106-0.529
		c-2.106,0.346-2.523,0.361-2.62,2.344c-0.098,1.98,0.75,2.721,2.207,2.996c1.456,0.27,11.39,1.523,11.39,1.523
		S26.418,56.274,39.69,52.167z"/>
	<path fill="#00A99D" d="M26.139,26.963l2.975-3.744c0,0-9.351-8.239-10.306-8.821c-0.957-0.579-2.183-0.407-2.952,1.008
		c-0.773,1.416-0.504,2.413,1.232,4.102C18.826,21.193,26.139,26.963,26.139,26.963z"/>
	<path fill="#00A99D" d="M24.248,30.002c0,0-2.636,4.167-2.627,7.037c-5.175-2.407-10.334-4.746-11.56-5.625
		c-1.227-0.879-1.803-2.375-1.208-3.965c0.594-1.591,2.712-1.168,3.844-0.764C13.829,27.092,24.248,30.002,24.248,30.002z"/>
	<g>
		<path fill="#046576" d="M32.444,9.731c2.296,0.777,5.265,9.182,6.306,13.188c0.261-0.354,0.539-0.69,0.838-1.01
			c-0.777-3.488-4.041-13.217-6.52-14.057c-2.48-0.839-4.33,1.143-4.33,1.143l0.296,1.166C29.812,9.693,31.025,9.25,32.444,9.731z"
			/>
		<path fill="#046576" d="M36.002,21.219c-0.766-0.112-2.821,1.182-4.195,2.302c-3.053,2.342-6.385,6.489-8.501,13.427
			C25.879,31.381,32.632,22.337,36.002,21.219z"/>
		<path fill="#046576" d="M49.755,17.859c2.743-0.211,3.411,1.071,3.336,2.331c0.789-1.136,1.63-4.544-2.71-4.207
			c-4.624,0.356-9.527,6.024-11.688,10.309c-0.323,0.638-0.579,1.386-0.778,2.202c0.049-0.111,0.1-0.222,0.152-0.323
			C40.229,23.885,45.131,18.216,49.755,17.859z"/>
		<path fill="#046576" d="M54.323,39.103c1.345,1.928,1.57,4.012,1.057,6.152c1.182-2.793,1.304-5.541-0.431-8.033
			c-1.01-1.316-2.317-1.08-2.317-1.08s0.021,0.755-0.198,1.869C52.902,38.05,53.674,38.253,54.323,39.103z"/>
		<path fill="#046576" d="M39.69,52.167c-1.033,1.729-3.352,2.586-4.589,2.74c-1.049,0.193-2.312,0.289-3.868,0.199
			c0.185,0.701,0.446,1.338,0.778,1.906C37.934,56.935,39.69,52.167,39.69,52.167z"/>
		<path fill="#046576" d="M20.437,42.112c0,0-0.068,0.715,0.874,2.629c0.13-0.789,0.277-1.549,0.435-2.287
			c-0.731-1.598-0.684-2.219-0.684-2.219s-9.152-0.877-11.255-0.529c-2.104,0.346-2.012,0.363-2.767,2.344c0,0.016,0,0.029,0,0.045
			c0.755-0.256,1.147-0.35,2.139-0.514C11.283,41.235,20.437,42.112,20.437,42.112z"/>
	</g>
	<path fill="#046576" d="M18.182,16.274c0.823,0.5,7.84,6.653,9.796,8.372l1.136-1.428c0,0-9.351-8.239-10.306-8.821
		c-0.957-0.579-2.183-0.407-2.952,1.008c-0.301,0.551-0.439,1.04-0.398,1.528C16.228,15.854,17.315,15.749,18.182,16.274z"/>
	<g>
		<path fill="#046576" d="M12.07,28.564c1.007,0.359,9.348,2.698,11.188,3.213c0.532-1.049,0.991-1.775,0.991-1.775
			s-10.42-2.91-11.552-3.316c-1.131-0.404-3.25-0.827-3.844,0.764c-0.162,0.432-0.23,0.856-0.229,1.263
			C9.479,27.874,11.122,28.223,12.07,28.564z"/>
	</g>
</g>
</svg>
