<?xml version="1.0" encoding="utf-8"?>
<!-- Generator: Adobe Illustrator 16.0.0, SVG Export Plug-In . SVG Version: 6.00 Build 0)  -->
<!DOCTYPE svg PUBLIC "-//W3C//DTD SVG 1.1//EN" "http://www.w3.org/Graphics/SVG/1.1/DTD/svg11.dtd">
<svg version="1.1" id="Layer_1" xmlns="http://www.w3.org/2000/svg" xmlns:xlink="http://www.w3.org/1999/xlink" x="0px" y="0px"
	 width="135px" height="70px" viewBox="0 0 135 70" enable-background="new 0 0 135 70" xml:space="preserve">
<path fill="#2E368F" d="M93.77,60.602c0.17,0.004,2.23,0.015,2.23,0.015c0-0.009,0-0.015,0-0.021
	c9-0.334,22.335-10.453,22.335-22.922c0-12.47-10.335-24.924-22.085-24.924c-56.75,0-83.036,24.422-83.036,24.422
	S40.906,60.271,93.77,60.602z"/>
<path fill="#2AAAE2" d="M98.193,55.816C98.328,55.82,100,55.828,100,55.828c0-0.006,0-0.012,0-0.016
	c7-0.268,17.846-8.363,17.846-18.338c0-9.976-8.279-19.938-17.68-19.938c-45.4,0-66.423,19.537-66.423,19.537
	S55.902,55.555,98.193,55.816z"/>
<path fill="#70CDDD" d="M103.604,50.076c0.096,0.003,1.396,0.008,1.396,0.008c0-0.004,0-0.008,0-0.01
	c5-0.188,12.361-5.855,12.361-12.836c0-6.983-5.861-13.957-12.441-13.957c-31.779,0-46.463,13.676-46.463,13.676
	S74.001,49.893,103.604,50.076z"/>
</svg>
