<?xml version="1.0" encoding="utf-8"?>
<!-- Generator: Adobe Illustrator 16.0.0, SVG Export Plug-In . SVG Version: 6.00 Build 0)  -->
<!DOCTYPE svg PUBLIC "-//W3C//DTD SVG 1.1//EN" "http://www.w3.org/Graphics/SVG/1.1/DTD/svg11.dtd">
<svg version="1.1" id="Layer_1" xmlns="http://www.w3.org/2000/svg" xmlns:xlink="http://www.w3.org/1999/xlink" x="0px" y="0px"
	 width="500px" height="500px" viewBox="0 0 500 500" enable-background="new 0 0 500 500" xml:space="preserve">
<path d="M364.625,346l-15.438-2l-9.669-1.439c-1.091-0.104-2.038-0.533-2.678-1.196c-0.602-0.628,23.63,1.831,36.741,2.053
	s52.25,0.25,69.64-29.121c0.072-0.164,0.146-0.321,0.22-0.489c0.316-1.039-0.05-2.235-1.006-2.807l0.004-0.005
	C441.222,310.997,440,311,440,311h-2.722c1.564-17.629-1.838-37.375-10.784-56.38c-13.158-27.955-35.191-47.692-57.932-54.814
	c-4.265-15.562-38.706-27.593-68.892-27.806c-0.021,0-0.245,0-0.266,0h-59c-2.209,0-4-1.791-4-4s1.969-3.688,3.484-4.021
	l0.722-0.208c20.673-4.898,34.888-15.069,34.888-26.83c0-16.163-26.843-29.327-60.415-29.914c-0.028-0.003-0.055-0.006-0.083-0.009
	l-0.799-0.001c-0.484-0.005-0.966-0.018-1.453-0.018c-0.354,0-0.704,0.01-1.057,0.013L205,107h-70v0.115
	c-9.408,1.194-19,15.385-19,29.768c0,13.868,9.53,28.801,19,30.003L169.625,167c1.312,0,2.375,1.063,2.375,2.375v0.25
	c0,1.312-1.063,2.375-2.375,2.375h-25.438c-6.006,0-10.875,5.316-10.875,11.875c0,0.73,0.069,1.441,0.185,2.136l0.305,1.677
	c1.01,4.172,2.271,8.514,3.757,12.957c-3.808,0-18.764-0.051-33.871-0.051C87.438,200.594,86,208,86,208s45.086,0,54.188,0
	c0.5,1.312,1.011,2.628,1.547,3.95c6.688,16.504,15.039,30.466,23.081,39.646c-0.071,0.661-0.144,1.321-0.204,1.991
	c-2.05,1.093-8.608,4.902-8.608,8.909c0,3.585,5.52,7.275,8.225,8.871c0.058,1.223,0.136,2.431,0.227,3.632h-37.168L105,281h60.058
	c1.216,9.639,3.527,18.16,6.683,24.167l0.667,1.269l1.405,0.278c5.236,1.04,26.86,3.024,31.625,3.024
	c11.175,0,15.646,0.07,25.721-1.963c23.676,16.391,52.84,23.066,58.217,24.85C289.375,337.75,282.5,344,279,344
	c-2.688,0-28.469,0-41.062,0c-3.313,0-6.938,3.562-6.938,6.875V366c0,3.312,4.02,6,7.333,6H382.75c3.312,0,6.25-2.688,6.25-6v-5.752
	l-0.042-8.623L364.625,346z"/>
<path fill="#FFFFFF" d="M284.469,343.938l54.193,0.019c-2.485,0-4.5-1.992-4.5-4.478c7.71,0.664,29.672,3.688,48.587,1.514
	c17.729,0.347,43.251-6.491,57.27-24.711c0.167-0.371,0.344-0.741,0.503-1.113c0.302-1.008,0.011-1.667-0.498-2.331l-2.401-0.046
	c-66.122,0-120.312-49.697-125.254-112.79H360c0,0,2.557,0.104,4.812-2c0.016,0,0.03,0.001,0.047,0.001
	c-6.386-13.436-39.446-23.849-65.797-25.001h-57.438h-67.242l-28.227,0.15c-5.705,0-10.331,5.157-10.331,11.519
	c0,0.708,0.065,1.398,0.175,2.071l0.29,1.626c0.861,3.634,1.916,8,3.145,12.181c0.843-0.251,1.634-0.694,2.292-1.244
	c0.453-0.379,2.261-1.758,4.072-3.131c-0.029-0.465-0.049-0.936-0.049-1.414c0-8.551,4.604-15.003,10.483-15.003L182,180h0.15
	c0.111,0,0.213-0.25,0.298-0.25c19.392,0,30.969,5.608,30.969,14.998c0,9.407-11.866,15.252-30.969,15.252h-26.215
	c-1.782,0-3.444-0.738-4.9-1.816c-2.215,0.132-4.667-0.001-4.667-0.001s-2.624-0.073-5.164-0.073c0.476,1,1.814,4.597,2.324,5.88
	c5.926,14.931,13.854,27.677,21.105,36.551c1.18-10.048,3.545-18.945,6.809-25.158l0.667-1.268l1.404-0.279
	c5.232-1.041,26.858-3.026,31.626-3.026c3.274,0,6.518,0.102,9.727,0.283c9.285-8.728,21.769-14.091,35.486-14.091
	c28.602,0,51.869,23.269,51.869,51.87c0,27.965-24.854,57.296-62.029,51.181c16.01,9.332,48.4,19.52,52.102,20.58
	C292.592,337.793,288.318,342.938,284.469,343.938z"/>
<path fill="none" stroke="#000000" stroke-miterlimit="10" d="M252.5,194c0,2.485-2.015,4.5-4.5,4.5h-51c-2.485,0-4.5-2.015-4.5-4.5
	l0,0c0-2.485,2.015-4.5,4.5-4.5h51C250.485,189.5,252.5,191.515,252.5,194L252.5,194z"/>
<path fill="#F2F2F2" d="M182.448,181.504c17.868,0,28.969,4.98,28.969,12.996c0,8.049-11.371,13.25-28.969,13.25h-26.215
	c-4.757,0-8.483-5.706-8.483-12.991c0-7.306,3.806-13.25,8.483-13.25L182,181.506v0.014
	C182.151,181.504,182.307,181.504,182.448,181.504"/>
<path fill="#CCCCCC" d="M196.06,182.691c-3.115,13.739-19.831,24.476-40.308,25.147c0.16,0.013,0.318,0.161,0.481,0.161h26.215
	c17.598,0,28.969-5.326,28.969-13.375C211.417,188.911,205.772,184.616,196.06,182.691z"/>
<path fill="#FFFFFF" d="M196.668,109c-0.224,0-0.444,0.005-0.668,0.006V109h-59c-9.665,0-17.5,12.536-17.5,28s7.835,28,17.5,28h59
	v-0.006c0.224,0.001,0.444,0.006,0.668,0.006c42.526,0,77-12.536,77-28S239.194,109,196.668,109z"/>
<path fill="#999999" d="M172.833,166.958c0,0,1.335,0.313,1.335,2.979C174.209,171.396,173,172,173,172h63
	c0,0-2.188-0.812-2.188-4.125s7.312-6.375,7.312-6.375s-16.175,5.469-41.844,5.469C182.906,166.969,172.833,166.958,172.833,166.958
	z"/>
<path fill="none" stroke="#4D4D4D" stroke-miterlimit="10" d="M199.5,194c0,1.933-1.567,3.5-3.5,3.5h-44c-1.933,0-3.5-1.567-3.5-3.5
	l0,0c0-1.933,1.567-3.5,3.5-3.5h44C197.933,190.5,199.5,192.067,199.5,194L199.5,194z"/>
<g>
	<path fill="#FFFFFF" d="M239,371c-3.86,0-7-3.141-7-7v-12c0-3.859,3.14-7,7-7h142c3.859,0,7,3.141,7,7v12c0,3.859-3.141,7-7,7H239z
		"/>
	<path d="M381,346c3.312,0,6,2.688,6,6v12c0,3.312-2.688,6-6,6H239c-3.313,0-6-2.688-6-6v-12c0-3.312,2.687-6,6-6H381 M381,344H239
		c-4.411,0-8,3.589-8,8v12c0,4.411,3.589,8,8,8h142c4.411,0,8-3.589,8-8v-12C389,347.589,385.411,344,381,344L381,344z"/>
</g>
<g>
	<path fill="#333333" d="M117.854,125.702c-6.65,3.263-10.521,7.138-10.521,11.298c0,4.192,3.929,8.094,10.671,11.373
		c-1.266-3.701-2.004-7.637-2.004-11.491C116,133.061,116.683,129.256,117.854,125.702z"/>
</g>
<path fill="#999999" d="M292.592,330.631c0,7.162-4.271,12.307-8.123,13.307l54.193,0.019c-2.485,0-4.5-1.992-4.5-4.478
	C334.162,339.479,326.591,340.511,292.592,330.631z"/>
<g>
	<path fill="#FBB03B" d="M149.125,206.862c-0.771,0-59.125-0.114-59.125-0.114V206c0-2.752,5.883-5,14.333-5h33.916
		c1.064,0,3.24-0.162,5.866-2.081c1.073-0.784,7.366-5.654,7.429-5.703l0.202-0.216h19.319l-1.485,1.437
		c-0.059,0.052-5.932,5.309-10.049,9.426c-2.435,2.435-6.553,2.977-9.631,2.977L149.125,206.862z"/>
	<path d="M169,194L169,194 M169.042,194c0,0-5.879,5.213-10.062,9.396c-2.51,2.51-7.179,2.726-9.154,2.726
		c-0.41,0-0.699-0.009-0.832-0.009c-0.771,0-58.497-0.112-58.497-0.112c0-2,5.502-4,13.835-4c3.529,0,32.698,0,33.916,0
		c1.218,0,3.563-0.344,6.309-2.35C145.649,198.852,152,194,152,194h17 M169.089,193h-0.005H152h-0.507l-0.403,0.058
		c-0.063,0.048-6.35,4.977-7.417,5.756c-2.454,1.793-4.451,2.186-5.423,2.186h-33.916C96.701,201,89,202.201,89,206v1.497
		l1.497,0.003c0.577,0.001,57.74,0.112,58.503,0.112l0.179,0.002c0.162,0.003,0.385,0.007,0.658,0.007
		c3.221,0,7.608-0.549,10.225-3.166c4.101-4.1,9.957-9.03,10.016-9.082l2.97-2.374L169.089,193L169.089,193L169.089,193z"/>
</g>
<path fill="#E6E6E6" d="M258.633,310.098c0.619,0.021,1.238,0.047,1.863,0.047c28.632,0,51.844-23.211,51.844-51.845
	c0-28.632-23.212-51.844-51.844-51.844c-2.678,0-5.309,0.204-7.876,0.595c27.69,1.041,49.899,23.879,49.899,51.82
	C302.521,284.754,283.454,306.246,258.633,310.098z"/>
<g>
	<path fill="#333333" d="M321.191,343.998c-3.264-6.65-7.139-10.671-11.299-10.671c-4.192,0-8.095,3.929-11.373,10.671
		C302.531,343.998,317.5,343.998,321.191,343.998z"/>
</g>
<g>
	<path fill="#FFFFFF" d="M205.438,223.809c46.15,0,83.562,18.566,83.562,41.464s-37.412,41.466-83.562,41.466
		c-4.6,0-26.061-1.979-31.041-2.968c-4.415-8.403-7.312-22.51-7.312-38.498s2.897-30.093,7.312-38.497
		C179.377,225.787,200.838,223.809,205.438,223.809"/>
</g>
<path fill="#CCCCCC" d="M269.473,238.643c-3.221,19.652-47.236,35.356-102.02,36.311c0.907,11.917,3.445,22.161,6.943,28.817
	c4.98,0.99,26.441,2.969,31.041,2.969c46.15,0,83.562-18.566,83.562-41.467C289,255.134,281.654,245.848,269.473,238.643z"/>
<g>
	<path fill="#FF0000" d="M287.667,273H167v-12h121.561c0,0,0.647,2.667,0.353,6.176C288.717,269.494,287.667,273,287.667,273z"/>
</g>
<path fill="#C1272D" d="M288.984,264.936c-0.008-0.446-0.024-0.892-0.061-1.334c-0.01-0.127-0.02-0.252-0.031-0.369
	c-0.072-0.75-0.195-1.493-0.35-2.231H244.94c-12.638,5.481-29.401,9.687-48.581,12h91.168c0.361-0.952,0.658-1.916,0.888-2.892
	c0.082-0.365,0.161-0.742,0.231-1.12c0.092-0.505,0.181-1.011,0.233-1.521c0.005-0.04,0.009-0.079,0.013-0.118
	c0.061-0.602,0.084-1.205,0.092-1.812C288.988,265.331,288.988,265.131,288.984,264.936z"/>
<path fill="none" stroke="#000000" stroke-miterlimit="10" d="M256.5,268.137c0,2.41-1.953,4.363-4.361,4.363h-54.276
	c-2.409,0-4.362-1.953-4.362-4.363v-0.272c0-2.41,1.953-4.363,4.362-4.363h54.276c2.408,0,4.361,1.953,4.361,4.363V268.137z"/>
<g>
	<path fill="#FBB03B" d="M195.751,280.872c-1.792,0-3.043-0.007-3.535-0.009l-81.572,0.008l3.306-1.562
		c9.348-4.065,30.95-4.309,33.382-4.309h33.916c1.53,0,10.405-0.281,12.866-2.08c1.073-0.785,7.366-5.654,7.43-5.703l0.201-0.217
		h49.319l-1.485,1.438c-0.059,0.053-5.932,5.309-10.049,9.427C237.097,280.298,214.38,280.872,195.751,280.872z"/>
	<path d="M249,268L249,268 M249.042,268c0,0-5.879,5.213-10.062,9.396c-2.51,2.51-32.534,2.727-43.239,2.727
		c-2.228,0-3.614-0.01-3.747-0.01c-0.771,0-77.747,0.009-77.747,0.009C121.998,276.75,139,276,147.333,276
		c3.529,0,32.698,0,33.916,0c1.218,0,10.563-0.344,13.309-2.35C195.649,272.852,202,268,202,268h47 M253.047,267h-3.963H202h-0.507
		l-0.403,0.059c-0.063,0.049-6.351,4.977-7.417,5.756c-1.98,1.447-9.689,2.187-12.423,2.187h-33.916
		c-2.448,0-24.195,0.06-33.681,4.185L107.039,282h7.211c0,0,76.979,0,77.75,0h0.213c0.492,0,1.745-0.186,3.539-0.186
		c41.145,0,43.527-2.479,44.31-3.263c4.101-4.101,9.957-9.077,10.016-9.131L253.047,267L253.047,267z"/>
</g>
<g>
	<path fill="#E6E6E6" d="M250.65,211c-12.617,0-24.087,4.89-32.639,12.868c0.675,0.03,1.35,0.053,2.024,0.093
		c4.865,0.288,9.731,0.764,14.56,1.54c9.652,1.533,19.225,4.014,28.279,7.995c4.519,1.996,8.927,4.334,13.005,7.251
		c4.043,2.945,7.844,6.403,10.732,10.718c1.427,2.159,2.623,4.514,3.437,7.039c0.81,2.53,1.147,5.221,1.038,7.9
		c-0.023,0.604-0.034,1.191-0.156,1.92c-0.111,0.681-0.166,1.416-0.343,2.05c-0.161,0.646-0.312,1.298-0.489,1.938l-0.66,1.881
		c-0.98,2.463-2.305,4.746-3.826,6.853c-1.543,2.093-3.312,3.966-5.16,5.729c-1.9,1.695-3.859,3.324-5.948,4.74
		c-4.14,2.899-8.604,5.213-13.164,7.215c-4.567,1.992-9.267,3.631-14.031,4.987c-2.393,0.679-4.801,1.29-7.223,1.837
		c3.4,0.766,6.934,1.184,10.565,1.184c26.438,0,47.869-21.432,47.869-47.868C298.52,232.433,277.089,211,250.65,211z"/>
</g>
<path fill="#B3B3B3" d="M296.16,244.02c-0.48,11.876-2.844,22.423-7.037,30.89c-0.943,2.188-2.141,4.238-3.512,6.137
	c-0.481,0.652-0.99,1.276-1.512,1.891c-2.717,3.449-5.885,6.313-9.494,8.508c-0.034,0.022-0.067,0.05-0.104,0.072
	c-4.141,2.899-8.604,5.213-13.164,7.215c-4.568,1.992-9.267,3.631-14.031,4.988c-2.393,0.678-4.801,1.289-7.223,1.836
	c3.4,0.767,6.934,1.185,10.566,1.185c26.438,0,47.869-21.433,47.869-47.869C298.521,253.686,297.686,248.696,296.16,244.02z"/>
<path fill="#F9BE3D" d="M308.464,258h-15.938c0.412,1,0.695,3,0.843,5h15.083c0.043-1,0.068-1.834,0.068-2.76
	C308.521,259.489,308.492,258,308.464,258z"/>
<path fill="#F9BE3D" d="M293.49,266c-0.016,1-0.174,3-0.453,5h14.467c0.312-2,0.562-4,0.729-5H293.49z"/>
<path fill="#F9BE3D" d="M292.395,274c-0.463,1-1.08,3-1.812,5h14.807c0.562-2,1.056-4,1.471-5H292.395z"/>
<line fill="none" stroke="#0071BC" stroke-width="4" stroke-miterlimit="10" x1="233" y1="353" x2="387" y2="353"/>
<line fill="none" stroke="#FF0000" stroke-width="4" stroke-miterlimit="10" x1="233" y1="358" x2="387" y2="358"/>
<path opacity="0.3" enable-background="new    " d="M381,346h-1.419c-35.986,10.043-79.453,15.916-126.269,15.916
	c-6.849,0-13.621-0.133-20.312-0.379V364c0,3.312,2.687,6,6,6h142c3.312,0,6-2.688,6-6v-12C387,348.688,384.312,346,381,346z"/>
<path fill="#666666" d="M241.125,161.5c0,0-11.383,3.846-30.198,5.086c-6.499,2.508-13.768,4.363-21.554,5.414H236
	c0,0-2.188-0.812-2.188-4.125S241.125,161.5,241.125,161.5z"/>
<path fill="#999999" d="M440.022,312.836c0,0,0.572,0.711,0.604,1.242S440.564,315,440.564,315l-8.741-0.01
	c-1.934-0.045-3.864-0.2-5.8-0.273c-1.935-0.105-3.859-0.348-5.793-0.505c-1.933-0.174-3.846-0.51-5.772-0.753
	c-3.832-0.614-7.644-1.396-11.413-2.355c-3.769-0.957-7.489-2.121-11.155-3.438c-7.339-2.615-14.4-6.008-21.124-9.968
	c-3.359-1.984-6.604-4.165-9.759-6.464c-3.149-2.305-6.189-4.762-9.122-7.342c-1.48-1.271-2.846-2.674-4.272-4.004
	c-1.414-1.348-2.721-2.803-4.083-4.199c-1.344-1.416-2.586-2.924-3.883-4.383c-1.267-1.485-2.452-3.039-3.665-4.566
	c-1.18-1.557-2.282-3.167-3.426-4.747c-1.096-1.615-2.13-3.271-3.195-4.902c-1.008-1.67-1.976-3.364-2.955-5.049l-2.683-5.196
	l-2.426-5.316l-2.148-5.429l-1.862-5.529c-0.528-1.872-1.081-3.734-1.586-5.609l-1.269-5.683l-0.987-5.729l-0.706-5.763l-0.37-5.787
	l0.819,5.729l1.037,5.682l1.311,5.617l1.579,5.538l1.804,5.461l2.061,5.362l2.297,5.261l2.537,5.143l2.78,5.011l2.989,4.887
	c1.074,1.578,2.114,3.179,3.214,4.737c1.147,1.524,2.254,3.08,3.433,4.578c1.224,1.466,2.377,2.985,3.624,4.427
	c1.277,1.416,2.499,2.883,3.819,4.26c1.341,1.354,2.623,2.77,4.012,4.074c1.403,1.291,2.743,2.65,4.196,3.887
	c2.847,2.535,5.908,4.873,8.973,7.144c3.063,2.272,6.238,4.218,9.487,6.218s6.729,3.715,10.149,5.408
	c3.423,1.691,6.919,3.018,10.476,4.422c3.555,1.409,7.072,2.342,10.741,3.44c3.669,1.101,7.297,1.711,11.055,2.487
	c1.886,0.349,3.689,0.591,5.59,0.873c1.902,0.266,3.885,0.427,5.796,0.643c1.913,0.184,3.786,0.221,5.707,0.376l5.77,0.127
	L440.022,312.836z"/>
<g>
	<path fill="#F7931E" d="M229.146,268c-7.503,5.098-21.193,9-38.582,12c0.873,0,1.378,0,1.437,0c0.771,0,43.969,0.371,47.001-2.66
		c4.183-4.184,10.083-9.34,10.083-9.34H229.146z"/>
</g>
<line fill="none" x1="365" y1="198.001" x2="365" y2="198"/>
<path opacity="0.7" fill="#666666" enable-background="new    " d="M434.256,308.934c1.487-16.748-1.746-35.506-10.245-53.561
	c-4.399-9.349-9.848-17.724-16-24.956c18.02,27.797,22.726,55.272,9.568,67.63c-5.449,5.118-13.303,6.999-22.517,6.066
	C407.432,308.336,434.256,308.934,434.256,308.934z"/>
<path fill="#B3B3B3" d="M328.994,177.78c0.648,1.451,1.006,2.943,1.006,4.47c0,6.923-6.976,13.179-18.206,17.67L312,200h48
	c0,0,2.557,0,4.812-2c0.016,0,0.03,0,0.047,0C360.807,189.749,346.004,182.369,328.994,177.78z"/>
<path fill="#FFFFFF" d="M238.64,137.039c0.357-1.025,0.543-2.119,0.543-3.233c0-2.687-1.012-5.043-2.925-6.957
	c-1.913-1.914-4.355-2.85-7.063-2.85h-2.486h-2.487H221v1.832c-2-1.683-4.166-2.549-6.939-2.549c-2.338,0-4.061,0.638-6.061,1.898
	V124h-3.228h-9.727H192v0.312c-2-0.8-3.75-1.218-5.881-1.218c-4.018,0-7.459,1.434-10.247,4.262
	c-0.565,0.565-1.053,1.285-1.507,1.899c-0.745-2.788-3.157-5.255-8.208-5.255h-12.025H151v2.755v10.383l-8.023-14.022l-2.566-4.504
	l-2.582,4.504l-13.685,23.56L121.556,151h5.194h7.744h1.733l0.866-1.573l0.204-0.427h6.309l0.256,0.491l0.877,1.509h1.685h4.708h3
	h0.005h5.194h5.44c3.352,0,6.257-1.031,8.638-3.41c0.437-0.437,0.821-0.814,1.18-1.292c0.401,0.517,0.828,1.067,1.31,1.548
	c2.774,2.813,6.176,4.269,10.193,4.269c3.399,0,6.908-1.021,8.908-3.062V151h3.1h3.214h3.459h2.17h0.83h13.605h1.902h1.098h1.902
	h0.647h2.519c2.788,0,5.196-0.82,7.158-2.782c1.969-2.013,2.956-4.315,2.956-7.039C239.561,139.685,239.245,138.338,238.64,137.039z
	 M195,142.143l-3.262-3.312l-1.232-1.257l1.209-1.167l0.285-0.294V136h3.046H195V142.143z M184.831,136.337
	c0.372-0.372,0.776-0.538,1.311-0.538c0.533,0,0.938,0.166,1.309,0.538l0.013,0.013l0.039,0.037l1.259,1.229l-1.215,1.215
	l-0.062,0.062c-0.404,0.404-0.809,0.57-1.342,0.57c-0.534,0-0.938-0.166-1.311-0.538c-0.387-0.387-0.537-0.754-0.537-1.31
	C184.294,137.089,184.449,136.719,184.831,136.337z M208,138h2.487c-0.896,1-1.487,2.342-2.487,3.709V138z"/>
<path fill="#0071BC" d="M140.443,124.265L126.75,148h7.744l1.07-2h9.727l1.133,2h7.713L140.443,124.265z M139.436,140l1.008-1.763
	L141.45,140H139.436z"/>
<path fill="#0071BC" d="M173.305,135.538c-0.473-1.039-1.292-2.172-2.079-2.801c0.252-0.441,0.409-0.979,0.409-1.483
	c0-1.857-0.977-4.253-5.478-4.253H154v21h10.771c2.55,0,4.725-0.738,6.52-2.532c1.793-1.794,2.709-3.792,2.709-6.31
	c0-0.031,0-0.031,0-0.031c0-0.032,0-0.032,0-0.032C174,137.835,173.777,136.64,173.305,135.538z M166.566,141.067
	c-0.504,0.503-1.103,0.933-1.795,0.933H161v-5h3.771c0.692,0,1.291,0.009,1.795,0.512c0.503,0.535,0.755,1.101,0.755,1.793
	C167.321,139.997,167.069,140.563,166.566,141.067z"/>
<path fill="#0071BC" d="M186.142,126.094c3.179,0,5.887,1.102,8.152,3.368c0.032,0.031,0.063,0.063,0.095,0.094l-4.753,4.722
	c-0.031-0.031-0.031-0.031-0.063-0.062c-0.944-0.945-2.108-1.417-3.431-1.417c-1.323,0-2.487,0.472-3.432,1.417
	c-0.944,0.944-1.416,2.077-1.416,3.399c0,1.354,0.472,2.487,1.416,3.431c0.944,0.944,2.109,1.417,3.432,1.417
	c1.323,0,2.486-0.472,3.431-1.417c0.032-0.031,0.063-0.063,0.095-0.094l4.722,4.722c-0.031,0.032-0.062,0.063-0.095,0.095
	c-2.266,2.266-4.974,3.368-8.152,3.368c-3.148,0-5.887-1.102-8.122-3.368c-2.267-2.267-3.399-4.974-3.399-8.153
	c0-3.179,1.133-5.887,3.399-8.153C180.255,127.196,182.993,126.094,186.142,126.094"/>
<polyline fill="#FF0000" points="204.772,126.818 204.772,148.35 198.1,148.35 198.1,133.492 195.046,133.492 195.046,126.818 
	204.772,126.818 "/>
<path fill="#FF0000" d="M214.057,126.283c2.424,0,4.407,0.85,6.013,2.582c1.605,1.7,2.393,3.651,2.36,5.854
	c0,0.724-0.062,1.448-0.283,2.172c-0.377,1.354-1.164,2.582-2.015,3.746l-1.724,2.039h4.872v5.673h-16.338
	c2.896-4.312,5.792-8.688,8.657-13.001c0.094-0.125,0.126-0.251,0.126-0.409c0.031-0.126,0.031-0.22,0.031-0.314
	c0-0.913-0.725-1.668-1.7-1.668c-0.913,0-1.668,0.755-1.668,1.668h-6.674c0-2.298,0.818-4.281,2.455-5.887
	C209.807,127.102,211.759,126.283,214.057,126.283"/>
<path fill="#FF0000" d="M229.194,126.85c1.92,0,3.589,0.692,4.942,2.046c1.353,1.354,2.046,2.991,2.046,4.911
	c0,1.228-0.314,2.393-0.913,3.4c0.851,1.165,1.291,2.55,1.291,4.061c0,1.92-0.692,3.588-2.078,5.005
	c-1.385,1.385-3.053,2.078-5.036,2.078h-2.519h-2.55v-5.673h5.068c0.283,0,0.554-0.337,0.554-0.989c0-0.521-0.271-0.861-0.554-0.861
	h-3.558l-0.031-6.705h3.368c0.221,0,0.389-0.293,0.389-0.761c0-0.47-0.199-0.837-0.42-0.837h-4.974v-5.673h2.487h2.488"/>
<path opacity="0.4" enable-background="new    " d="M224.794,110.936c9.735,5.408,15.291,11.639,15.291,18.273
	c0,16.775-35.479,30.979-84.431,35.792H196v-0.006c0.224,0.001,0.444,0.006,0.668,0.006c42.526,0,77-12.536,77-28
	C273.668,125.147,253.402,115.021,224.794,110.936z"/>
<g>
	<path fill="#0071BC" d="M239.183,133.806c0,1.1-0.183,2.18-0.531,3.194h35.013c-0.011-1.357-0.294-2.692-0.817-4h-33.702
		C239.165,133.266,239.183,133.533,239.183,133.806z"/>
	<path fill="#0071BC" d="M132.087,133h-12.406c-0.117,1.307-0.181,2.642-0.181,4h10.264L132.087,133z"/>
</g>
<g>
	<path fill="#FF0000" d="M239.029,138c0.35,1.004,0.531,2.05,0.531,3.18c0,0.279-0.018,0.55-0.038,0.82h32.938
		c0.636-1.305,1.022-2.64,1.146-4H239.029z"/>
	<path fill="#FF0000" d="M129.183,138h-9.667c0.03,1.36,0.121,2.695,0.269,4h7.075L129.183,138z"/>
</g>
<g>
	<path d="M238.209,173.47c2.981,1.449,5.915,2.979,8.83,4.539l-0.289-0.079c1.844-0.082,3.688-0.146,5.531-0.193
		c1.844-0.061,3.688-0.104,5.531-0.129c1.844-0.031,3.688-0.074,5.53-0.076l5.531-0.031c3.688,0.025,7.375,0.026,11.062,0.111
		c3.688,0.061,7.375,0.173,11.062,0.331l-0.299,0.087c2.76-1.594,5.535-3.165,8.361-4.654c-2.549,1.927-5.148,3.773-7.765,5.596
		l-0.112,0.079L291,179.058c-3.688,0.158-7.375,0.271-11.062,0.331c-3.688,0.084-7.375,0.086-11.062,0.111l-5.531-0.031
		c-1.844-0.001-3.688-0.045-5.53-0.076c-1.845-0.025-3.688-0.068-5.531-0.129c-1.844-0.047-3.688-0.112-5.531-0.193l-0.179-0.008
		l-0.11-0.071C243.683,177.198,240.922,175.374,238.209,173.47z"/>
</g>
<rect x="220.5" y="193.5" fill="none" stroke="#FBB03B" stroke-miterlimit="10" width="1" height="4"/>
<rect x="224.5" y="193.5" fill="none" stroke="#FBB03B" stroke-miterlimit="10" width="1" height="4"/>
<rect x="228.5" y="193.5" fill="none" stroke="#FBB03B" stroke-miterlimit="10" width="1" height="4"/>
<g>
	<path fill="#4D4D4D" d="M143.826,213.989c1.506,0.943,3.111,1.687,4.741,2.346c0.408,0.163,0.813,0.332,1.231,0.47
		c0.417,0.139,0.823,0.304,1.247,0.42c0.836,0.266,1.684,0.487,2.532,0.704c0.42,0.123,0.854,0.188,1.281,0.285
		c0.428,0.09,0.855,0.184,1.288,0.246c0.861,0.152,1.725,0.284,2.597,0.358c0.867,0.112,1.742,0.134,2.615,0.192
		c0.436,0.039,0.874-0.002,1.311,0.003l1.312-0.014h0.323l0.13,0.304c0.848,1.88,1.662,3.783,2.463,5.69l0.606,1.432
		c0.202,0.477,0.388,0.963,0.616,1.427c0.432,0.94,0.874,1.878,1.285,2.834c-0.555-0.876-1.081-1.77-1.615-2.662
		c-0.556-0.881-0.974-1.832-1.455-2.753c-0.942-1.851-1.872-3.713-2.768-5.591l0.452,0.289l-1.347,0.025
		c-0.449,0-0.898,0.03-1.347-0.004c-0.897-0.05-1.798-0.056-2.688-0.188c-0.895-0.086-1.782-0.232-2.665-0.398
		c-0.445-0.067-0.879-0.185-1.316-0.29c-0.435-0.114-0.876-0.197-1.304-0.336l-1.288-0.391l-1.263-0.466
		c-0.423-0.146-0.829-0.342-1.243-0.511c-0.416-0.167-0.817-0.367-1.221-0.559c-0.812-0.375-1.585-0.83-2.346-1.297
		C145.239,215.075,144.497,214.574,143.826,213.989z"/>
</g>
<g>
	<path fill="#4D4D4D" d="M202.667,224.29c-1.124,1.415-2.128,2.918-3.048,4.464c-0.919,1.548-1.712,3.166-2.396,4.821
		c-0.678,1.657-1.215,3.371-1.538,5.12c-0.323,1.749-0.416,3.533-0.225,5.283l-0.409-0.375l17.228,0.16l8.613,0.162
		c2.871,0.062,5.742,0.092,8.613,0.178l-0.396,0.327c0.631-3.093,1.375-6.147,2.231-9.177c0.902-3.012,1.883-6.018,3.255-8.849
		c-1.156,2.921-2.026,5.936-2.766,8.98c-0.759,3.037-1.409,6.161-1.939,9.238L229.835,245h-0.341c-2.872,0-5.743-0.095-8.614-0.113
		l-8.614-0.104l-17.226-0.333l-0.379-0.013l-0.03-0.371c-0.149-1.85,0.002-3.707,0.387-5.5c0.384-1.794,0.984-3.53,1.721-5.195
		c0.743-1.664,1.642-3.25,2.633-4.768C200.364,227.084,201.448,225.625,202.667,224.29z"/>
</g>
<g>
	<g>
		<path fill="#0071BC" d="M393.859,314.285c0.139-0.532,0.679-0.825,1.199-0.651l0.854,0.285c0.521,0.174,0.835,0.752,0.696,1.284
			l-0.837,3.212c-0.14,0.532-0.694,0.885-1.234,0.783l-0.886-0.165c-0.54-0.102-0.869-0.62-0.73-1.152L393.859,314.285z"/>
	</g>
	<g>
		<path fill="#0071BC" d="M399.293,316.009c0.105-0.54,0.627-0.864,1.158-0.723l0.865,0.231c0.53,0.144,0.879,0.7,0.772,1.24
			l-0.486,2.484c-0.104,0.54-0.639,0.925-1.185,0.855l-0.889-0.113c-0.546-0.067-0.905-0.565-0.801-1.105L399.293,316.009z"/>
	</g>
	<g>
		<path fill="#0071BC" d="M404.851,317.43c0.08-0.545,0.585-0.895,1.123-0.777l0.876,0.188c0.538,0.116,0.912,0.657,0.833,1.201
			l-0.253,1.726c-0.079,0.543-0.593,0.953-1.142,0.911l-0.896-0.069c-0.549-0.041-0.932-0.521-0.852-1.065L404.851,317.43z"/>
	</g>
	<g>
		<path fill="#0071BC" d="M410.493,318.587c0.056-0.548,0.544-0.919,1.086-0.827l0.888,0.152c0.542,0.092,0.94,0.615,0.885,1.163
			l-0.096,0.946c-0.056,0.547-0.551,0.979-1.1,0.963l-0.899-0.028c-0.549-0.019-0.954-0.479-0.897-1.026L410.493,318.587z"/>
	</g>
	<g>
		<path fill="#0071BC" d="M416.205,319.492c0.028-0.551,0.498-0.945,1.045-0.879l0.891,0.107c0.547,0.066,0.971,0.569,0.941,1.119
			l-0.009,0.163c-0.028,0.55-0.502,1.006-1.052,1.017l-0.898,0.014c-0.55,0.01-0.977-0.434-0.947-0.982L416.205,319.492z"/>
	</g>
	<g>
		<path fill="#0071BC" d="M421.969,319.994c-0.004-0.486,0.442-0.857,0.991-0.824l0.897,0.057c0.549,0.032,1,0.369,1.003,0.746
			c0.003,0.379-0.444,0.723-0.992,0.764l-0.896,0.068C422.424,320.846,421.972,320.48,421.969,319.994z"/>
	</g>
	<g>
		<path fill="#0071BC" d="M427.75,319.842c-0.026-0.269,0.402-0.5,0.952-0.516l0.897-0.023c0.551-0.016,1.014,0.104,1.028,0.264
			c0.015,0.158-0.416,0.363-0.958,0.453l-0.887,0.146C428.242,320.256,427.776,320.109,427.75,319.842z"/>
	</g>
</g>
<g>
	<g>
		<g>
			<path d="M326.582,266.484c0.459-0.303,1.081-0.174,1.382,0.287l1.06,1.619c0.301,0.461,0.171,1.086-0.288,1.389l-0.795,0.522
				c-0.46,0.304-1.085,0.177-1.39-0.28l-1.072-1.611c-0.305-0.457-0.178-1.08,0.281-1.383L326.582,266.484z"/>
		</g>
		<g>
			<path d="M330.975,272.979c0.438-0.332,1.067-0.242,1.397,0.196l1.162,1.55c0.33,0.438,0.242,1.07-0.196,1.402l-0.707,0.535
				c-0.438,0.332-1.07,0.246-1.404-0.191l-1.175-1.539c-0.334-0.438-0.249-1.065,0.189-1.397L330.975,272.979z"/>
		</g>
		<g>
			<path d="M335.772,279.184c0.415-0.36,1.046-0.312,1.4,0.106l1.254,1.478c0.355,0.42,0.308,1.059-0.106,1.418l-0.541,0.472
				c-0.414,0.36-1.055,0.319-1.42-0.091l-1.29-1.444c-0.366-0.41-0.326-1.041,0.089-1.402L335.772,279.184z"/>
		</g>
		<g>
			<path d="M340.955,285.081c0.389-0.39,1.021-0.386,1.404,0.008l1.354,1.39c0.384,0.394,0.381,1.033-0.008,1.424l-0.358,0.357
				c-0.389,0.391-1.028,0.395-1.424,0.012l-1.392-1.35c-0.396-0.383-0.4-1.015-0.013-1.404L340.955,285.081z"/>
		</g>
		<g>
			<path d="M346.523,290.63c0.358-0.416,0.987-0.456,1.396-0.088l1.442,1.297c0.407,0.368,0.448,1.011,0.09,1.427l-0.115,0.135
				c-0.359,0.416-1,0.47-1.424,0.119l-1.495-1.235c-0.424-0.351-0.477-0.979-0.117-1.396L346.523,290.63z"/>
		</g>
		<g>
			<path d="M352.469,295.793c0.327-0.439,0.948-0.521,1.38-0.182l1.524,1.199c0.432,0.342,0.548,0.938,0.259,1.33
				c-0.289,0.39-0.896,0.45-1.347,0.137l-1.591-1.11C352.243,296.854,352.142,296.234,352.469,295.793z"/>
		</g>
	</g>
</g>
<g>
	<path fill="#333333" d="M260.514,319.383c1.823,0.059,3.646-0.04,5.461-0.193c0.907-0.084,1.812-0.188,2.717-0.299
		c0.897-0.144,1.802-0.262,2.695-0.425l2.676-0.538l2.647-0.658c0.875-0.244,1.739-0.526,2.61-0.785
		c0.877-0.238,1.717-0.59,2.574-0.891c0.854-0.305,1.707-0.613,2.531-0.998c0.829-0.367,1.668-0.717,2.489-1.101l2.414-1.255
		c0.817-0.395,1.577-0.893,2.351-1.365c0.764-0.486,1.562-0.922,2.295-1.453l2.196-1.6c0.751-0.51,1.427-1.112,2.11-1.705
		l2.062-1.766l0.231-0.197l0.254,0.134c3.651,1.917,7.223,3.95,10.811,5.948l5.395,2.974c1.812,0.961,3.604,1.963,5.433,2.892
		c1.828,0.928,3.635,1.902,5.484,2.787c1.846,0.891,3.661,1.848,5.536,2.678c1.871,0.836,3.709,1.748,5.605,2.522
		c1.896,0.78,3.769,1.617,5.682,2.351l5.755,2.158l5.839,1.92c1.954,0.61,3.938,1.125,5.907,1.691l1.479,0.417l1.499,0.335
		l2.999,0.671c1.002,0.21,1.994,0.479,3.005,0.642l3.034,0.49l3.036,0.488c1.011,0.173,2.036,0.219,3.055,0.336l3.062,0.303
		c1.021,0.108,2.041,0.211,3.066,0.209l6.155,0.157l0.117,0.003l-0.047,0.104l-1.897,4.148l1.761-4.209l0.07,0.104l-6.17-0.007
		c-1.031,0.027-2.057-0.049-3.082-0.133l-3.079-0.229c-1.023-0.093-2.059-0.11-3.076-0.272l-3.056-0.445l-3.058-0.447
		c-1.021-0.148-2.02-0.402-3.029-0.6l-3.025-0.629l-1.514-0.314l-1.492-0.396c-1.987-0.541-3.991-1.027-5.967-1.613l-5.881-1.897
		l-5.796-2.141c-1.928-0.729-3.812-1.56-5.721-2.334c-1.911-0.771-3.761-1.677-5.645-2.509c-1.888-0.823-3.714-1.774-5.572-2.66
		c-1.86-0.881-3.662-1.879-5.494-2.815c-1.831-0.94-3.621-1.953-5.434-2.927l-5.388-3.003c-3.579-2.019-7.142-4.068-10.756-5.99
		l0.484-0.063l-2.109,1.775c-0.705,0.592-1.399,1.193-2.17,1.699l-2.252,1.589c-0.752,0.526-1.568,0.956-2.349,1.438
		c-0.79,0.468-1.565,0.959-2.399,1.347l-2.461,1.233c-0.837,0.375-1.689,0.715-2.533,1.073c-0.838,0.375-1.703,0.675-2.571,0.97
		c-0.869,0.291-1.722,0.633-2.609,0.858c-0.884,0.244-1.762,0.504-2.647,0.729l-2.682,0.599l-2.701,0.476
		c-0.903,0.143-1.813,0.238-2.72,0.36c-0.909,0.088-1.819,0.172-2.731,0.233C264.164,319.468,262.334,319.497,260.514,319.383z"/>
</g>
</svg>
