<?xml version="1.0" encoding="utf-8"?>
<!-- Generator: Adobe Illustrator 16.0.0, SVG Export Plug-In . SVG Version: 6.00 Build 0)  -->
<!DOCTYPE svg PUBLIC "-//W3C//DTD SVG 1.1//EN" "http://www.w3.org/Graphics/SVG/1.1/DTD/svg11.dtd">
<svg version="1.1" id="Layer_1" xmlns="http://www.w3.org/2000/svg" xmlns:xlink="http://www.w3.org/1999/xlink" x="0px" y="0px"
	 width="950px" height="560px" viewBox="-270.857 -206.5 950 560" enable-background="new -270.857 -206.5 950 560"
	 xml:space="preserve">
<g>
	<g>
		<polygon fill="#4D4D4D" points="357.094,-167.522 364.37,-157.872 382.786,-153.906 371.765,-166.481 		"/>
		<path d="M357.094-167.522c0.696,0.735,1.405,1.463,2.081,2.213c0.689,0.744,1.365,1.494,2.031,2.254
			c1.353,1.502,2.648,3.049,3.965,4.58l-0.59-0.377l4.65,0.779c1.551,0.254,3.09,0.568,4.635,0.85
			c3.094,0.551,6.156,1.235,9.232,1.854l-1.438,2.45c-0.918-1.048-1.82-2.11-2.731-3.164c-0.9-1.062-1.83-2.103-2.716-3.179
			l-2.67-3.219c-0.896-1.064-1.754-2.168-2.631-3.254l0.771,0.383c-1.222-0.144-2.438-0.277-3.652-0.449
			c-1.221-0.168-2.439-0.316-3.652-0.5C361.946-166.667,359.515-167.04,357.094-167.522z M357.094-167.522
			c2.466-0.137,4.926-0.162,7.385-0.18c1.229-0.01,2.457,0.016,3.688,0.021c1.229,0,2.455,0.041,3.683,0.071l0.416,0.011
			l0.354,0.371c0.961,1.012,1.939,2.004,2.881,3.034l2.843,3.069c0.95,1.02,1.86,2.072,2.795,3.107
			c0.928,1.043,1.86,2.076,2.778,3.123l3.054,3.483l-4.494-1.033c-3.06-0.704-6.136-1.341-9.181-2.11
			c-1.521-0.381-3.055-0.729-4.571-1.135l-4.56-1.203l-0.415-0.108l-0.176-0.268c-1.109-1.687-2.24-3.357-3.312-5.071
			c-0.549-0.849-1.084-1.706-1.604-2.572C358.112-165.769,357.608-166.649,357.094-167.522z"/>
	</g>
	<path fill="#E6E6E6" stroke="#000000" stroke-width="2" stroke-miterlimit="10" d="M339.317-162.517
		c-7.812-5.278-12.688-12.4-12.195-15.601l-16.282,24.483c-1.888,2.789,3.396,9.654,12.014,15.479
		c8.621,5.827,16.959,8.165,18.85,5.375l16.641-24.24C355.555-155.371,347.129-157.237,339.317-162.517z"/>
	<g>
		<polygon fill="#4D4D4D" points="334.489,-182.797 322.821,-185.951 312.271,-201.558 328.051,-196.022 		"/>
		<path d="M334.489-182.797c-1.002-0.153-2.008-0.292-3.002-0.47c-1-0.166-1.996-0.343-2.985-0.533
			c-1.99-0.357-3.964-0.782-5.941-1.182l-0.312-0.063l-0.256-0.343l-2.817-3.78c-0.941-1.257-1.836-2.548-2.759-3.82
			c-1.852-2.538-3.59-5.153-5.383-7.729l-2.635-3.783l4.37,1.533c1.312,0.461,2.619,0.942,3.935,1.414
			c1.31,0.479,2.627,0.931,3.927,1.435l3.907,1.491c1.306,0.486,2.593,1.025,3.89,1.541l0.479,0.189l0.166,0.383
			c0.482,1.125,0.979,2.25,1.438,3.389c0.463,1.138,0.945,2.267,1.396,3.412C332.801-187.429,333.694-185.138,334.489-182.797z
			 M334.489-182.797c-1.354-2.068-2.604-4.185-3.854-6.306c-0.625-1.06-1.217-2.135-1.821-3.201
			c-0.615-1.063-1.193-2.146-1.781-3.224l0.644,0.572c-1.334-0.408-2.677-0.79-4-1.228l-3.979-1.275
			c-1.33-0.419-2.646-0.891-3.963-1.333c-1.318-0.452-2.644-0.894-3.955-1.354l1.731-2.25c1.728,2.625,3.502,5.213,5.166,7.877
			c0.838,1.328,1.703,2.638,2.521,3.982l2.459,4.023l-0.569-0.406c1.911,0.65,3.827,1.277,5.729,1.972
			c0.95,0.334,1.897,0.684,2.848,1.044C332.608-183.558,333.549-183.17,334.489-182.797z"/>
	</g>
	<path fill="#F2F2F2" d="M310.872-151.238c0.558,1.075,1.13,2.123,2.617,3.714l15.953-23.608c-1.509-1.562-2.104-2.578-2.666-3.638
		L310.872-151.238z"/>
	<g>
		<polygon fill="#4D4D4D" points="322.217,-176.306 285.379,-189.767 298.151,-164.968 327.993,-165.306 		"/>
		<path d="M322.217-176.306c-3.146-0.912-6.281-1.854-9.398-2.84c-3.123-0.973-6.234-1.982-9.346-3
			c-3.109-1.002-6.197-2.076-9.303-3.109c-3.101-1.04-6.179-2.139-9.269-3.206l1.711-1.94c2.205,4.094,4.312,8.236,6.479,12.354
			c1.084,2.056,2.114,4.14,3.176,6.208l3.162,6.216l-1.293-0.779c4.977,0.032,9.946,0.003,14.924,0.097
			c2.486,0.045,4.977,0.055,7.465,0.125l7.463,0.197l-0.596,0.996C325.629-168.741,323.881-172.501,322.217-176.306z
			 M322.217-176.306c2.188,3.529,4.291,7.103,6.379,10.685l0.547,0.938l-1.141,0.057l-7.457,0.365
			c-2.486,0.129-4.974,0.195-7.459,0.295c-4.972,0.207-9.943,0.291-14.916,0.436l-0.875,0.025l-0.421-0.805l-3.225-6.184
			c-1.068-2.064-2.166-4.113-3.211-6.191c-2.099-4.149-4.244-8.273-6.3-12.446l-1.575-3.209l3.286,1.269
			c3.054,1.178,6.111,2.321,9.152,3.524c3.037,1.209,6.09,2.379,9.115,3.62c3.033,1.227,6.062,2.459,9.076,3.729
			C316.219-178.937,319.223-177.638,322.217-176.306z"/>
	</g>
	<g>
		<polygon fill="#4D4D4D" points="357.678,-152.343 383.905,-123.181 356.133,-125.786 345.315,-153.599 		"/>
		<path d="M357.678-152.343c2.354,2.281,4.682,4.584,6.975,6.918c2.305,2.324,4.578,4.674,6.848,7.031
			c2.279,2.345,4.504,4.739,6.758,7.107c2.253,2.372,4.455,4.786,6.688,7.177l2.4,2.579l-3.562-0.268
			c-4.641-0.348-9.268-0.805-13.896-1.2c-2.314-0.194-4.628-0.448-6.939-0.669l-6.939-0.688l-0.901-0.089l-0.304-0.821
			c-1.721-4.666-3.498-9.312-5.16-14.002c-0.834-2.344-1.698-4.674-2.51-7.028l-2.44-7.056l-0.373-1.08l1.075,0.158
			C349.485-153.674,353.588-153.056,357.678-152.343z M357.678-152.343c-4.146-0.125-8.291-0.342-12.431-0.579l0.701-0.923
			l2.967,6.852c0.994,2.281,1.933,4.585,2.9,6.877c1.938,4.581,3.771,9.207,5.651,13.812l-1.201-0.91l6.943,0.615
			c2.314,0.213,4.633,0.394,6.945,0.633c4.625,0.473,9.256,0.885,13.877,1.406l-1.162,2.311c-2.143-2.469-4.311-4.915-6.43-7.403
			c-2.117-2.493-4.269-4.957-6.355-7.473c-2.104-2.504-4.2-5.013-6.268-7.55C361.741-147.205,359.696-149.763,357.678-152.343z"/>
	</g>
	<g>
		<path fill="#CCCCCC" d="M331.7-122.829c0.011,0,0.006-0.305-0.006-0.426l-0.127-10.088c-2.693-1.114-5.688-2.746-8.716-4.793
			c-3.227-2.178-5.979-4.51-8.067-6.711l-9.207,4.07c-0.019,0.008,0.004-0.047,0.004-0.035v-0.002c-1,0.178-0.444,0.313-0.569,0.498
			c-1.347,1.994,3.475,7.649,10.797,12.6c7.324,4.949,14.346,7.437,15.688,5.441C331.622-122.458,331.678-122.83,331.7-122.829
			L331.7-122.829L331.7-122.829z"/>
		<path d="M315.379-127.17c-6.88-4.648-12.88-10.78-11.037-13.505c0.102-0.147,0.213-0.262,0.311-0.354
			c0.051-0.05,0.107-0.104,0.133-0.139c0.055-0.083,0.242-0.311,0.592-0.286l9.57-4.187l0.314,0.334
			c2.131,2.246,4.887,4.533,7.959,6.609c2.883,1.948,5.854,3.578,8.6,4.713l0.395,0.165l0.135,10.481
			c0.017,0.111,0.021,0.269,0.005,0.417c-0.027,0.333-0.146,0.64-0.347,0.938C330.163-119.255,322.245-122.528,315.379-127.17z
			 M305.594-140.125c-0.012,0.012-0.021,0.021-0.03,0.032c-0.058,0.055-0.113,0.111-0.144,0.148
			c-0.865,1.282,2.783,6.348,10.689,11.691c7.893,5.335,13.943,6.822,14.811,5.542c0.078-0.114,0.115-0.216,0.127-0.321
			c0.004-0.074,0.002-0.154-0.006-0.236l-0.125-9.672c-2.709-1.16-5.615-2.768-8.432-4.671c-3.002-2.028-5.709-4.256-7.855-6.462
			L305.594-140.125z"/>
	</g>
	
		<ellipse transform="matrix(-0.8286 -0.5599 0.5599 -0.8286 724.3409 -117.6244)" fill="#999999" stroke="#000000" stroke-width="2" stroke-miterlimit="10" cx="344.163" cy="-169.703" rx="18.841" ry="6.099"/>
	<g>
		<path fill="#DB3F33" d="M317.243-163.501c0,0-0.062,0.152-0.174,0.436c-0.08,0.137-0.072,0.331-0.101,0.543
			c-0.043,0.211,0,0.459,0.035,0.736c0.066,0.553,0.324,1.193,0.662,1.893c0.385,0.684,0.855,1.43,1.445,2.195
			c0.584,0.771,1.27,1.564,2.049,2.355c0.766,0.803,1.633,1.592,2.533,2.402c0.902,0.807,1.887,1.586,2.887,2.373
			c1.008,0.774,2.07,1.533,3.127,2.25l1.633,1.074c0.549,0.334,1.096,0.667,1.637,0.998c1.104,0.632,2.191,1.254,3.277,1.793
			c1.088,0.532,2.146,1.041,3.174,1.454c1.025,0.426,2.021,0.769,2.949,1.021c0.934,0.263,1.799,0.42,2.576,0.523
			c0.775,0.055,1.465,0.055,2.004-0.09c0.271-0.071,0.518-0.125,0.697-0.244c0.188-0.104,0.373-0.17,0.467-0.292
			c0.221-0.211,0.338-0.324,0.338-0.324s-0.104,0.126-0.301,0.363c-0.086,0.138-0.258,0.226-0.443,0.356
			c-0.18,0.149-0.428,0.229-0.705,0.326c-0.555,0.199-1.266,0.262-2.078,0.275c-0.809-0.033-1.723-0.118-2.688-0.348
			c-0.971-0.211-2.004-0.506-3.072-0.887c-1.074-0.365-2.182-0.82-3.301-1.344c-1.117-0.525-2.254-1.107-3.379-1.751
			c-0.561-0.334-1.121-0.67-1.689-1.008l-1.643-1.062c-1.096-0.758-2.15-1.525-3.174-2.326c-1.02-0.806-1.98-1.644-2.887-2.483
			c-0.902-0.843-1.734-1.702-2.479-2.562c-0.75-0.849-1.409-1.699-1.967-2.52c-0.574-0.811-0.994-1.628-1.326-2.364
			c-0.291-0.758-0.498-1.441-0.521-2.03c-0.014-0.293-0.029-0.553,0.041-0.778c0.057-0.224,0.07-0.417,0.164-0.543
			C317.165-163.356,317.243-163.501,317.243-163.501z"/>
	</g>
	<g>
		<path fill="#FFFFFF" d="M316.146-161.875c0,0-0.062,0.151-0.179,0.437c-0.08,0.137-0.067,0.33-0.096,0.543
			c-0.043,0.209,0,0.459,0.035,0.735c0.064,0.554,0.324,1.192,0.662,1.894c0.387,0.683,0.854,1.429,1.443,2.193
			c0.582,0.771,1.271,1.564,2.051,2.355c0.766,0.803,1.635,1.592,2.529,2.402c0.905,0.807,1.891,1.586,2.891,2.373
			c1.008,0.773,2.066,1.532,3.127,2.25l1.635,1.074c0.547,0.334,1.092,0.667,1.635,0.998c1.104,0.632,2.191,1.254,3.277,1.793
			c1.088,0.532,2.145,1.042,3.174,1.454c1.025,0.427,2.021,0.769,2.949,1.021c0.932,0.263,1.799,0.42,2.576,0.523
			c0.771,0.054,1.465,0.054,2.004-0.09c0.268-0.071,0.516-0.125,0.695-0.244c0.188-0.104,0.373-0.17,0.469-0.292
			c0.221-0.211,0.338-0.324,0.338-0.324s-0.104,0.126-0.301,0.363c-0.086,0.138-0.262,0.226-0.443,0.354
			c-0.18,0.15-0.428,0.23-0.705,0.327c-0.555,0.199-1.266,0.261-2.078,0.274c-0.807-0.033-1.723-0.118-2.688-0.348
			c-0.975-0.209-2.006-0.506-3.074-0.886c-1.072-0.366-2.182-0.819-3.299-1.344c-1.117-0.526-2.256-1.106-3.381-1.751
			c-0.562-0.333-1.121-0.67-1.688-1.008l-1.646-1.061c-1.098-0.758-2.149-1.527-3.176-2.326c-1.018-0.807-1.979-1.644-2.887-2.483
			c-0.9-0.843-1.732-1.702-2.477-2.562c-0.75-0.849-1.412-1.697-1.971-2.52c-0.57-0.811-0.99-1.627-1.322-2.364
			c-0.291-0.758-0.5-1.441-0.521-2.03c-0.014-0.291-0.031-0.553,0.041-0.778c0.055-0.224,0.07-0.417,0.164-0.543
			C316.067-161.731,316.146-161.875,316.146-161.875z"/>
	</g>
	<g>
		<path fill="#29ABE2" d="M315.049-160.252c0,0-0.062,0.151-0.177,0.437c-0.079,0.137-0.071,0.33-0.096,0.543
			c-0.043,0.209,0,0.459,0.032,0.735c0.066,0.553,0.324,1.194,0.662,1.894c0.39,0.683,0.855,1.429,1.445,2.194
			c0.582,0.771,1.271,1.563,2.049,2.356c0.769,0.802,1.633,1.591,2.533,2.402c0.904,0.805,1.887,1.584,2.887,2.372
			c1.01,0.773,2.07,1.533,3.127,2.25l1.638,1.074c0.547,0.334,1.094,0.667,1.635,0.997c1.104,0.632,2.19,1.254,3.279,1.793
			c1.088,0.531,2.145,1.041,3.174,1.454c1.021,0.426,2.019,0.769,2.948,1.021c0.933,0.262,1.8,0.42,2.572,0.522
			c0.775,0.054,1.467,0.054,2.006-0.09c0.271-0.071,0.519-0.125,0.697-0.244c0.189-0.104,0.373-0.17,0.467-0.292
			c0.224-0.211,0.34-0.324,0.34-0.324s-0.104,0.126-0.303,0.363c-0.086,0.138-0.26,0.225-0.44,0.355
			c-0.185,0.15-0.433,0.229-0.705,0.327c-0.558,0.199-1.271,0.263-2.078,0.275c-0.81-0.033-1.726-0.118-2.688-0.349
			c-0.97-0.209-2.004-0.504-3.068-0.885c-1.074-0.367-2.186-0.82-3.305-1.344c-1.113-0.525-2.254-1.107-3.379-1.751
			c-0.56-0.334-1.121-0.67-1.688-1.008l-1.646-1.062c-1.098-0.758-2.147-1.526-3.176-2.327c-1.016-0.805-1.979-1.643-2.885-2.482
			c-0.904-0.844-1.736-1.702-2.479-2.561c-0.752-0.851-1.408-1.699-1.969-2.521c-0.574-0.811-0.992-1.628-1.326-2.364
			c-0.289-0.758-0.498-1.442-0.521-2.03c-0.017-0.293-0.033-0.553,0.041-0.779c0.053-0.223,0.065-0.416,0.164-0.543
			C314.969-160.108,315.049-160.252,315.049-160.252z"/>
	</g>
	<g>
		<path fill="#F2F2F2" d="M358.807-186.105c1.101-1.625,0.739-3.787-0.887-4.887c-1.627-1.098-3.936-0.738-5.035,0.887
			c-0.86,1.28-0.819,2.891-0.012,4.028l-11.949,17.681l2.166,1.463l12-17.758C356.481-184.415,357.993-184.899,358.807-186.105z"/>
		<path d="M358.807-186.105c0.136-0.291,0.349-0.551,0.411-0.869c0.043-0.154,0.102-0.307,0.133-0.461l0.055-0.479
			c0.02-0.316-0.018-0.643-0.078-0.952l-0.133-0.46c-0.057-0.15-0.145-0.286-0.211-0.429c-0.121-0.298-0.371-0.515-0.562-0.765
			c-0.261-0.192-0.461-0.433-0.767-0.559c-0.146-0.072-0.283-0.156-0.435-0.219l-0.45-0.135c-0.3-0.096-0.625-0.094-0.937-0.117
			c-0.313,0.031-0.635,0.029-0.936,0.14c-0.312,0.062-0.584,0.229-0.861,0.369c-0.25,0.179-0.518,0.358-0.711,0.599
			c-0.205,0.243-0.389,0.467-0.525,0.769c-0.137,0.29-0.244,0.558-0.293,0.868c-0.071,0.298-0.078,0.609-0.059,0.912
			c0.018,0.306,0.09,0.603,0.188,0.889c0.104,0.285,0.256,0.545,0.425,0.793l0.088,0.131l-0.086,0.132
			c-1.937,2.984-3.818,6.002-5.8,8.959l-2.946,4.447c-0.976,1.487-2.009,2.935-3.011,4.405l-0.125-0.644l2.154,1.482l-0.611,0.117
			c1.007-1.478,2.048-2.928,3.08-4.385l3.105-4.371l3.102-4.371c1.033-1.459,2.033-2.938,3.052-4.406l0.016-0.02l0.022,0.002
			l0.519,0.071l0.521,0.002l0.521-0.067l0.504-0.14l0.479-0.21l0.44-0.281l0.396-0.347L358.807-186.105z M358.807-186.105
			l-0.323,0.414l-0.392,0.354l-0.438,0.291l-0.48,0.221l-0.508,0.149l-0.521,0.078l-0.529,0.007l-0.524-0.063l0.037-0.016
			c-0.98,1.492-1.98,2.971-2.949,4.474l-2.896,4.509l-2.898,4.508c-0.967,1.502-1.926,3.01-2.92,4.494l-0.244,0.36l-0.364-0.244
			l-2.181-1.444l-0.385-0.254l0.26-0.388c0.99-1.477,1.947-2.976,2.965-4.435l3.027-4.396c2.006-2.937,4.104-5.812,6.148-8.722
			l0.004,0.263c-0.186-0.294-0.342-0.599-0.443-0.927c-0.096-0.327-0.16-0.664-0.164-1.003c-0.008-0.337,0.021-0.68,0.109-1.003
			c0.062-0.323,0.217-0.658,0.367-0.938c0.145-0.283,0.369-0.556,0.598-0.793c0.223-0.246,0.514-0.427,0.787-0.603
			c0.301-0.14,0.594-0.293,0.922-0.349c0.312-0.108,0.646-0.104,0.973-0.129c0.324,0.029,0.656,0.034,0.972,0.141l0.473,0.15
			c0.146,0.064,0.283,0.151,0.427,0.227c0.297,0.128,0.526,0.392,0.778,0.588c0.188,0.26,0.439,0.486,0.561,0.793
			c0.068,0.146,0.156,0.287,0.207,0.439l0.127,0.471c0.062,0.314,0.093,0.645,0.062,0.964l-0.062,0.481
			c-0.037,0.156-0.098,0.309-0.145,0.461C359.161-186.649,358.946-186.394,358.807-186.105z"/>
	</g>
	<path fill="#E6E6E6" d="M305.641-138.276c0.404,0.848,1.177,1.93,2.287,3.162l10.816-5.256c-1.061-0.848-2.049-1.711-2.963-2.576
		L305.641-138.276z"/>
</g>
</svg>
