<?xml version="1.0" encoding="utf-8"?>
<!-- Generator: Adobe Illustrator 16.0.0, SVG Export Plug-In . SVG Version: 6.00 Build 0)  -->
<!DOCTYPE svg PUBLIC "-//W3C//DTD SVG 1.1//EN" "http://www.w3.org/Graphics/SVG/1.1/DTD/svg11.dtd">
<svg version="1.1" id="Layer_1" xmlns="http://www.w3.org/2000/svg" xmlns:xlink="http://www.w3.org/1999/xlink" x="0px" y="0px"
	 width="950px" height="560px" viewBox="-270.857 -206.5 950 560" enable-background="new -270.857 -206.5 950 560"
	 xml:space="preserve">
<g>
	<g>
		<circle fill="#FBB03B" cx="-471.59" cy="-469.977" r="22.398"/>
		<path fill="#F15A24" d="M-493.989-469.978c0,0,0.03,0.549,0.09,1.578c0.006,0.518,0.101,1.146,0.228,1.881
			c0.063,0.367,0.107,0.768,0.201,1.185c0.109,0.414,0.225,0.854,0.348,1.317c0.533,1.834,1.358,4.056,2.904,6.24
			c1.51,2.188,3.596,4.432,6.364,6.154c2.756,1.725,6.139,2.938,9.801,3.235c0.455,0.058,0.92,0.026,1.383,0.045
			c0.452-0.008,0.957,0.047,1.37-0.01c0.958-0.095,1.979-0.123,2.867-0.345c1.84-0.284,3.714-0.975,5.483-1.782
			c1.781-0.834,3.42-1.992,4.939-3.289c1.497-1.338,2.812-2.89,3.934-4.586c1.08-1.725,1.899-3.604,2.522-5.552
			c0.573-1.969,0.821-4.019,0.858-6.071c-0.068-0.924-0.041-2.221-0.237-3.108c-0.099-0.972-0.376-1.97-0.624-2.963
			c-0.62-1.948-1.451-3.824-2.525-5.55c-1.117-1.693-2.434-3.248-3.934-4.582c-1.521-1.297-3.159-2.455-4.938-3.289
			c-3.554-1.699-7.417-2.375-11.132-2.09c-3.602,0.293-7.026,1.509-9.771,3.229c-2.769,1.724-4.856,3.966-6.364,6.151
			c-1.547,2.186-2.373,4.406-2.906,6.24c-0.123,0.465-0.238,0.903-0.348,1.317c-0.094,0.417-0.138,0.817-0.201,1.185
			c-0.127,0.735-0.222,1.363-0.228,1.881C-493.958-470.527-493.989-469.978-493.989-469.978z M-493.989-469.978
			c0,0,0.024-0.549,0.069-1.578c-0.002-0.519,0.084-1.147,0.203-1.887c0.06-0.369,0.098-0.771,0.188-1.188
			c0.104-0.417,0.214-0.858,0.332-1.326c0.515-1.849,1.32-4.079,2.775-6.354c1.436-2.274,3.486-4.603,6.207-6.559
			c2.747-1.922,6.131-3.413,10.042-4.018c3.78-0.551,8.097-0.17,12.087,1.465c2.014,0.805,3.9,1.971,5.686,3.326
			c1.746,1.408,3.281,3.104,4.619,4.972c1.311,1.893,2.306,4.012,3.021,6.231c0.3,1.127,0.626,2.241,0.771,3.459
			c0.097,0.599,0.192,1.205,0.203,1.733l0.094,1.722c-0.066,2.344-0.385,4.681-1.069,6.916c-0.716,2.221-1.719,4.336-3.024,6.229
			c-1.34,1.865-2.871,3.566-4.619,4.969c-1.78,1.354-3.67,2.521-5.682,3.325c-2.018,0.788-4.041,1.36-6.146,1.552
			c-1.062,0.166-2.014,0.121-2.99,0.149c-0.555,0.026-1.012-0.063-1.517-0.089c-0.491-0.053-0.982-0.059-1.461-0.148
			c-3.854-0.6-7.278-2.09-10.012-4.011c-2.722-1.956-4.774-4.28-6.209-6.556c-1.455-2.275-2.263-4.506-2.776-6.354
			c-0.117-0.467-0.228-0.91-0.332-1.326c-0.089-0.419-0.128-0.82-0.188-1.188c-0.117-0.74-0.203-1.369-0.203-1.887
			C-493.964-469.429-493.989-469.978-493.989-469.978z"/>
	</g>
	<g>
		<path fill="#F7931E" d="M-493.757-473.183c0.277-1.936,0.799-3.791,1.539-5.535c6.488,5.641,15.323,8.854,24.749,8.652
			c-0.031,0.2-0.056,0.405-0.056,0.615c0,1.982,1.606,3.592,3.59,3.592s3.591-1.609,3.591-3.592c0-0.482-0.097-0.941-0.27-1.363
			c0.402-0.08,0.807-0.164,1.211-0.257c3.478-0.795,6.729-2.021,9.711-3.596c0.322,1.512,0.496,3.08,0.496,4.688
			c0,1.58-0.166,3.118-0.479,4.604c-5.944,2.79-12.849,4.094-20.067,3.433c-1.562-0.144-3.087-0.383-4.58-0.695
			c-0.154,1.32-1.46,2.352-3.048,2.352c-1.692,0-3.063-1.169-3.063-2.611c0-0.5,0.168-0.965,0.453-1.36
			C-485.326-466.248-490.024-469.335-493.757-473.183z"/>
		<path fill="#F15A24" d="M-493.757-473.183l0.534-2.83l0.906-2.746l0.044-0.133l0.125,0.094c0.889,0.672,1.764,1.359,2.661,2.016
			l1.417,0.88c0.477,0.286,0.934,0.604,1.425,0.862l1.491,0.743c0.501,0.237,0.982,0.517,1.498,0.722l1.548,0.611
			c0.52,0.191,1.021,0.434,1.556,0.584l1.598,0.467c0.532,0.145,1.057,0.338,1.601,0.439l1.63,0.321
			c0.545,0.097,1.083,0.237,1.632,0.3l1.651,0.172c0.551,0.052,1.1,0.129,1.651,0.16l3.314,0.047l0.449,0.006l-0.036,0.473
			l-0.028,0.367c-0.006,0.042-0.01,0.163-0.018,0.142l0.021,0.206c0.028,0.276,0.053,0.567,0.145,0.758l0.104,0.324l0.18,0.32
			c0.097,0.229,0.283,0.394,0.432,0.587c0.162,0.181,0.369,0.317,0.555,0.474c0.225,0.1,0.416,0.258,0.653,0.319
			c0.233,0.065,0.459,0.165,0.707,0.164l0.362,0.037l0.363-0.035c0.303-0.009,0.51-0.095,0.719-0.164
			c0.219-0.039,0.426-0.214,0.641-0.312c0.197-0.137,0.383-0.297,0.561-0.461c0.14-0.199,0.34-0.354,0.434-0.582
			c0.117-0.211,0.238-0.422,0.29-0.66c0.091-0.229,0.118-0.467,0.133-0.709l0.019-0.18l0.008-0.046
			c0.004,0.074-0.002-0.009-0.002-0.006l-0.014-0.103l-0.042-0.413c-0.026-0.277-0.135-0.44-0.184-0.671l-0.114-0.526l0.449-0.097
			l0.701-0.151c0.248-0.056,0.451-0.089,0.688-0.158l1.404-0.375c0.465-0.129,0.944-0.234,1.387-0.4l1.354-0.459
			c0.904-0.277,1.771-0.707,2.664-1.053c0.445-0.168,0.861-0.41,1.298-0.611l1.288-0.631l0.607-0.301l0.104,0.633l0.382,2.36
			l0.12,2.388c-0.003,0.248-0.021,0.404-0.028,0.61l-0.031,0.584l-0.062,1.167c-0.115,0.793-0.247,1.59-0.373,2.385l-0.039,0.243
			l-0.229,0.091c-0.985,0.397-1.941,0.877-2.955,1.209l-1.51,0.525c-0.502,0.173-1.021,0.292-1.531,0.441
			c-0.518,0.13-1.021,0.308-1.545,0.399l-1.562,0.323c-1.04,0.223-2.104,0.312-3.153,0.478l-1.59,0.114
			c-0.529,0.034-1.059,0.091-1.591,0.079l-1.594,0.008c-0.532,0.021-1.062-0.029-1.593-0.063l-1.59-0.108l-1.575-0.202
			c-1.039-0.106-2.095-0.365-3.139-0.549l0.429-0.309c-0.064,0.232-0.083,0.486-0.198,0.699c-0.1,0.225-0.208,0.438-0.365,0.618
			c-0.281,0.39-0.673,0.666-1.074,0.897c-0.216,0.084-0.422,0.197-0.646,0.252c-0.229,0.046-0.446,0.129-0.679,0.13l-0.344,0.024
			l-0.086,0.006c-0.083-0.002-0.066-0.004-0.104-0.008l-0.157-0.015c-0.209-0.021-0.414-0.028-0.654-0.104
			c-0.233-0.057-0.462-0.125-0.663-0.235c-0.214-0.087-0.408-0.209-0.593-0.354c-0.199-0.121-0.349-0.304-0.511-0.471
			c-0.166-0.164-0.267-0.388-0.396-0.58c-0.08-0.22-0.183-0.438-0.219-0.672l-0.039-0.354c-0.002-0.066-0.02-0.098-0.009-0.194
			l0.015-0.158c0.005-0.188,0.081-0.477,0.163-0.686c0.083-0.222,0.206-0.419,0.334-0.613l0.122,0.399l-3.793-1.713
			c-0.606-0.334-1.194-0.703-1.793-1.052l-1.784-1.061c-0.293-0.185-0.558-0.411-0.838-0.614l-0.833-0.625l-1.653-1.25
			c-0.516-0.46-1.004-0.952-1.506-1.425L-493.757-473.183z M-493.757-473.183l1.551,1.369c0.519,0.453,1.025,0.918,1.552,1.359
			l1.684,1.193l0.841,0.596c0.283,0.193,0.553,0.409,0.848,0.583l1.802,0.998c0.603,0.328,1.194,0.675,1.804,0.987l3.791,1.592
			l0.294,0.123l-0.172,0.277c-0.1,0.16-0.198,0.321-0.259,0.5c-0.059,0.184-0.109,0.307-0.118,0.538l-0.012,0.158
			c-0.005,0.009,0.01,0.081,0.014,0.119l0.035,0.274c0.03,0.182,0.119,0.35,0.18,0.522c0.113,0.149,0.187,0.326,0.324,0.455
			c0.135,0.131,0.254,0.278,0.422,0.374c0.151,0.116,0.313,0.215,0.494,0.281c0.172,0.094,0.35,0.139,0.526,0.18
			c0.162,0.061,0.381,0.068,0.591,0.084l0.158,0.012c0.014,0,0.081,0.008,0.05,0.004l0.072-0.008l0.284-0.025
			c0.194,0,0.373-0.08,0.562-0.118c0.185-0.048,0.349-0.147,0.522-0.216c0.319-0.196,0.632-0.42,0.838-0.725
			c0.117-0.141,0.195-0.304,0.267-0.47c0.089-0.159,0.085-0.345,0.139-0.515l0.114-0.355l0.312,0.048
			c1.028,0.159,2.026,0.392,3.085,0.481l1.554,0.17l1.561,0.076c0.521,0.021,1.038,0.064,1.562,0.045l1.56-0.02
			c0.521,0.011,1.039-0.05,1.559-0.086l1.557-0.122c1.023-0.167,2.062-0.26,3.079-0.484l1.521-0.325
			c0.516-0.093,1.004-0.271,1.506-0.4c0.498-0.146,1.006-0.268,1.494-0.438l1.469-0.522c0.982-0.328,1.912-0.802,2.873-1.195
			l-0.267,0.336l0.341-2.239l0.108-2.31l-0.129-2.285l-0.354-2.26l0.713,0.334l-1.322,0.641c-0.444,0.203-0.872,0.447-1.332,0.619
			c-0.918,0.351-1.799,0.777-2.744,1.063l-1.404,0.465c-0.467,0.169-0.938,0.271-1.404,0.397l-1.403,0.365
			c-0.229,0.065-0.505,0.115-0.729,0.164l-0.719,0.15l0.335-0.624c0.087,0.304,0.22,0.655,0.243,0.929l0.04,0.412l0.01,0.104
			l0.006,0.097l-0.009,0.062l-0.021,0.232c-0.021,0.312-0.062,0.62-0.179,0.913c-0.073,0.306-0.225,0.579-0.379,0.849
			c-0.13,0.287-0.375,0.495-0.562,0.742c-0.227,0.211-0.465,0.415-0.723,0.588c-0.281,0.135-0.52,0.327-0.852,0.403
			c-0.317,0.104-0.637,0.192-0.896,0.196c-0.156,0.012-0.229,0.029-0.459,0.037l-0.465-0.045c-0.312-0.01-0.604-0.127-0.898-0.217
			c-0.301-0.085-0.557-0.274-0.83-0.414c-0.238-0.192-0.495-0.375-0.7-0.604c-0.188-0.243-0.417-0.462-0.544-0.748l-0.219-0.409
			c-0.062-0.148-0.104-0.309-0.149-0.464c-0.118-0.329-0.123-0.594-0.146-0.87l-0.021-0.207c0.001-0.158,0.012-0.176,0.02-0.271
			l0.047-0.459l0.412,0.479l-3.386-0.109c-0.562-0.043-1.12-0.131-1.681-0.193l-1.678-0.207c-0.561-0.074-1.104-0.227-1.657-0.334
			l-1.651-0.356c-0.551-0.115-1.08-0.32-1.619-0.479l-1.609-0.505c-0.539-0.163-1.046-0.418-1.569-0.622l-1.558-0.648
			c-0.52-0.215-1-0.517-1.5-0.771l-1.485-0.797c-0.489-0.276-0.942-0.612-1.415-0.916l-1.402-0.932
			c-0.885-0.688-1.746-1.41-2.618-2.111l0.168-0.039l-0.988,2.688L-493.757-473.183z"/>
	</g>
	<g>
		<path fill="#F7931E" d="M-489.104-460.216c-0.04,0.111-0.064,0.229-0.064,0.357c0,0.596,0.483,1.08,1.08,1.08
			c0.395,0,0.735-0.214,0.924-0.529c5.215,2.289,11.382,3.759,18.042,4.068c1.698,0.08,3.375,0.072,5.019,0.002
			c-0.164-0.396-0.254-0.828-0.254-1.281c0-1.858,1.507-3.365,3.364-3.365c1.855,0,3.363,1.507,3.363,3.365
			c0,0.207-0.021,0.412-0.059,0.607c1.441-0.242,2.849-0.537,4.206-0.894c-0.865,1.188-1.843,2.287-2.919,3.281
			c-4.344,0.95-9.104,1.353-14.064,1.09c-7.361-0.39-14.122-2.188-19.643-4.941c-1.017-1.492-1.858-3.111-2.495-4.832
			C-491.503-461.498-490.333-460.833-489.104-460.216z"/>
		<path fill="#F15A24" d="M-489.104-460.216c-0.016,0.129-0.05,0.263-0.052,0.389c0.007,0.134,0.042,0.26,0.089,0.378
			c0.107,0.236,0.304,0.429,0.538,0.527c0.116,0.048,0.239,0.082,0.366,0.083c0.107,0.012,0.261-0.024,0.377-0.053
			c0.109-0.053,0.221-0.093,0.311-0.184c0.105-0.066,0.162-0.184,0.24-0.275l0.045-0.054l0.059,0.021l2.771,0.996l1.385,0.492
			l1.425,0.365l2.848,0.73c0.963,0.178,1.93,0.331,2.894,0.497l1.447,0.246c0.479,0.103,0.973,0.099,1.458,0.149l2.924,0.23
			c0.501,0.042,0.953,0.085,1.45,0.062l1.476-0.019l2.951-0.03l-0.392,0.586c-0.078-0.28-0.201-0.555-0.231-0.846l-0.045-0.438
			l-0.011-0.108c0-0.038-0.006,0.006-0.002-0.098l0.006-0.05l0.019-0.194l0.038-0.388c0.021-0.137,0.077-0.295,0.117-0.44
			c0.072-0.312,0.216-0.567,0.359-0.823c0.123-0.271,0.352-0.47,0.523-0.704c0.213-0.198,0.438-0.396,0.684-0.557
			c0.262-0.131,0.502-0.315,0.793-0.383c0.276-0.097,0.562-0.181,0.855-0.191c0.164-0.012,0.253-0.04,0.479-0.033l0.389,0.038
			c0.24,0,0.568,0.114,0.861,0.203c0.299,0.094,0.533,0.264,0.8,0.396c0.223,0.188,0.477,0.354,0.667,0.579
			c0.188,0.229,0.396,0.443,0.52,0.716l0.211,0.391l0.139,0.423c0.106,0.278,0.117,0.578,0.147,0.872
			c0.005,0.091,0.021,0.107,0.017,0.261l-0.021,0.193l-0.034,0.389l-0.55-0.51l4.16-0.9l1.367-0.295l-0.847,1.059l-1.402,1.754
			l-1.578,1.6l-0.094,0.097l-0.137,0.022l-2.146,0.383c-0.715,0.136-1.43,0.261-2.154,0.319l-2.165,0.235
			c-0.721,0.084-1.446,0.076-2.173,0.119c-0.725,0.021-1.449,0.082-2.174,0.068l-2.176-0.052l-1.086-0.026
			c-0.403-0.021-0.729-0.07-1.099-0.104l-2.146-0.229l-2.146-0.238c-0.713-0.123-1.425-0.297-2.136-0.441l-2.132-0.458l-1.064-0.231
			l-1.031-0.334l-2.067-0.668c-0.683-0.241-1.394-0.401-2.049-0.711l-3.958-1.78l-0.053-0.023l-0.025-0.045l-1.359-2.385
			l-1.059-2.528l-0.115-0.274l0.262,0.157L-489.104-460.216z M-489.104-460.216l-3.552-1.907l0.146-0.117l1.144,2.457l1.429,2.293
			l-0.078-0.067l3.971,1.636c0.653,0.29,1.362,0.432,2.041,0.653l2.057,0.61l1.024,0.306l1.053,0.201l2.098,0.398
			c0.7,0.126,1.393,0.28,2.099,0.386l2.149,0.197l2.146,0.209c0.351,0.029,0.737,0.082,1.055,0.094l1.067,0.019l2.145,0.035
			c0.713,0.006,1.425-0.062,2.138-0.086c0.711-0.048,1.427-0.044,2.136-0.134l2.125-0.248c0.709-0.062,1.411-0.192,2.109-0.33
			l2.102-0.393l-0.229,0.119l1.501-1.538l1.354-1.669l0.521,0.764l-4.252,0.885l-0.612,0.128l0.063-0.638l0.039-0.388l0.02-0.194
			c0,0.021-0.011-0.09-0.016-0.127c-0.027-0.223-0.021-0.451-0.108-0.66l-0.096-0.319l-0.16-0.295
			c-0.087-0.211-0.252-0.369-0.39-0.547c-0.144-0.175-0.338-0.293-0.502-0.447c-0.198-0.092-0.396-0.24-0.594-0.299
			c-0.205-0.052-0.359-0.154-0.646-0.16l-0.392-0.041l-0.295,0.028c-0.229,0.003-0.44,0.069-0.654,0.142
			c-0.229,0.041-0.405,0.193-0.61,0.285c-0.188,0.123-0.358,0.275-0.526,0.424c-0.13,0.185-0.315,0.33-0.406,0.541
			c-0.111,0.197-0.229,0.396-0.271,0.597c-0.028,0.104-0.075,0.188-0.097,0.309l-0.041,0.387l-0.021,0.194l-0.005,0.048
			c0.005-0.07,0.005,0.004,0.007,0l0.012,0.084l0.029,0.34c0.021,0.227,0.12,0.436,0.172,0.656l0.139,0.592l-0.529-0.006
			l-2.951-0.031l-1.475-0.019c-0.488,0.013-1.019-0.046-1.494-0.1l-2.954-0.305c-0.49-0.062-0.988-0.071-1.471-0.188l-1.458-0.281
			c-0.973-0.19-1.943-0.37-2.91-0.571l-2.843-0.847l-1.418-0.424l-1.375-0.549l-2.743-1.108l0.103-0.033
			c-0.092,0.107-0.166,0.233-0.289,0.307c-0.104,0.095-0.246,0.144-0.38,0.191c-0.067,0.024-0.132,0.02-0.196,0.03
			c-0.06,0.007-0.141,0.02-0.209,0.004c-0.138-0.009-0.271-0.053-0.395-0.11c-0.246-0.123-0.441-0.336-0.54-0.586
			c-0.044-0.131-0.071-0.26-0.071-0.395C-489.166-459.96-489.126-460.085-489.104-460.216z"/>
	</g>
	<g>
		<path fill="#F7931E" d="M-488.971-484.103c0.979,1.111,2.087,2.153,3.302,3.117c0.291-0.783,1.039-1.348,1.926-1.348
			c1.137,0,2.059,0.923,2.059,2.062c0,0.61-0.271,1.154-0.696,1.531c4.663,2.752,10.427,4.495,16.723,4.738
			c5.617,0.217,10.906-0.786,15.438-2.696c-1.04-3.308-2.829-6.28-5.163-8.729c-2.635,0.479-5.405,0.688-8.269,0.58
			c-0.424-0.018-0.844-0.041-1.264-0.07c-0.031-1.376-1.319-2.485-2.91-2.485c-1.252,0-2.316,0.689-2.729,1.655
			c-4.004-0.901-7.654-2.422-10.764-4.411C-484.294-488.722-486.904-486.642-488.971-484.103z M-458.633-481.377
			c0-1.082,0.832-1.959,1.858-1.959s1.858,0.877,1.858,1.959c0,1.081-0.832,1.958-1.858,1.958
			C-457.802-479.419-458.633-480.296-458.633-481.377z"/>
		<g>
			<path fill="#F15A24" d="M-488.971-484.103l1.624,1.592l1.744,1.442l-0.166,0.046c0.221-0.619,0.725-1.129,1.357-1.347
				c0.16-0.041,0.32-0.095,0.488-0.101c0.168-0.027,0.351-0.002,0.492,0.009c0.148-0.004,0.329,0.075,0.493,0.116
				c0.162,0.058,0.304,0.146,0.454,0.225c0.127,0.109,0.276,0.199,0.385,0.328c0.107,0.13,0.231,0.25,0.308,0.406
				c0.184,0.285,0.277,0.625,0.308,0.966l0.014,0.128c0.001,0.09-0.006,0.092-0.008,0.144l-0.021,0.23
				c0.003,0.146-0.086,0.339-0.135,0.507c-0.13,0.333-0.337,0.607-0.583,0.855l-0.039-0.397l1.826,0.968l1.887,0.85l1.932,0.729
				l1.972,0.61l2.003,0.494c0.671,0.148,1.354,0.25,2.027,0.378c0.675,0.129,1.364,0.174,2.044,0.266
				c0.68,0.101,1.369,0.116,2.054,0.167c0.333,0.016,0.707,0.059,1.007,0.053l1.043-0.02l2.082-0.039
				c0.702,0.018,1.381-0.075,2.057-0.169l2.025-0.258c0.684-0.053,1.346-0.251,2.014-0.404l2-0.479
				c0.67-0.145,1.295-0.44,1.941-0.652l1.936-0.695l-0.278,0.603l-0.892-2.334l-1.144-2.226l-1.386-2.082l-1.614-1.913l0.423,0.137
				l-2.4,0.295l-1.201,0.146c-0.399,0.066-0.803,0.069-1.206,0.069l-2.419,0.029c-0.406,0.004-0.801,0.016-1.215,0.01l-1.193-0.071
				l-0.354-0.021l-0.058-0.4l-0.051-0.38c-0.035-0.123-0.089-0.241-0.129-0.363c-0.052-0.118-0.138-0.221-0.202-0.335
				c-0.064-0.111-0.18-0.193-0.266-0.295c-0.08-0.106-0.213-0.163-0.315-0.249c-0.103-0.09-0.229-0.138-0.354-0.198
				c-0.119-0.067-0.248-0.117-0.387-0.146c-0.133-0.034-0.263-0.089-0.4-0.089c-0.129-0.01-0.299-0.034-0.396-0.037
				c-0.15,0.013-0.328,0.01-0.462,0.035c-0.247,0.043-0.521,0.113-0.771,0.238c-0.248,0.118-0.486,0.27-0.675,0.467
				c-0.203,0.185-0.347,0.418-0.471,0.654l-0.146,0.285l-0.266-0.074l-2.839-0.8c-0.466-0.153-0.922-0.34-1.384-0.508l-1.379-0.519
				c-0.232-0.08-0.447-0.205-0.67-0.305l-0.665-0.316l-1.329-0.635c-0.433-0.23-0.848-0.496-1.271-0.746l-1.262-0.76l0.202,0.012
				l-2.157,1.14l-2.023,1.372l-1.867,1.585L-488.971-484.103z M-488.971-484.103l1.609-1.865l1.815-1.674l1.994-1.465l2.146-1.24
				l0.088-0.051l0.115,0.062l1.271,0.699c0.426,0.229,0.841,0.478,1.271,0.697l1.319,0.592l0.661,0.298
				c0.225,0.093,0.438,0.21,0.666,0.284l1.368,0.477c0.457,0.155,0.908,0.327,1.369,0.467l2.804,0.719l-0.411,0.211
				c0.155-0.33,0.349-0.646,0.605-0.896c0.246-0.266,0.547-0.469,0.864-0.63c0.312-0.164,0.653-0.269,1.029-0.335
				c0.181-0.032,0.321-0.031,0.483-0.049c0.22-0.004,0.365,0.021,0.552,0.031c0.181,0.002,0.353,0.061,0.522,0.103
				c0.176,0.036,0.346,0.094,0.506,0.177c0.164,0.076,0.332,0.141,0.476,0.254c0.146,0.112,0.312,0.191,0.433,0.333
				c0.125,0.136,0.27,0.252,0.371,0.408c0.098,0.158,0.213,0.306,0.289,0.476c0.064,0.174,0.143,0.349,0.189,0.528l0.078,0.562
				l-0.407-0.42l1.194,0.061c0.381,0.001,0.783-0.014,1.174-0.02l2.363-0.047c0.395-0.004,0.789-0.01,1.178-0.078l1.171-0.152
				l2.342-0.305l0.274-0.035l0.146,0.173l1.698,1.981l1.464,2.161l1.209,2.315l0.924,2.444l0.169,0.445l-0.445,0.157l-1.989,0.706
				c-0.671,0.214-1.317,0.512-2.007,0.656l-2.062,0.476c-0.688,0.151-1.36,0.349-2.071,0.399l-2.106,0.25
				c-0.703,0.09-1.405,0.177-2.097,0.154l-2.084,0.023l-1.043,0.011c-0.396,0.001-0.711-0.043-1.072-0.062
				c-0.699-0.06-1.403-0.074-2.098-0.192c-0.693-0.108-1.396-0.172-2.081-0.319c-0.688-0.146-1.379-0.266-2.062-0.435l-2.028-0.551
				l-1.995-0.669l-1.949-0.788l-1.896-0.908l-1.833-1.028l-0.289-0.162l0.25-0.236c0.198-0.188,0.38-0.409,0.483-0.654
				c0.033-0.132,0.114-0.216,0.121-0.387l0.03-0.23c0.003-0.026,0.015-0.104,0.01-0.09l-0.009-0.104
				c-0.015-0.275-0.078-0.559-0.225-0.799c-0.053-0.134-0.153-0.233-0.237-0.348c-0.086-0.113-0.209-0.188-0.312-0.288
				c-0.122-0.066-0.244-0.15-0.372-0.203c-0.137-0.032-0.239-0.108-0.407-0.114c-0.168-0.019-0.293-0.045-0.436-0.024
				c-0.146-0.002-0.284,0.042-0.426,0.069c-0.557,0.168-1.024,0.602-1.245,1.151l-0.058,0.144l-0.108-0.098l-1.695-1.529
				L-488.971-484.103z"/>
			<path fill="#F15A24" d="M-458.633-481.377c0,0,0.004-0.047,0.012-0.134c0.017-0.086-0.009-0.219,0.049-0.377
				c0.033-0.164,0.104-0.35,0.203-0.562c0.104-0.208,0.271-0.417,0.48-0.628c0.229-0.184,0.518-0.376,0.872-0.453
				c0.103-0.018,0.157-0.048,0.296-0.053l0.253-0.007c0.157-0.009,0.418,0.05,0.614,0.116c0.4,0.142,0.759,0.428,1.025,0.795
				c0.271,0.373,0.379,0.842,0.412,1.302c-0.037,0.295-0.021,0.362-0.108,0.657c-0.062,0.258-0.179,0.455-0.3,0.646
				c-0.271,0.368-0.625,0.657-1.026,0.798c-0.396,0.129-0.812,0.161-1.161,0.057c-0.328-0.069-0.664-0.274-0.876-0.455
				c-0.213-0.211-0.376-0.42-0.481-0.629c-0.103-0.211-0.17-0.397-0.201-0.562c-0.059-0.157-0.034-0.292-0.049-0.377
				C-458.629-481.33-458.633-481.377-458.633-481.377z M-458.633-481.377c0,0,0.01,0.046,0.02,0.134
				c0.02,0.085,0.005,0.219,0.064,0.371c0.038,0.159,0.115,0.342,0.246,0.525c0.135,0.18,0.312,0.36,0.542,0.496
				c0.257,0.121,0.479,0.207,0.795,0.188c0.292,0.012,0.567-0.114,0.81-0.257c0.234-0.159,0.414-0.394,0.552-0.638
				c0.05-0.136,0.114-0.265,0.133-0.373c0.047-0.058,0.044-0.373,0.062-0.447c0-0.572-0.271-1.131-0.744-1.46
				c-0.125-0.062-0.19-0.144-0.368-0.185l-0.246-0.06c-0.022-0.011-0.128-0.008-0.188-0.013c-0.289-0.024-0.562,0.074-0.8,0.189
				c-0.229,0.136-0.405,0.316-0.541,0.497c-0.131,0.184-0.207,0.366-0.243,0.525c-0.062,0.152-0.05,0.287-0.066,0.371
				C-458.626-481.423-458.633-481.377-458.633-481.377z"/>
		</g>
	</g>
	<circle fill="#FBB03B" cx="-471.893" cy="-458.929" r="2.209"/>
</g>
<g>
	<g>
		<g>
			<circle fill="#0071BC" cx="-118.784" cy="160.8" r="55.75"/>
			<path fill="#01193A" d="M-67.808,138.23c0,0,0.494,1.272,1.418,3.668c0.219,0.604,0.524,1.254,0.738,2.013
				c0.209,0.761,0.438,1.591,0.687,2.487c0.229,0.896,0.544,1.854,0.76,2.896c0.179,1.054,0.367,2.17,0.563,3.354
				c0.679,4.721,1.069,10.605-0.033,17.219c-1.053,6.588-3.434,13.898-7.744,20.955c-4.352,7.009-10.703,13.662-18.838,18.629
				c-0.485,0.349-1.027,0.602-1.559,0.881c-0.531,0.277-1.062,0.555-1.601,0.833s-1.072,0.558-1.611,0.838l-0.81,0.421
				c-0.345,0.156-0.577,0.234-0.872,0.357c-2.258,0.865-4.45,1.896-6.938,2.494c-4.83,1.543-9.941,2.135-15.166,2.295
				c-1.307-0.025-2.616-0.053-3.937-0.078c-1.317-0.041-2.625-0.274-3.948-0.405l-1.982-0.229c-0.655-0.123-1.309-0.274-1.963-0.414
				c-1.305-0.303-2.636-0.523-3.932-0.896c-5.205-1.457-10.212-3.75-14.936-6.599c-4.682-2.942-8.901-6.645-12.623-10.814
				l-2.611-3.289l-0.65-0.822l-0.568-0.887l-1.137-1.77l-1.138-1.771c-0.397-0.582-0.657-1.236-0.993-1.855l-1.936-3.825
				c-2.057-4.954-3.725-10.593-4.398-16.106c-0.586-5.562-0.496-11.175,0.473-16.613c1.064-5.414,2.738-10.66,5.152-15.498
				c0.596-1.207,1.325-2.348,1.979-3.516c0.339-0.574,0.662-1.162,1.013-1.729l1.161-1.627c0.792-1.066,1.5-2.191,2.354-3.195
				c0.867-0.992,1.73-1.98,2.59-2.968c3.619-3.753,7.525-7.159,11.876-9.675c2.073-1.418,4.372-2.385,6.554-3.479
				c0.292-0.138,0.511-0.262,0.86-0.407l0.845-0.312c0.562-0.208,1.123-0.415,1.682-0.621c0.562-0.206,1.116-0.412,1.671-0.617
				c0.56-0.201,1.101-0.429,1.69-0.557c9.204-2.704,18.361-2.922,26.484-1.438c8.125,1.551,15.139,4.705,20.722,8.354
				c5.638,3.623,9.729,7.876,12.771,11.548c0.74,0.941,1.439,1.833,2.103,2.672c0.628,0.859,1.123,1.732,1.634,2.51
				c0.499,0.785,0.96,1.516,1.383,2.182c0.418,0.668,0.691,1.334,0.993,1.896C-68.419,137.006-67.808,138.23-67.808,138.23z
				 M-67.808,138.23c0,0-0.615-1.224-1.777-3.508c-0.309-0.562-0.582-1.229-1.003-1.896c-0.429-0.663-0.894-1.388-1.396-2.169
				c-0.517-0.771-1.016-1.643-1.646-2.498c-0.663-0.835-1.367-1.723-2.11-2.658c-3.052-3.648-7.161-7.889-12.846-11.391
				c-5.613-3.539-12.626-6.612-20.703-7.904c-8.04-1.271-17.11-0.786-25.91,2.04c-0.558,0.132-1.102,0.377-1.653,0.592
				c-0.55,0.222-1.101,0.438-1.652,0.659c-0.556,0.225-1.108,0.441-1.665,0.664l-0.837,0.333c-0.202,0.094-0.513,0.263-0.763,0.394
				c-2.097,1.127-4.302,2.11-6.276,3.545c-4.153,2.541-7.841,5.938-11.231,9.633c-0.803,0.97-1.607,1.938-2.417,2.918
				c-0.797,0.979-1.446,2.086-2.181,3.127l-1.075,1.586c-0.321,0.553-0.616,1.123-0.927,1.686c-0.596,1.139-1.27,2.237-1.809,3.408
				c-2.215,4.67-3.746,9.693-4.681,14.861c-0.158,1.304-0.317,2.609-0.478,3.918c-0.035,0.326-0.088,0.652-0.111,0.979l-0.023,0.989
				l-0.051,1.979l-0.061,1.979c0,0.66,0.08,1.32,0.115,1.98c0.11,1.315,0.14,2.646,0.313,3.961l0.666,3.928l0.168,0.982l0.262,0.944
				l0.521,1.897l0.518,1.896c0.148,0.634,0.467,1.272,0.689,1.909l1.478,3.828l1.763,3.502c0.315,0.584,0.558,1.213,0.933,1.764
				l1.071,1.688l1.067,1.687l0.534,0.845l0.613,0.783l2.461,3.135c0.855,1.014,1.82,1.93,2.723,2.896
				c0.465,0.471,0.9,0.974,1.391,1.416l1.506,1.289l1.498,1.295l0.746,0.646c0.261,0.203,0.535,0.385,0.804,0.576
				c1.075,0.764,2.146,1.521,3.221,2.279c4.454,2.783,9.206,5.021,14.15,6.529c1.229,0.387,2.498,0.629,3.738,0.949
				c0.625,0.146,1.245,0.312,1.871,0.443l1.897,0.271c1.265,0.154,2.518,0.416,3.782,0.484c1.267,0.061,2.526,0.112,3.782,0.172
				c5.01-0.023,10.035-0.48,14.662-1.836c2.353-0.484,4.627-1.479,6.896-2.283c0.265-0.104,0.604-0.218,0.808-0.31l0.799-0.392
				c0.531-0.26,1.062-0.521,1.592-0.774c0.527-0.261,1.057-0.519,1.581-0.771c0.521-0.262,1.062-0.492,1.539-0.82
				c8.062-4.646,14.479-11.014,18.953-17.83c4.477-6.85,6.906-14.107,8.062-20.645c1.228-6.562,0.853-12.453,0.198-17.168
				c-0.193-1.183-0.379-2.299-0.553-3.352c-0.209-1.043-0.518-1.995-0.74-2.896c-0.24-0.896-0.469-1.729-0.672-2.488
				c-0.209-0.76-0.516-1.41-0.729-2.016C-67.32,139.507-67.808,138.23-67.808,138.23z"/>
		</g>
		<g>
			<path fill="#0B5B87" d="M-71.564,131.167c-2.582-4.126-5.641-7.826-9.078-11.046c-9.086,19.375-25.955,35.59-47.613,44.633
				c0.278,0.424,0.535,0.866,0.75,1.348c1.998,4.516-0.041,9.795-4.557,11.791c-4.513,1.998-9.792-0.041-11.791-4.557
				c-0.483-1.1-0.729-2.238-0.76-3.372c-0.999,0.229-2.001,0.438-3.015,0.638c-8.718,1.691-17.357,2.18-25.729,1.602
				c0.791,3.771,1.977,7.511,3.598,11.173c1.592,3.595,3.521,6.933,5.725,10.001c16.347,0.354,33.368-3.633,49.136-12.416
				c3.408-1.896,6.643-3.979,9.726-6.195c1.679,2.853,5.688,3.883,9.307,2.278c3.851-1.705,5.794-5.748,4.341-9.028
				c-0.504-1.14-1.354-2.027-2.404-2.646C-83.763,155.447-76.185,143.686-71.564,131.167z"/>
			<path fill="#01193A" d="M-71.564,131.167l-2.019-2.962l-2.201-2.824l-2.378-2.677l-2.546-2.515l0.147-0.028l-1.85,3.745
				c-0.679,1.217-1.334,2.445-2.031,3.65c-0.736,1.182-1.443,2.383-2.211,3.547c-0.797,1.145-1.555,2.312-2.382,3.438
				c-0.85,1.104-1.657,2.243-2.543,3.32c-0.901,1.062-1.756,2.168-2.701,3.191c-0.955,1.016-1.861,2.073-2.854,3.057
				c-1,0.971-1.956,1.99-2.995,2.92c-1.044,0.926-2.044,1.9-3.125,2.783c-1.084,0.875-2.129,1.803-3.247,2.639
				c-1.123,0.826-2.21,1.703-3.362,2.49c-1.158,0.777-2.287,1.601-3.469,2.34c-1.189,0.728-2.359,1.492-3.568,2.189
				c-1.221,0.674-2.427,1.377-3.661,2.024l-3.742,1.87l-3.823,1.707l0.156-0.514l0.522,0.938l0.27,0.485l0.187,0.479
				c0.257,0.638,0.426,1.392,0.527,2.08c0.084,0.714,0.103,1.437,0.021,2.146c-0.077,0.713-0.224,1.42-0.468,2.094
				c-0.227,0.685-0.555,1.324-0.928,1.939c-0.399,0.596-0.833,1.174-1.359,1.666c-0.503,0.514-1.091,0.936-1.701,1.311
				c-0.301,0.195-0.635,0.337-0.948,0.505c-0.359,0.151-0.648,0.265-0.987,0.388c-0.708,0.211-1.413,0.369-2.13,0.416
				c-0.72,0.069-1.441,0.021-2.152-0.076c-0.712-0.105-1.409-0.306-2.077-0.57c-0.661-0.281-1.312-0.604-1.891-1.033
				c-0.6-0.404-1.121-0.906-1.613-1.434c-0.465-0.553-0.892-1.137-1.225-1.775c-0.155-0.305-0.351-0.666-0.455-0.98
				c-0.132-0.312-0.245-0.648-0.336-1.02c-0.206-0.709-0.28-1.42-0.324-2.145l0.515,0.397l-1.773,0.378
				c-0.58,0.117-1.199,0.271-1.792,0.354l-3.569,0.582l-1.784,0.291c-0.591,0.11-1.199,0.153-1.802,0.217l-3.624,0.348l-1.812,0.169
				l-1.814,0.058l-3.631,0.107c-0.605,0.031-1.21,0.029-1.816-0.004l-1.814-0.062l-3.633-0.125l0.513-0.588l0.672,2.809l0.813,2.771
				l0.946,2.729l1.091,2.672l1.23,2.625l1.355,2.537l1.489,2.475l1.616,2.396l-0.361-0.191l3.904-0.033l1.953-0.021
				c0.65-0.014,1.299-0.088,1.949-0.129l3.896-0.297c1.298-0.104,2.581-0.347,3.873-0.514l1.936-0.273l0.969-0.14l0.956-0.2
				l3.821-0.81c1.284-0.229,2.532-0.608,3.786-0.964l3.767-1.059l3.687-1.304c1.227-0.442,2.473-0.832,3.655-1.385l3.592-1.548
				c1.213-0.479,2.358-1.106,3.521-1.696l3.479-1.78c1.119-0.632,2.248-1.326,3.371-1.986l1.688-1.004
				c0.551-0.352,1.08-0.727,1.621-1.086l3.238-2.188l0.254-0.177l0.201,0.271l0.444,0.596c0.14,0.207,0.292,0.399,0.495,0.551
				l0.561,0.492c0.198,0.149,0.43,0.254,0.642,0.383c0.415,0.287,0.911,0.406,1.384,0.58c0.479,0.152,0.986,0.188,1.48,0.271
				c0.504-0.023,1.017,0.035,1.516-0.055c0.49-0.105,1.011-0.121,1.479-0.327c0.489-0.177,0.949-0.306,1.418-0.562
				c0.463-0.238,0.868-0.502,1.278-0.812c0.399-0.311,0.771-0.658,1.113-1.031c0.327-0.385,0.635-0.789,0.886-1.229
				c0.245-0.438,0.469-0.896,0.604-1.383c0.162-0.479,0.233-0.979,0.275-1.478c0.016-0.5-0.009-1.004-0.127-1.487
				c-0.054-0.244-0.117-0.486-0.215-0.719c-0.045-0.105-0.083-0.256-0.135-0.33l-0.188-0.348c-0.12-0.234-0.25-0.464-0.411-0.641
				c-0.158-0.188-0.279-0.396-0.479-0.559c-0.188-0.164-0.355-0.355-0.562-0.502l-0.621-0.43l-0.269-0.186l0.218-0.225l3.591-3.673
				l3.402-3.853c0.551-0.654,1.062-1.341,1.6-2.01l1.59-2.021c0.521-0.682,0.992-1.396,1.49-2.094l1.479-2.104
				c0.479-0.708,0.911-1.448,1.373-2.174l1.356-2.186c0.438-0.734,0.83-1.5,1.248-2.248l1.235-2.257
				c0.394-0.764,0.744-1.546,1.119-2.317l1.104-2.32L-71.564,131.167z M-71.564,131.167l-1.896,4.789l-1.078,2.34
				c-0.364,0.776-0.707,1.565-1.089,2.335l-1.208,2.275c-0.409,0.756-0.791,1.527-1.226,2.271l-1.332,2.205
				c-0.448,0.729-0.873,1.479-1.35,2.196l-1.451,2.13c-0.492,0.706-0.957,1.434-1.469,2.121l-1.568,2.048
				c-0.524,0.683-1.035,1.374-1.58,2.039l-3.363,3.913l-3.583,3.719l-0.054-0.404l0.681,0.461c0.223,0.158,0.407,0.361,0.612,0.545
				c0.216,0.17,0.367,0.416,0.547,0.631c0.188,0.22,0.318,0.447,0.438,0.681l0.189,0.349c0.087,0.146,0.104,0.264,0.164,0.396
				c0.104,0.254,0.182,0.521,0.238,0.787c0.133,0.534,0.162,1.089,0.146,1.636c-0.042,0.547-0.12,1.096-0.292,1.609
				c-0.146,0.527-0.387,1.021-0.648,1.498c-0.269,0.476-0.594,0.912-0.941,1.324c-0.366,0.398-0.762,0.775-1.188,1.107
				c-0.423,0.326-0.897,0.639-1.372,0.879c-0.449,0.258-1,0.432-1.5,0.604c-0.501,0.221-1.054,0.244-1.582,0.356
				c-0.535,0.097-1.086,0.039-1.628,0.062c-0.534-0.086-1.087-0.123-1.604-0.284c-0.518-0.185-1.055-0.313-1.518-0.628
				c-0.231-0.143-0.486-0.258-0.707-0.422l-0.625-0.543c-0.225-0.166-0.396-0.383-0.557-0.607l-0.497-0.666l0.456,0.098
				l-3.258,2.225c-0.545,0.367-1.082,0.748-1.637,1.104l-1.682,1.012c-1.129,0.67-2.227,1.354-3.382,2.015l-3.498,1.812
				c-1.168,0.6-2.318,1.233-3.538,1.729l-3.612,1.571c-1.188,0.562-2.441,0.959-3.676,1.412l-3.709,1.328l-3.789,1.084
				c-1.263,0.357-2.52,0.748-3.812,0.986l-3.854,0.831l-0.963,0.207l-0.975,0.146l-1.95,0.287c-1.302,0.174-2.597,0.424-3.905,0.533
				l-3.931,0.314c-0.656,0.045-1.311,0.123-1.967,0.141l-1.972,0.027l-3.944,0.055l-0.229,0.003l-0.132-0.19l-1.654-2.428
				l-1.527-2.512c-0.465-0.861-0.943-1.727-1.399-2.594l-1.255-2.645l-1.121-2.719l-0.979-2.771l-0.82-2.822l-0.672-2.854
				l-0.144-0.613l0.655,0.024l3.595,0.142l1.798,0.068c0.6,0.036,1.199,0.04,1.799,0.014l3.598-0.094l1.799-0.048l1.789-0.157
				l3.576-0.324c0.596-0.059,1.19-0.096,1.788-0.207l1.786-0.281l3.569-0.562c0.604-0.08,1.154-0.222,1.756-0.34l1.766-0.365
				l0.484-0.104l0.028,0.503c0.037,0.65,0.106,1.32,0.283,1.938l0.124,0.465l0.185,0.481c0.114,0.339,0.255,0.58,0.408,0.896
				c0.301,0.586,0.688,1.119,1.109,1.625c0.446,0.479,0.921,0.941,1.466,1.312c0.524,0.396,1.121,0.688,1.724,0.952
				c0.61,0.247,1.247,0.432,1.898,0.527c0.647,0.098,1.312,0.146,1.97,0.08c0.66-0.037,1.309-0.188,1.921-0.36
				c0.312-0.104,0.667-0.243,0.941-0.354c0.291-0.156,0.599-0.279,0.876-0.461c0.561-0.348,1.104-0.729,1.564-1.199
				c0.486-0.449,0.889-0.979,1.259-1.525c0.345-0.562,0.648-1.148,0.859-1.777c0.229-0.619,0.367-1.271,0.44-1.932
				c0.078-0.656,0.062-1.318-0.012-1.979c-0.104-0.67-0.225-1.272-0.479-1.92l-0.184-0.482l-0.234-0.42l-0.479-0.869l-0.197-0.354
				l0.354-0.156l3.805-1.68l3.729-1.84c1.229-0.645,2.429-1.337,3.646-2c1.204-0.686,2.368-1.438,3.556-2.154
				c1.178-0.729,2.303-1.541,3.457-2.312c1.146-0.774,2.229-1.644,3.353-2.461c1.114-0.823,2.156-1.741,3.238-2.604
				c1.078-0.871,2.076-1.836,3.119-2.75c1.037-0.922,1.99-1.934,2.99-2.895c0.988-0.969,1.896-2.02,2.854-3.021
				c0.941-1.021,1.812-2.104,2.722-3.147c0.896-1.06,1.713-2.183,2.574-3.271c0.838-1.104,1.605-2.264,2.413-3.393
				c0.777-1.146,1.497-2.337,2.249-3.504c0.713-1.189,1.383-2.407,2.074-3.609l1.893-3.714l0.062-0.116l0.089,0.09l2.521,2.556
				l2.351,2.714l2.167,2.857L-71.564,131.167z"/>
		</g>
		<g>
			<path fill="#29ABE2" d="M-69.089,165.37c0.203,0.216,0.381,0.461,0.508,0.747c0.602,1.357-0.012,2.945-1.37,3.546
				c-0.897,0.396-1.891,0.255-2.637-0.271c-9.562,10.465-22.117,20.022-36.958,27.441c-3.792,1.896-7.605,3.562-11.419,5.062
				c-0.027-1.064-0.255-2.145-0.712-3.174c-1.873-4.229-6.82-6.144-11.052-4.271c-4.229,1.873-6.14,6.82-4.267,11.05
				c0.21,0.479,0.464,0.916,0.747,1.329c-3.525,0.9-7.026,1.646-10.476,2.205c3.165,1.83,6.497,3.346,9.95,4.523
				c10.847-2.217,22.078-6.097,33.107-11.691c16.364-8.307,29.935-19.211,39.724-31.045c0.812-4.418,1.094-8.953,0.812-13.508
				C-64.917,160.033-66.912,162.725-69.089,165.37z"/>
			<path fill="#01193A" d="M-69.089,165.37c0.22,0.243,0.414,0.513,0.541,0.819c0.05,0.156,0.107,0.311,0.148,0.467l0.062,0.494
				l-0.035,0.494c-0.028,0.162-0.083,0.318-0.124,0.479c-0.053,0.155-0.141,0.3-0.209,0.45c-0.072,0.148-0.191,0.271-0.288,0.406
				c-0.094,0.14-0.239,0.229-0.356,0.346c-0.113,0.123-0.273,0.188-0.418,0.273c-0.139,0.1-0.311,0.143-0.461,0.188
				c-0.16,0.037-0.312,0.115-0.479,0.121l-0.507,0.014c-0.174,0.021-0.329-0.061-0.494-0.086c-0.164-0.038-0.331-0.064-0.479-0.161
				l-0.442-0.231l0.088-0.014l-2.522,2.678l-1.268,1.332l-1.325,1.271l-2.655,2.545l-2.769,2.424l-1.385,1.213l-1.439,1.146
				l-2.879,2.293l-2.979,2.158c-0.996,0.714-1.979,1.449-3.021,2.104l-3.082,2.018c-1.013,0.691-2.097,1.271-3.146,1.914
				c-1.061,0.621-2.104,1.264-3.176,1.861l-3.25,1.734c-1.07,0.578-2.17,1.172-3.281,1.677l-3.316,1.578
				c-1.093,0.549-2.245,0.993-3.374,1.479l-3.402,1.428l-0.542,0.229l-0.037-0.609c-0.034-0.612-0.1-1.229-0.271-1.819
				c-0.072-0.3-0.167-0.591-0.289-0.875l-0.083-0.216l-0.033-0.088l-0.055-0.107l-0.22-0.434c-0.292-0.562-0.639-1.023-1.039-1.506
				c-0.42-0.447-0.864-0.877-1.375-1.223c-0.492-0.365-1.05-0.641-1.612-0.882c-0.571-0.228-1.165-0.396-1.771-0.479
				c-0.605-0.09-1.226-0.123-1.835-0.062c-0.611,0.039-1.213,0.187-1.801,0.354c-0.275,0.104-0.593,0.219-0.84,0.332
				c-0.277,0.146-0.604,0.277-0.841,0.445c-0.496,0.312-1.008,0.682-1.43,1.118c-0.446,0.421-0.812,0.917-1.153,1.427
				c-0.309,0.527-0.594,1.072-0.779,1.657c-0.214,0.575-0.315,1.188-0.39,1.79c-0.036,0.309-0.026,0.609-0.041,0.916
				c0.029,0.307,0.025,0.611,0.078,0.914c0.093,0.604,0.226,1.204,0.462,1.771c0.051,0.127,0.119,0.322,0.156,0.391l0.236,0.423
				l0.479,0.849l0.308,0.549l-0.604,0.143l-5.23,1.23l-5.282,0.998l0.167-0.906l4.826,2.476l5.039,2.007l-0.258-0.016l5.205-1.245
				l2.603-0.622c0.865-0.218,1.707-0.52,2.562-0.771l5.108-1.601c0.859-0.239,1.688-0.581,2.521-0.899l2.497-0.967
				c1.654-0.668,3.35-1.24,4.973-1.984l4.856-2.258l2.428-1.129c0.783-0.386,1.577-0.836,2.364-1.252
				c1.562-0.863,3.184-1.654,4.708-2.578l4.59-2.744c1.505-0.959,2.979-1.971,4.469-2.952c1.512-0.955,2.904-2.078,4.354-3.125
				l2.147-1.597l2.071-1.699c1.376-1.139,2.786-2.238,4.08-3.473c1.303-1.225,2.683-2.365,3.923-3.649
				c1.247-1.278,2.528-2.526,3.748-3.832l3.568-4.003l-0.043,0.094l0.533-3.337l0.336-3.365l0.131-3.381l-0.078-3.384l0.156,0.041
				l-2.91,4.086L-69.089,165.37z M-69.089,165.37l3.051-3.976l2.835-4.129l0.146-0.217l0.015,0.26l0.137,3.395l-0.069,3.398
				l-0.275,3.389l-0.482,3.369l-0.008,0.051l-0.035,0.041l-3.515,4.08c-1.209,1.326-2.485,2.59-3.729,3.888
				c-1.23,1.308-2.604,2.466-3.905,3.706c-1.289,1.253-2.691,2.371-4.063,3.529l-2.064,1.729l-2.146,1.626
				c-1.445,1.063-2.836,2.208-4.35,3.187c-1.486,1.002-2.961,2.033-4.467,3.015l-4.608,2.81c-1.536,0.938-3.144,1.729-4.707,2.6
				c-0.798,0.422-1.562,0.859-2.383,1.27l-2.438,1.146l-4.88,2.288c-1.631,0.755-3.335,1.337-5,2.014l-2.513,0.98
				c-0.838,0.324-1.669,0.67-2.531,0.918l-5.145,1.623c-0.857,0.261-1.708,0.563-2.578,0.789l-2.621,0.635l-5.24,1.271l-0.137,0.033
				l-0.123-0.051l-5.134-2.03l-4.901-2.532l-1.248-0.646l1.415-0.264l5.237-0.979l5.195-1.205l-0.296,0.688l-0.475-0.853
				l-0.237-0.424c-0.114-0.222-0.137-0.337-0.21-0.511c-0.26-0.633-0.41-1.307-0.511-1.981c-0.059-0.337-0.058-0.683-0.083-1.021
				c0.015-0.342,0.007-0.687,0.048-1.023c0.081-0.678,0.202-1.354,0.438-1.997c0.21-0.647,0.528-1.261,0.875-1.849
				c0.381-0.565,0.793-1.116,1.291-1.586c0.479-0.491,1.028-0.891,1.63-1.262c0.302-0.197,0.582-0.31,0.873-0.463
				c0.345-0.154,0.646-0.257,0.971-0.382c0.652-0.188,1.32-0.351,2.005-0.394c0.68-0.061,1.364-0.02,2.041,0.076
				c0.675,0.102,1.334,0.289,1.967,0.543c0.625,0.269,1.24,0.574,1.787,0.979c0.562,0.386,1.058,0.858,1.521,1.358
				c0.434,0.509,0.854,1.101,1.157,1.688l0.218,0.437l0.057,0.107l0.056,0.139l0.091,0.238c0.132,0.311,0.237,0.639,0.316,0.971
				c0.186,0.654,0.256,1.338,0.293,2.017l-0.578-0.384l3.382-1.393c1.125-0.476,2.266-0.898,3.368-1.438l3.333-1.548
				c1.124-0.495,2.187-1.061,3.271-1.633l3.25-1.692c1.068-0.591,2.117-1.22,3.18-1.825c1.049-0.626,2.134-1.189,3.146-1.875
				l3.086-1.979c1.041-0.641,2.027-1.362,3.027-2.063l2.991-2.12l2.901-2.234l1.453-1.119l1.4-1.184l2.803-2.369l2.689-2.492
				l1.344-1.25l1.286-1.312l2.562-2.626l0.037-0.038l0.056,0.027l0.422,0.229c0.135,0.094,0.294,0.123,0.446,0.162
				c0.156,0.023,0.312,0.107,0.474,0.092l0.479-0.004c0.16,0,0.316-0.076,0.479-0.111c0.164-0.045,0.312-0.077,0.445-0.172
				c0.141-0.084,0.299-0.144,0.408-0.26c0.117-0.111,0.266-0.195,0.354-0.33c0.094-0.134,0.213-0.248,0.288-0.395
				c0.066-0.146,0.154-0.285,0.212-0.438c0.042-0.158,0.097-0.312,0.13-0.476l0.042-0.483l-0.052-0.486
				c-0.039-0.158-0.1-0.312-0.146-0.471C-68.685,165.891-68.874,165.618-69.089,165.37z"/>
		</g>
		<g>
			<path fill="#29ABE2" d="M-116.987,105.066c-5.068,7.658-11.847,14.799-20.051,20.886c-1.91-1.783-5.028-2.278-7.877-1.017
				c-3.616,1.601-5.437,5.422-4.118,8.586c-0.922,0.49-1.856,0.967-2.804,1.432c-6.399,3.134-12.924,5.455-19.402,7.018
				c-2.845,7.928-3.921,16.493-2.954,25.067c12.238-0.218,25.291-3.267,37.86-9.423c14.083-6.896,25.438-16.67,33.275-27.631
				c-1.344-0.436-2.512-1.396-3.127-2.787c-1.146-2.588,0.022-5.615,2.61-6.762c2.017-0.896,4.287-0.367,5.738,1.127
				c1.796-3.42,3.267-6.908,4.374-10.422C-100.725,107.441-108.759,105.338-116.987,105.066z M-162.016,154.24
				c-2.336,1.035-5.113-0.122-6.203-2.584c-1.09-2.463-0.08-5.297,2.256-6.33c2.336-1.034,5.111,0.123,6.203,2.585
				C-158.669,150.374-159.68,153.208-162.016,154.24z"/>
			<g>
				<path fill="#01193A" d="M-116.987,105.066l-2.12,2.955l-1.06,1.478c-0.362,0.485-0.688,1-1.08,1.461l-2.378,2.756l-1.189,1.382
					c-0.407,0.446-0.77,0.94-1.215,1.354l-2.605,2.541l-1.308,1.271c-0.439,0.414-0.854,0.863-1.318,1.254l-5.634,4.629
					l-0.131,0.104l-0.177-0.126c-0.308-0.219-0.581-0.486-0.914-0.669c-0.335-0.175-0.652-0.39-1.02-0.494l-0.534-0.192
					l-0.561-0.117c-0.369-0.102-0.75-0.108-1.13-0.131c-0.379-0.053-0.759,0.026-1.139,0.045c-0.38,0.021-0.746,0.146-1.12,0.215
					c-0.369,0.094-0.718,0.254-1.078,0.375c-0.325,0.146-0.722,0.332-1.019,0.529c-0.321,0.187-0.626,0.422-0.922,0.653
					c-0.291,0.244-0.563,0.511-0.816,0.791c-0.245,0.288-0.482,0.585-0.679,0.907c-0.202,0.316-0.39,0.648-0.523,1
					c-0.152,0.344-0.262,0.706-0.342,1.07c-0.084,0.365-0.125,0.738-0.135,1.106c-0.013,0.372,0.023,0.743,0.088,1.108
					c0.067,0.365,0.184,0.719,0.314,1.064l0.11,0.284l-0.262,0.138l-2.655,1.371c-0.463,0.229-0.904,0.422-1.358,0.635l-1.351,0.625
					c-0.907,0.406-1.789,0.854-2.716,1.226l-2.784,1.104l-1.392,0.553c-0.465,0.185-0.943,0.324-1.414,0.488l-2.836,0.946
					c-0.938,0.345-1.91,0.563-2.869,0.837l-2.887,0.782l0.303-0.271l-0.979,3.002l-0.806,3.054l-0.632,3.093l-0.457,3.124
					l-0.275,3.146l-0.096,3.154l0.085,3.151l0.267,3.146l-0.474-0.416c1.717-0.1,3.437-0.134,5.149-0.277
					c1.707-0.204,3.428-0.301,5.123-0.594c1.693-0.299,3.407-0.486,5.08-0.897c1.678-0.375,3.369-0.69,5.019-1.188
					c1.66-0.449,3.327-0.879,4.948-1.457l2.447-0.812c0.818-0.267,1.606-0.61,2.411-0.918l2.403-0.938
					c0.799-0.317,1.571-0.703,2.354-1.052l2.353-1.067c0.757-0.348,1.527-0.789,2.292-1.18c1.518-0.82,3.097-1.562,4.536-2.488
					l2.203-1.334c0.733-0.441,1.475-0.879,2.172-1.387c1.404-0.99,2.853-1.93,4.226-2.966c1.352-1.065,2.718-2.108,4.051-3.196
					l3.857-3.436l3.644-3.655l3.418-3.868l3.162-4.08l0.188,0.559c-0.375-0.172-0.771-0.312-1.125-0.52
					c-0.326-0.252-0.703-0.445-0.981-0.754l-0.42-0.457c-0.146-0.146-0.271-0.312-0.365-0.498l-0.31-0.535
					c-0.054-0.105-0.099-0.146-0.156-0.306l-0.089-0.274c-0.121-0.365-0.254-0.726-0.277-1.168
					c-0.021-0.211-0.055-0.424-0.062-0.635l0.051-0.615c0.003-0.416,0.157-0.806,0.262-1.201c0.11-0.395,0.352-0.743,0.521-1.115
					c0.25-0.322,0.479-0.671,0.771-0.956c0.323-0.25,0.59-0.585,0.969-0.755l0.537-0.303l0.134-0.073
					c0.09-0.041,0.104-0.039,0.159-0.062l0.271-0.098c0.345-0.146,0.783-0.201,1.194-0.275c0.41-0.008,0.818-0.052,1.225,0.026
					c0.411,0.028,0.799,0.168,1.191,0.278c0.369,0.172,0.755,0.316,1.084,0.562c0.354,0.201,0.643,0.5,0.949,0.768l-0.444,0.063
					l2.431-5.083c0.672-1.753,1.327-3.515,1.993-5.271l0.104,0.244l-2.744-1.334l-2.814-1.183l-2.875-1.026l-2.929-0.869
					l-2.974-0.709l-3.012-0.543l-3.035-0.381L-116.987,105.066z M-116.987,105.066l3.058,0.16l3.048,0.33l3.021,0.492l2.994,0.66
					l2.955,0.824l2.907,0.984l2.851,1.142l2.784,1.296l0.162,0.074l-0.062,0.168l-0.957,2.673c-0.319,0.894-0.633,1.784-0.965,2.671
					l-2.398,5.146l-0.146,0.312l-0.298-0.249c-0.28-0.232-0.536-0.502-0.858-0.68c-0.297-0.219-0.646-0.342-0.976-0.494
					c-0.354-0.094-0.698-0.219-1.065-0.237c-0.356-0.067-0.728-0.021-1.088-0.017c-0.348,0.074-0.685,0.097-1.058,0.258
					l-0.272,0.102c-0.035,0.012-0.113,0.035-0.109,0.041l-0.118,0.065l-0.476,0.271c-0.338,0.146-0.562,0.457-0.85,0.676
					c-0.256,0.254-0.453,0.562-0.675,0.85c-0.146,0.333-0.356,0.641-0.446,0.988c-0.086,0.354-0.226,0.691-0.22,1.06l-0.042,0.54
					c0.012,0.18,0.042,0.35,0.059,0.521c0.004,0.338,0.144,0.709,0.271,1.076l0.091,0.272c0.008,0.024,0.082,0.144,0.12,0.206
					l0.271,0.465c0.08,0.164,0.188,0.311,0.322,0.434l0.368,0.395c0.242,0.27,0.578,0.426,0.859,0.646
					c0.312,0.176,0.655,0.291,0.979,0.441l0.45,0.212l-0.267,0.351l-3.152,4.146l-3.414,3.939l-3.66,3.713l-3.884,3.48
					c-1.342,1.102-2.722,2.157-4.081,3.239c-1.384,1.054-2.841,2.001-4.258,3.009c-0.701,0.514-1.45,0.959-2.195,1.407l-2.229,1.358
					c-1.471,0.951-3.028,1.688-4.551,2.516c-0.772,0.398-1.503,0.822-2.314,1.2l-2.369,1.087c-0.793,0.354-1.571,0.744-2.378,1.068
					l-2.424,0.959c-0.812,0.309-1.608,0.662-2.436,0.935l-2.473,0.828c-1.637,0.588-3.32,1.028-4.997,1.487
					c-1.667,0.5-3.38,0.812-5.078,1.188c-1.69,0.41-3.425,0.601-5.138,0.896c-1.715,0.291-3.457,0.386-5.184,0.584
					c-1.734,0.144-3.475,0.174-5.211,0.268l-0.438,0.021l-0.036-0.438l-0.263-3.197l-0.076-3.209l0.107-3.203l0.291-3.195
					l0.473-3.174l0.652-3.144l0.828-3.099l1.002-3.045l0.069-0.211l0.233-0.062l2.862-0.769c0.951-0.271,1.916-0.485,2.849-0.813
					l2.819-0.915c0.468-0.154,0.945-0.291,1.405-0.47l1.38-0.533l2.761-1.062c0.92-0.356,1.814-0.805,2.723-1.197l1.356-0.611
					c0.447-0.203,0.917-0.402,1.347-0.611l2.646-1.336l-0.151,0.422c-0.146-0.395-0.271-0.789-0.346-1.201
					c-0.064-0.412-0.103-0.828-0.088-1.245c0.015-0.415,0.065-0.829,0.162-1.229c0.092-0.4,0.217-0.801,0.387-1.176
					c0.154-0.384,0.359-0.742,0.582-1.088c0.218-0.35,0.479-0.668,0.746-0.977c0.276-0.307,0.572-0.586,0.889-0.848
					c0.323-0.252,0.646-0.498,1.013-0.703c0.362-0.229,0.688-0.375,1.083-0.551c0.386-0.13,0.762-0.296,1.154-0.393
					c0.401-0.07,0.793-0.197,1.202-0.219c0.407-0.018,0.814-0.094,1.224-0.037c0.405,0.023,0.813,0.043,1.213,0.15l0.598,0.135
					l0.575,0.215c0.394,0.119,0.739,0.351,1.098,0.545c0.357,0.201,0.652,0.498,0.979,0.742l-0.311-0.02l5.683-4.514
					c0.472-0.379,0.889-0.818,1.336-1.227l1.318-1.244l2.645-2.492c0.451-0.404,0.815-0.889,1.229-1.33l1.208-1.354l2.418-2.711
					c0.401-0.451,0.734-0.964,1.104-1.441l1.084-1.459L-116.987,105.066z"/>
				<path fill="#01193A" d="M-162.016,154.24c0,0-0.109,0.037-0.317,0.105c-0.211,0.053-0.5,0.217-0.914,0.229
					c-0.203,0.014-0.429,0.069-0.675,0.054c-0.247-0.02-0.514-0.04-0.799-0.062c-0.276-0.076-0.57-0.156-0.881-0.242
					c-0.285-0.146-0.604-0.275-0.914-0.454c-0.584-0.396-1.209-0.909-1.631-1.634c-0.109-0.188-0.229-0.334-0.334-0.566
					c-0.074-0.189-0.15-0.386-0.226-0.582c-0.088-0.188-0.142-0.4-0.177-0.641c-0.039-0.229-0.092-0.467-0.116-0.702
					c-0.048-0.935,0.129-1.925,0.604-2.82c0.5-0.882,1.299-1.593,2.229-2.056c0.896-0.361,2.046-0.498,3.021-0.271
					c0.983,0.252,1.836,0.781,2.496,1.445c0.602,0.71,1.096,1.482,1.271,2.309c0.244,0.769,0.215,1.625,0.113,2.311
					c-0.076,0.352-0.196,0.671-0.279,0.98c-0.146,0.287-0.283,0.561-0.413,0.812c-0.175,0.229-0.339,0.438-0.491,0.633
					c-0.154,0.191-0.346,0.321-0.492,0.467c-0.287,0.297-0.604,0.398-0.785,0.521C-161.914,154.186-162.016,154.24-162.016,154.24z
					 M-162.016,154.24c0,0,0.101-0.059,0.289-0.17c0.178-0.125,0.491-0.234,0.771-0.537c0.143-0.145,0.331-0.274,0.479-0.469
					c0.139-0.201,0.291-0.418,0.451-0.648c0.111-0.257,0.23-0.531,0.355-0.816c0.066-0.311,0.146-0.631,0.186-0.97
					c0.02-0.694-0.004-1.396-0.318-2.137c-0.232-0.739-0.756-1.38-1.33-1.94c-0.637-0.511-1.389-0.883-2.2-1.056
					c-0.837-0.104-1.585-0.05-2.429,0.286c-0.754,0.354-1.375,0.921-1.845,1.604c-0.417,0.717-0.649,1.521-0.698,2.338
					c0.002,0.195,0.027,0.391,0.037,0.586c0.002,0.189,0.026,0.394,0.1,0.599c0.057,0.202,0.111,0.403,0.167,0.604
					c0.048,0.146,0.163,0.34,0.239,0.504c0.318,0.705,0.851,1.231,1.371,1.676c0.275,0.197,0.567,0.354,0.84,0.511
					c0.299,0.104,0.582,0.196,0.847,0.288c0.28,0.035,0.542,0.068,0.782,0.102c0.244,0.021,0.467-0.027,0.67-0.037
					c0.41-0.006,0.705-0.16,0.917-0.209C-162.126,154.275-162.016,154.24-162.016,154.24z"/>
			</g>
		</g>
		<g>
			<circle fill="#29ABE2" cx="-106.963" cy="185.643" r="5.5"/>
			<path fill="#01193A" d="M-111.993,187.869c0,0,0.068,0.115,0.195,0.334c0.146,0.205,0.266,0.574,0.606,0.904
				c0.159,0.172,0.318,0.379,0.525,0.568c0.229,0.17,0.475,0.352,0.736,0.545c0.279,0.162,0.604,0.291,0.933,0.448
				c0.343,0.119,0.724,0.188,1.104,0.276c0.789,0.052,1.66,0.048,2.49-0.299c0.197-0.08,0.444-0.151,0.604-0.24
				c0.2-0.127,0.401-0.256,0.608-0.385c0.228-0.117,0.392-0.278,0.547-0.439c0.156-0.166,0.34-0.303,0.479-0.484
				c0.599-0.742,0.978-1.652,1.157-2.607c0.111-0.975-0.023-1.959-0.396-2.873c-0.226-0.359-0.486-0.979-0.809-1.252
				c-0.27-0.373-0.684-0.653-1.055-0.969c-0.827-0.51-1.758-0.84-2.707-0.896c-0.938,0.012-1.893,0.148-2.659,0.615
				c-0.841,0.402-1.386,1.019-1.896,1.646c-0.189,0.344-0.396,0.67-0.539,1.004c-0.102,0.35-0.224,0.678-0.291,0.992
				c-0.033,0.323-0.063,0.631-0.096,0.909c0.003,0.28,0.051,0.54,0.07,0.772c0.013,0.479,0.206,0.812,0.259,1.06
				C-112.034,187.74-111.993,187.869-111.993,187.869z M-111.993,187.869c0,0-0.043-0.129-0.124-0.367
				c-0.058-0.245-0.257-0.578-0.277-1.057c-0.021-0.233-0.076-0.494-0.084-0.777c0.02-0.285,0.035-0.596,0.057-0.924
				c0.053-0.325,0.156-0.664,0.242-1.027c0.136-0.348,0.31-0.699,0.479-1.074c0.251-0.324,0.452-0.721,0.782-1.031
				c0.331-0.312,0.67-0.672,1.077-0.881c0.781-0.567,1.814-0.832,2.882-0.931c1.081-0.038,2.196,0.251,3.201,0.821
				c0.465,0.338,0.95,0.65,1.327,1.15c0.47,0.479,0.615,0.885,0.953,1.438c0.422,1.1,0.601,2.293,0.385,3.438
				c-0.254,1.125-0.789,2.146-1.547,2.92c-0.182,0.193-0.418,0.354-0.619,0.523c-0.213,0.178-0.42,0.334-0.641,0.432
				c-0.218,0.106-0.432,0.221-0.644,0.326c-0.269,0.117-0.483,0.148-0.724,0.229c-0.926,0.291-1.854,0.216-2.659,0.091
				c-0.396-0.126-0.773-0.232-1.119-0.369c-0.327-0.181-0.649-0.33-0.927-0.509c-0.258-0.208-0.496-0.401-0.721-0.582
				c-0.205-0.196-0.359-0.41-0.521-0.585c-0.34-0.339-0.451-0.708-0.596-0.915C-111.928,187.988-111.993,187.869-111.993,187.869z"
				/>
		</g>
	</g>
	<g>
		<g>
			<path fill="#0071BC" d="M-72.32,124.124c1.172,1.392,2.285,2.839,3.338,4.351c24.059-8.646,40.437-12.634,41.797-9.554
				c2.263,5.104-37.5,27.655-88.804,50.371c-51.305,22.717-94.728,36.995-96.985,31.896c-1.396-3.151,13.252-12.972,36.752-25.367
				c-0.406-1.789-0.727-3.584-0.961-5.381c-46.427,23.908-76.971,45.291-73.58,52.943c4.52,10.207,67.598-7.824,140.89-40.275
				c73.29-32.453,129.042-67.035,124.52-77.239C11.299,98.295-24.269,106.264-72.32,124.124z"/>
			<path fill="#01193A" d="M-72.32,124.124l3.348,4.339l-0.014-0.004c5.788-2.096,11.611-4.102,17.491-5.93
				c5.886-1.795,11.81-3.557,17.914-4.487c1.528-0.188,3.076-0.378,4.632-0.179c0.387,0.06,0.776,0.143,1.141,0.322
				c0.369,0.146,0.709,0.5,0.805,0.9c0.098,0.438-0.041,0.846-0.201,1.201c-0.162,0.365-0.393,0.688-0.618,1.005
				c-0.956,1.237-2.129,2.258-3.312,3.248c-1.188,0.985-2.43,1.903-3.684,2.799c-5.037,3.562-10.33,6.729-15.664,9.81
				c-10.689,6.123-21.645,11.771-32.705,17.188c-11.062,5.416-22.238,10.599-33.5,15.583c-11.262,4.986-22.612,9.777-34.06,14.324
				c-11.453,4.533-22.994,8.859-34.729,12.645c-5.873,1.862-11.783,3.646-17.845,4.891c-1.519,0.298-3.045,0.568-4.599,0.714
				c-0.777,0.071-1.56,0.122-2.354,0.097c-0.791-0.048-1.614-0.09-2.42-0.562c-0.194-0.121-0.394-0.291-0.526-0.519l-0.099-0.171
				c-0.054-0.154-0.036-0.122-0.058-0.191c-0.023-0.097-0.059-0.17-0.055-0.326c-0.031-0.596,0.178-0.934,0.354-1.332
				c0.404-0.732,0.927-1.336,1.472-1.902c1.087-1.141,2.293-2.121,3.511-3.078c4.92-3.771,10.203-6.97,15.508-10.104
				c5.322-3.113,10.728-6.072,16.172-8.955l-0.213,0.463l-0.974-5.418l0.615,0.322c-8.915,4.607-17.757,9.361-26.459,14.356
				c-8.699,4.998-17.286,10.202-25.558,15.865c-4.133,2.832-8.176,5.799-12.008,9.005c-1.906,1.611-3.755,3.294-5.445,5.107
				c-1.655,1.806-3.309,3.793-3.928,6.037c-0.119,0.551-0.178,1.115-0.023,1.615c0.027,0.105,0.09,0.289,0.085,0.34l0.229,0.408
				c0.16,0.207,0.289,0.377,0.517,0.562c0.839,0.715,2.036,1.07,3.211,1.303c2.397,0.432,4.909,0.363,7.386,0.205
				c4.971-0.365,9.911-1.26,14.809-2.291c9.797-2.104,19.453-4.869,29.027-7.857c9.573-3.006,19.062-6.283,28.485-9.736
				c18.847-6.914,37.438-14.521,55.812-22.606c18.37-8.103,36.524-16.696,54.354-25.935c8.91-4.621,17.738-9.405,26.428-14.43
				c8.68-5.035,17.252-10.275,25.463-16.037c4.101-2.893,8.113-5.904,11.844-9.244c1.852-1.685,3.643-3.44,5.164-5.405
				c0.752-0.981,1.44-2.03,1.89-3.166c0.451-1.11,0.603-2.419-0.117-3.396c-0.651-0.965-1.864-1.469-3.04-1.77
				c-1.191-0.307-2.438-0.441-3.68-0.494c-2.492-0.104-4.997,0.075-7.485,0.348c-4.979,0.557-9.909,1.539-14.806,2.627
				c-9.786,2.23-19.438,5.043-29.01,8.076C-53.414,117.341-62.894,120.659-72.32,124.124z M-72.32,124.124
				c9.408-3.511,18.873-6.877,28.432-9.964c9.562-3.081,19.197-5.938,28.984-8.227c4.897-1.113,9.829-2.123,14.829-2.707
				c2.5-0.283,5.019-0.479,7.546-0.387c1.262,0.044,2.53,0.18,3.771,0.489c1.213,0.312,2.521,0.804,3.312,1.948l0.247,0.398
				c0.11,0.188,0.126,0.324,0.192,0.491c0.087,0.321,0.146,0.661,0.131,0.992c0,0.667-0.162,1.313-0.398,1.911
				c-0.469,1.209-1.172,2.285-1.937,3.295c-1.545,2.016-3.354,3.789-5.21,5.488c-3.75,3.367-7.771,6.396-11.876,9.303
				c-8.228,5.789-16.797,11.051-25.479,16.107c-8.688,5.043-17.519,9.848-26.428,14.485c-17.826,9.272-35.979,17.907-54.348,26.045
				c-18.374,8.131-36.971,15.771-55.822,22.726c-9.43,3.474-18.924,6.771-28.508,9.799c-9.588,3.015-19.258,5.802-29.098,7.934
				c-4.923,1.045-9.889,1.953-14.938,2.336c-2.522,0.164-5.077,0.242-7.634-0.205c-1.262-0.258-2.582-0.604-3.678-1.52
				c-0.267-0.207-0.533-0.531-0.738-0.83l-0.229-0.412c-0.094-0.254-0.118-0.371-0.177-0.562c-0.208-0.705-0.13-1.438,0.015-2.102
				c0.74-2.637,2.479-4.609,4.173-6.479c1.736-1.856,3.612-3.562,5.543-5.188c3.877-3.229,7.945-6.205,12.101-9.043
				c8.312-5.67,16.926-10.869,25.647-15.857c8.725-4.99,17.586-9.731,26.518-14.334l0.511-0.268l0.104,0.586l0.951,5.346
				l0.057,0.318l-0.271,0.146c-5.441,2.869-10.844,5.812-16.156,8.91c-5.293,3.113-10.572,6.305-15.438,10.021
				c-1.202,0.939-2.392,1.908-3.433,2.996c-0.521,0.537-1.013,1.113-1.353,1.73c-0.147,0.284-0.291,0.676-0.272,0.858
				c-0.025,0.036,0.011,0.146,0.035,0.237c0.004,0.021,0.043,0.146,0.019,0.082l0.05,0.078c0.059,0.104,0.163,0.198,0.292,0.276
				c0.528,0.321,1.306,0.411,2.034,0.444c0.744,0.025,1.501-0.021,2.257-0.09c1.513-0.143,3.022-0.402,4.524-0.695
				c6.008-1.219,11.912-2.985,17.771-4.838c11.715-3.754,23.254-8.059,34.705-12.567c11.447-4.521,22.797-9.293,34.062-14.257
				c11.264-4.965,22.44-10.123,33.508-15.518c11.056-5.41,22.028-10.998,32.741-17.062c5.343-3.049,10.645-6.188,15.684-9.711
				c1.254-0.882,2.494-1.791,3.682-2.763c1.182-0.979,2.353-1.989,3.285-3.188c0.437-0.589,0.899-1.304,0.789-1.979
				c-0.082-0.353-0.332-0.614-0.674-0.764c-0.326-0.162-0.697-0.244-1.068-0.307c-1.506-0.202-3.053-0.025-4.566,0.156
				c-6.083,0.896-12.021,2.629-17.907,4.394c-5.887,1.802-11.718,3.776-17.521,5.845l-0.01,0.004l-0.007-0.01L-72.32,124.124z"/>
		</g>
	</g>
	<g>
		<g>
			<path fill="#29ABE2" d="M-68.228,129.566c0.252,0.381,0.494,0.771,0.736,1.158c10.568-3.533,17.207-5.002,17.801-3.664
				c1.354,3.062-29.363,19.633-68.606,37.01c-39.25,17.377-72.166,28.979-73.521,25.923c-0.624-1.409,5.566-5.688,16.249-11.589
				c-0.121-0.438-0.249-0.877-0.358-1.313c-18.008,9.798-28.903,17.394-27.756,19.979c2.032,4.593,41.112-8.26,87.288-28.705
				c46.171-20.441,81.955-40.739,79.921-45.332C-37.588,120.52-49.814,123.236-68.228,129.566z"/>
			<path fill="#01193A" d="M-68.228,129.566l0.742,1.156l-0.008-0.007c3.868-1.3,7.756-2.56,11.729-3.511
				c0.99-0.23,1.992-0.439,3.01-0.586c0.507-0.07,1.02-0.123,1.533-0.129c0.502,0.021,1.066-0.014,1.513,0.387
				c0.211,0.246,0.146,0.564,0.044,0.812c-0.104,0.25-0.27,0.457-0.425,0.662c-0.332,0.396-0.704,0.758-1.091,1.094
				c-0.771,0.677-1.596,1.289-2.428,1.884c-3.349,2.354-6.877,4.418-10.422,6.442c-3.552,2.017-7.146,3.953-10.763,5.849
				c-7.231,3.796-14.569,7.381-21.942,10.888c-7.375,3.5-14.802,6.896-22.265,10.209c-14.933,6.604-29.999,12.93-45.318,18.604
				c-3.834,1.41-7.685,2.777-11.57,4.048c-3.895,1.247-7.795,2.485-11.854,3.258c-1.024,0.168-2.042,0.347-3.163,0.25
				c-0.285-0.04-0.576-0.067-0.908-0.271c-0.168-0.115-0.324-0.234-0.429-0.53c-0.04-0.039-0.069-0.479-0.007-0.595
				c0.215-0.676,0.605-1.043,0.97-1.438c1.517-1.485,3.226-2.622,4.931-3.769c3.434-2.246,6.982-4.278,10.554-6.271l-0.22,0.521
				l-0.362-1.323l0.664,0.29c-4.632,2.533-9.226,5.143-13.716,7.906c-2.242,1.385-4.461,2.812-6.613,4.314
				c-2.137,1.52-4.282,3.084-6.042,4.941c-0.833,0.873-1.707,2.22-0.81,2.529c0.457,0.227,1.099,0.305,1.722,0.318
				c0.63,0.021,1.274-0.021,1.92-0.075c2.584-0.25,5.165-0.815,7.72-1.431c5.114-1.254,10.162-2.811,15.178-4.447
				c10.028-3.309,19.926-7.021,29.75-10.902c9.82-3.896,19.563-7.99,29.236-12.244c9.673-4.254,19.277-8.668,28.788-13.271
				c9.508-4.609,18.938-9.393,28.17-14.521c4.609-2.58,9.188-5.219,13.624-8.08c2.21-1.438,4.396-2.924,6.448-4.572
				c1.018-0.831,2.02-1.693,2.857-2.688c0.397-0.5,0.812-1.047,0.916-1.646c0.049-0.303-0.019-0.57-0.24-0.795
				c-0.188-0.188-0.496-0.329-0.797-0.403c-1.248-0.304-2.599-0.188-3.896-0.062c-1.309,0.146-2.605,0.371-3.902,0.627
				c-2.588,0.521-5.146,1.168-7.695,1.865C-58.187,126.262-63.222,127.875-68.228,129.566z M-68.228,129.566
				c4.992-1.734,10.018-3.396,15.104-4.842c2.543-0.723,5.104-1.396,7.691-1.937c1.295-0.271,2.603-0.505,3.916-0.664
				c1.314-0.138,2.658-0.272,3.994,0.032c0.332,0.089,0.66,0.205,0.94,0.488c0.258,0.232,0.382,0.67,0.312,1.02
				c-0.125,0.718-0.557,1.271-0.965,1.796c-0.854,1.034-1.856,1.913-2.881,2.765c-2.056,1.68-4.234,3.188-6.439,4.648
				c-4.424,2.908-8.979,5.604-13.598,8.188c-9.229,5.168-18.654,9.979-28.154,14.623c-9.505,4.637-19.104,9.082-28.771,13.365
				c-9.668,4.286-19.407,8.415-29.229,12.346c-9.821,3.92-19.72,7.668-29.764,11.01c-5.024,1.66-10.083,3.238-15.235,4.517
				c-2.58,0.624-5.174,1.207-7.854,1.479c-0.671,0.062-1.347,0.104-2.039,0.086c-0.688-0.027-1.397-0.07-2.142-0.426
				c-0.185-0.104-0.363-0.199-0.561-0.436c-0.111-0.12-0.121-0.167-0.172-0.243l-0.032-0.055c-0.065-0.134-0.034-0.087-0.057-0.14
				l-0.052-0.185c-0.103-0.483,0.022-0.923,0.175-1.269c0.315-0.705,0.767-1.234,1.225-1.746c1.873-1.994,4.037-3.553,6.208-5.084
				c2.182-1.52,4.416-2.944,6.674-4.33c4.521-2.768,9.133-5.365,13.782-7.891l0.511-0.275l0.153,0.566l0.353,1.305l0.095,0.349
				l-0.313,0.177c-3.564,1.969-7.109,3.984-10.514,6.198c-1.682,1.116-3.396,2.265-4.798,3.638
				c-0.332,0.332-0.669,0.736-0.757,1.049c-0.01,0.035-0.016,0.072-0.014,0.054c-0.02-0.03-0.008,0.036,0.016,0.104
				c-0.02-0.056,0.013,0.016,0.059,0.033c0.107,0.074,0.336,0.122,0.553,0.146c0.918,0.082,1.938-0.069,2.922-0.233
				c3.967-0.735,7.873-1.963,11.75-3.19c3.875-1.254,7.724-2.605,11.554-4.004c15.312-5.623,30.39-11.896,45.332-18.451
				c14.937-6.576,29.729-13.484,44.26-20.91c3.631-1.863,7.237-3.771,10.803-5.75c3.561-1.991,7.103-4.026,10.455-6.34
				c0.832-0.584,1.653-1.188,2.424-1.852c0.388-0.33,0.754-0.68,1.078-1.062c0.291-0.369,0.666-0.86,0.396-1.246
				c-0.329-0.315-0.897-0.327-1.384-0.34c-0.508,0-1.014,0.047-1.518,0.111c-1.01,0.137-2.01,0.174-3.004,0.396
				c-3.975,0.914-7.873,2.246-11.751,3.246h-0.004l-0.002,0.158L-68.228,129.566z"/>
		</g>
	</g>
</g>
</svg>
