<?xml version="1.0" encoding="utf-8"?>
<!-- Generator: Adobe Illustrator 16.0.0, SVG Export Plug-In . SVG Version: 6.00 Build 0)  -->
<!DOCTYPE svg PUBLIC "-//W3C//DTD SVG 1.1//EN" "http://www.w3.org/Graphics/SVG/1.1/DTD/svg11.dtd">
<svg version="1.1" id="Layer_1" xmlns="http://www.w3.org/2000/svg" xmlns:xlink="http://www.w3.org/1999/xlink" x="0px" y="0px"
	 width="950px" height="560px" viewBox="0 0 950 560" enable-background="new 0 0 950 560" xml:space="preserve">
<g>
	
		<rect x="-227.733" y="142.12" transform="matrix(-0.419 0.908 -0.908 -0.419 -181.9308 401.4647)" fill="#65C4BC" width="16.647" height="0.812"/>
	<path fill="#104650" stroke="#063035" stroke-miterlimit="10" d="M-199.531,145.482l0.002-0.002l-3.535-1l-5.691,7.959l4.735,2.772
		l0.002-0.005c-0.001,0.002,0.005,0.014,0.026,0.021c0.967,0.445,2.744-1.383,3.985-4.076c1.242-2.689,1.528-5.209,0.562-5.652
		C-199.492,145.479-199.526,145.473-199.531,145.482z"/>
	<path fill="#F47668" stroke="#C1272D" stroke-miterlimit="10" d="M-202.166,141.086c-0.109-0.091-0.303-0.206-0.431-0.268
		c-0.231-0.104-0.521-0.172-0.786-0.168l-6.645-2.291l-6.485,13.104l6.599,4.105c0.102,0.082,0.207,0.15,0.325,0.205
		c1.808,0.834,4.972-1.773,6.882-5.916c1.772-3.84,1.971-7.582,0.698-8.698l0.002-0.007L-202.166,141.086z"/>
	<g>
		
			<ellipse transform="matrix(0.908 0.4189 -0.4189 0.908 41.1419 102.6102)" fill="#E56051" cx="-213.109" cy="145" rx="3.603" ry="7.308"/>
		<path fill="#C1272D" d="M-216.17,151.624c-0.009-0.03,0.528,0.321,1.48,0.062c0.933-0.256,2.078-1.123,3.046-2.442
			c0.483-0.657,0.938-1.427,1.329-2.271c0.388-0.842,0.729-1.787,0.947-2.76c0.211-0.979,0.351-2.021,0.268-3.029
			c-0.039-0.504-0.139-1-0.323-1.432c-0.165-0.423-0.517-0.796-0.786-0.923c-0.83-0.388-1.783,0.06-2.602,0.644
			c-0.823,0.594-1.521,1.375-2.13,2.17c-1.203,1.623-1.976,3.41-2.353,4.996c-0.379,1.592-0.293,3.027,0.117,3.902
			C-216.759,151.434-216.141,151.611-216.17,151.624z M-216.17,151.624c0.029-0.017-0.593-0.183-1.029-1.076
			c-0.422-0.879-0.567-2.305-0.312-3.954c0.25-1.652,0.877-3.543,1.992-5.35c0.564-0.896,1.24-1.791,2.154-2.512
			c0.447-0.362,0.959-0.686,1.561-0.879c0.299-0.098,0.62-0.16,0.958-0.164c0.163-0.012,0.372,0.033,0.554,0.062
			c0.166,0.037,0.271,0.084,0.41,0.128c0.742,0.345,1.102,0.908,1.355,1.49c0.244,0.581,0.33,1.181,0.342,1.758
			c0.048,1.16-0.196,2.254-0.512,3.265c-0.325,1.022-0.744,1.938-1.221,2.778c-0.477,0.837-1.005,1.579-1.554,2.208
			c-1.088,1.266-2.269,2.08-3.21,2.33C-215.648,151.958-216.179,151.594-216.17,151.624z"/>
	</g>
	<path fill="#F47668" stroke="#C1272D" stroke-miterlimit="10" d="M-210.978,139.283L-223,133.936l-4.67,11.26l11.547,5.236
		l0.002-0.008c0,0.002-0.045-0.011-0.019,0.002c1.519,0.699,3.854-1.25,5.276-4.33c1.421-3.08,1.412-6.111-0.107-6.812
		c-0.025-0.014-0.011,0.005-0.011,0.007L-210.978,139.283z"/>
	<g>
		
			<ellipse transform="matrix(0.908 0.4189 -0.4189 0.908 37.7906 107.1905)" fill="#E56051" cx="-225.222" cy="139.66" rx="2.385" ry="6.173"/>
		<path fill="#C1272D" d="M-227.767,145.266c0.001-0.008,0.103,0.049,0.306,0.074c0.205,0.034,0.512-0.029,0.855-0.197
			c0.697-0.334,1.492-1.145,2.189-2.252c0.348-0.558,0.68-1.187,0.979-1.871c0.297-0.682,0.571-1.438,0.772-2.209
			c0.199-0.781,0.342-1.604,0.385-2.416c0.006-0.403-0.012-0.81-0.09-1.168c-0.078-0.365-0.256-0.638-0.435-0.719
			c0.037,0.028-0.228-0.088-0.202-0.044c-0.017,0.005-0.031,0.003-0.05-0.003l-0.104,0.018c-0.144,0.021-0.31,0.084-0.472,0.166
			c-0.325,0.172-0.643,0.424-0.946,0.689c-0.592,0.559-1.121,1.202-1.586,1.857c-0.922,1.33-1.572,2.731-1.97,3.979
			c-0.394,1.249-0.491,2.381-0.295,3.128c0.097,0.369,0.246,0.646,0.405,0.779C-227.871,145.219-227.763,145.26-227.767,145.266z
			 M-227.767,145.266c0.005-0.006-0.104-0.043-0.259-0.18c-0.164-0.132-0.321-0.406-0.426-0.777
			c-0.207-0.752-0.168-1.885,0.104-3.188c0.271-1.312,0.774-2.81,1.589-4.293c0.407-0.744,0.901-1.483,1.541-2.149
			c0.324-0.33,0.684-0.646,1.133-0.892c0.226-0.119,0.471-0.229,0.762-0.279l0.222-0.032c0.092,0,0.187,0.006,0.28,0.018
			c0.25,0.027,0.187,0.033,0.437,0.111c0.63,0.324,0.862,0.938,0.964,1.414c0.104,0.5,0.096,0.979,0.055,1.439
			c-0.092,0.919-0.336,1.771-0.637,2.562c-0.304,0.806-0.654,1.522-1.037,2.196c-0.379,0.669-0.785,1.271-1.197,1.798
			c-0.815,1.055-1.651,1.819-2.358,2.15c-0.351,0.161-0.662,0.221-0.868,0.182C-227.666,145.316-227.766,145.258-227.767,145.266z"
			/>
	</g>
	<path fill="#F47668" stroke="#C1272D" stroke-miterlimit="10" d="M-223.936,135.952l-3.531-1.636l-3.195,6.931l3.529,1.626
		c0.006,0.003-0.057,0.031-0.05,0.037c0.006,0.003-0.054,0.025-0.048,0.029l0.211,0.101l0.045-0.103
		c0.398,0.107,2.021-0.986,2.886-2.857c0.864-1.873,0.646-3.818,0.306-4.057l-0.004,0.012l-0.215-0.102
		c-0.005-0.002,0.041,0.008,0.034,0.006C-223.974,135.939-223.931,135.954-223.936,135.952z"/>
	<g>
		
			<ellipse transform="matrix(0.9081 0.4189 -0.4189 0.9081 36.5933 108.7108)" fill="#E56051" cx="-229.312" cy="137.703" rx="1.472" ry="3.814"/>
		<path fill="#C1272D" d="M-230.894,141.141c-0.011-0.013,0.282,0.153,0.715-0.08c0.423-0.215,0.927-0.697,1.365-1.381
			c0.435-0.682,0.846-1.555,1.11-2.517c0.129-0.483,0.224-0.991,0.258-1.5c0.01-0.253,0.002-0.513-0.053-0.739
			c-0.039-0.229-0.197-0.433-0.274-0.472c-0.356-0.163-0.831,0.179-1.192,0.51c-0.363,0.354-0.688,0.761-0.973,1.171
			c-0.562,0.831-0.956,1.703-1.193,2.477c-0.236,0.777-0.277,1.478-0.166,1.938C-231.193,141.025-230.877,141.141-230.894,141.141z
			 M-230.894,141.141c0.017,0-0.306-0.104-0.427-0.59c-0.137-0.467-0.092-1.166,0.082-1.969c0.175-0.809,0.496-1.727,1.004-2.633
			c0.254-0.455,0.562-0.906,0.957-1.311c0.203-0.197,0.42-0.389,0.688-0.537c0.135-0.07,0.28-0.141,0.452-0.17
			c0.151-0.05,0.433,0.002,0.515,0.041c0.422,0.211,0.516,0.553,0.586,0.846c0.061,0.304,0.057,0.593,0.037,0.871
			c-0.047,0.562-0.193,1.088-0.373,1.576c-0.363,0.983-0.851,1.814-1.351,2.477c-0.497,0.65-1,1.143-1.442,1.34
			C-230.617,141.307-230.904,141.127-230.894,141.141z"/>
	</g>
	
		<ellipse transform="matrix(0.908 0.4191 -0.4191 0.908 36.5216 108.8561)" fill="#BC3228" cx="-229.536" cy="137.565" rx="0.794" ry="2.671"/>
	<path opacity="0.5" fill="#FFF0EC" enable-background="new    " d="M-229.266,140.505v0.002l3.701,1.604l-0.244,2.548L-214,150
		l-0.115,1.52c0,0,4.146,3.521,5.471,4.399c1.367-0.258,2.404-1.245,2.404-1.245l-6.664-3.972l-0.24-1.396l-11.883-5.451
		l-0.094-2.383l-3.688-1.701l0.105-0.022C-228.927,140.057-229.266,140.408-229.266,140.505z"/>
	<g>
		<polygon fill="#6BCBBD" points="-210.638,137.577 -199.05,112.464 -210.974,107.297 -222.388,132.882 		"/>
		<path fill="#00A99D" d="M-210.638,137.577l2.741-6.354c0.914-2.115,1.841-4.227,2.785-6.33c1.881-4.209,3.73-8.432,5.662-12.617
			l0.225,0.594l-11.945-5.114l0.653-0.255l-5.763,12.768c-1.903,4.269-3.903,8.484-5.852,12.729l-0.152-0.375
			c1.951,0.802,3.89,1.635,5.83,2.46L-210.638,137.577z M-210.638,137.577l-5.935-2.199c-1.976-0.739-3.954-1.476-5.92-2.235
			l-0.27-0.104l0.117-0.271c1.857-4.283,3.661-8.592,5.564-12.854l5.65-12.816l0.2-0.455l0.455,0.199l11.899,5.221l0.416,0.185
			l-0.189,0.405c-1.934,4.188-3.945,8.334-5.928,12.496c-0.987,2.082-1.991,4.156-3.008,6.229L-210.638,137.577z"/>
	</g>
	<g>
		
			<rect x="-220.804" y="128.95" transform="matrix(0.4189 -0.908 0.908 0.4189 -244.9727 -122.4605)" fill="#32968E" width="5.277" height="2.436"/>
		
			<rect x="-218.08" y="123.05" transform="matrix(0.4189 -0.908 0.908 0.4189 -238.0326 -123.4158)" fill="#32968E" width="5.277" height="2.437"/>
		
			<rect x="-215.375" y="117.162" transform="matrix(0.4187 -0.9081 0.9081 0.4187 -231.1594 -124.3756)" fill="#32968E" width="5.28" height="2.437"/>
		
			<rect x="-212.447" y="110.89" transform="matrix(0.4189 -0.9081 0.9081 0.4189 -223.7282 -125.3665)" fill="#32968E" width="5.276" height="2.436"/>
		
			<rect x="-209.172" y="112.409" transform="matrix(0.4189 -0.908 0.908 0.4189 -223.1849 -121.5108)" fill="#32968E" width="5.276" height="2.437"/>
		
			<rect x="-212.022" y="118.682" transform="matrix(0.4189 -0.908 0.908 0.4189 -230.5439 -120.4527)" fill="#32968E" width="5.278" height="2.436"/>
		
			<rect x="-214.734" y="124.638" transform="matrix(0.4191 -0.9079 0.9079 0.4191 -237.4798 -119.4602)" fill="#32968E" width="5.277" height="2.436"/>
		
			<rect x="-217.497" y="130.444" transform="matrix(0.419 -0.908 0.908 0.419 -244.3898 -118.5897)" fill="#32968E" width="5.281" height="2.436"/>
		
			<rect x="-214.145" y="132.063" transform="matrix(0.4189 -0.908 0.908 0.4189 -243.9316 -114.6054)" fill="#32968E" width="5.276" height="2.436"/>
		
			<rect x="-211.457" y="126.114" transform="matrix(0.4188 -0.9081 0.9081 0.4188 -236.9929 -115.6164)" fill="#32968E" width="5.279" height="2.437"/>
		
			<rect x="-208.733" y="120.21" transform="matrix(0.4192 -0.9079 0.9079 0.4192 -229.9485 -116.5852)" fill="#32968E" width="5.279" height="2.435"/>
		
			<rect x="-205.857" y="113.894" transform="matrix(0.4189 -0.908 0.908 0.4189 -222.6068 -117.6381)" fill="#32968E" width="5.276" height="2.436"/>
	</g>
	<polygon fill="#6BCBBD" stroke="#00A99D" stroke-miterlimit="10" points="-228.47,177.189 -216.882,152.077 -228.806,146.91 
		-240.221,172.495 	"/>
	<g>
		
			<rect x="-238.618" y="168.555" transform="matrix(0.4189 -0.908 0.908 0.4189 -291.2874 -115.6214)" fill="#32968E" width="5.277" height="2.437"/>
		
			<rect x="-235.915" y="162.668" transform="matrix(0.4189 -0.908 0.908 0.4189 -284.3705 -116.5888)" fill="#32968E" width="5.277" height="2.436"/>
		
			<rect x="-233.185" y="156.774" transform="matrix(0.4189 -0.908 0.908 0.4189 -277.4303 -117.5343)" fill="#32968E" width="5.278" height="2.436"/>
		
			<rect x="-230.284" y="150.499" transform="matrix(0.419 -0.908 0.908 0.419 -270.032 -118.5513)" fill="#32968E" width="5.274" height="2.436"/>
		
			<rect x="-226.968" y="152.041" transform="matrix(0.419 -0.908 0.908 0.419 -269.4948 -114.6438)" fill="#32968E" width="5.279" height="2.435"/>
		
			<rect x="-229.9" y="158.28" transform="matrix(0.4191 -0.908 0.908 0.4191 -276.8452 -113.6842)" fill="#32968E" width="5.277" height="2.436"/>
		
			<rect x="-232.594" y="164.237" transform="matrix(0.419 -0.908 0.908 0.419 -283.8244 -112.6678)" fill="#32968E" width="5.28" height="2.435"/>
		
			<rect x="-235.307" y="170.095" transform="matrix(0.419 -0.908 0.908 0.419 -290.729 -111.7253)" fill="#32968E" width="5.281" height="2.436"/>
		
			<rect x="-231.978" y="171.662" transform="matrix(0.419 -0.908 0.908 0.419 -290.209 -107.7973)" fill="#32968E" width="5.274" height="2.436"/>
		
			<rect x="-229.284" y="165.718" transform="matrix(0.4189 -0.908 0.908 0.4189 -283.2851 -108.7954)" fill="#32968E" width="5.278" height="2.436"/>
		
			<rect x="-226.532" y="159.827" transform="matrix(0.4189 -0.908 0.908 0.4189 -276.3331 -109.722)" fill="#32968E" width="5.274" height="2.436"/>
		
			<rect x="-223.716" y="153.563" transform="matrix(0.4189 -0.9081 0.9081 0.4189 -269.0266 -110.8008)" fill="#32968E" width="5.276" height="2.436"/>
	</g>
</g>
</svg>
