<?xml version="1.0" encoding="utf-8"?>
<!-- Generator: Adobe Illustrator 16.0.0, SVG Export Plug-In . SVG Version: 6.00 Build 0)  -->
<!DOCTYPE svg PUBLIC "-//W3C//DTD SVG 1.1//EN" "http://www.w3.org/Graphics/SVG/1.1/DTD/svg11.dtd">
<svg version="1.1" id="Layer_1" xmlns="http://www.w3.org/2000/svg" xmlns:xlink="http://www.w3.org/1999/xlink" x="0px" y="0px"
	 width="950px" height="560px" viewBox="-270.857 -206.5 950 560" enable-background="new -270.857 -206.5 950 560"
	 xml:space="preserve">
<g>
	<g>
		<circle fill="#FBB03B" cx="-471.59" cy="-469.977" r="22.398"/>
		<path fill="#F15A24" d="M-493.989-469.978c0,0,0.03,0.549,0.09,1.578c0.006,0.518,0.101,1.146,0.228,1.881
			c0.063,0.367,0.107,0.768,0.201,1.185c0.109,0.414,0.225,0.854,0.348,1.317c0.533,1.834,1.358,4.056,2.904,6.24
			c1.51,2.188,3.596,4.432,6.364,6.154c2.756,1.725,6.139,2.938,9.801,3.235c0.455,0.058,0.92,0.026,1.383,0.045
			c0.452-0.008,0.957,0.047,1.37-0.01c0.958-0.095,1.979-0.123,2.867-0.345c1.84-0.284,3.714-0.975,5.483-1.782
			c1.781-0.834,3.42-1.992,4.939-3.289c1.497-1.338,2.812-2.89,3.934-4.586c1.08-1.725,1.899-3.604,2.522-5.552
			c0.573-1.969,0.821-4.019,0.858-6.071c-0.068-0.924-0.041-2.221-0.237-3.108c-0.099-0.972-0.376-1.97-0.624-2.963
			c-0.62-1.948-1.451-3.824-2.525-5.55c-1.117-1.693-2.434-3.248-3.934-4.582c-1.521-1.297-3.159-2.455-4.938-3.289
			c-3.554-1.699-7.417-2.375-11.132-2.09c-3.602,0.293-7.026,1.509-9.771,3.229c-2.769,1.724-4.856,3.966-6.364,6.151
			c-1.547,2.186-2.373,4.406-2.906,6.24c-0.123,0.465-0.238,0.903-0.348,1.317c-0.094,0.417-0.138,0.817-0.201,1.185
			c-0.127,0.735-0.222,1.363-0.228,1.881C-493.958-470.527-493.989-469.978-493.989-469.978z M-493.989-469.978
			c0,0,0.024-0.549,0.069-1.578c-0.002-0.519,0.084-1.147,0.203-1.887c0.06-0.369,0.098-0.771,0.188-1.188
			c0.104-0.417,0.214-0.858,0.332-1.326c0.515-1.849,1.32-4.079,2.775-6.354c1.436-2.274,3.486-4.603,6.207-6.559
			c2.747-1.922,6.131-3.413,10.042-4.018c3.78-0.551,8.097-0.17,12.087,1.465c2.014,0.805,3.9,1.971,5.686,3.326
			c1.746,1.408,3.281,3.104,4.619,4.972c1.311,1.893,2.306,4.012,3.021,6.231c0.3,1.127,0.626,2.241,0.771,3.459
			c0.097,0.599,0.192,1.205,0.203,1.733l0.094,1.722c-0.066,2.344-0.385,4.681-1.069,6.916c-0.716,2.221-1.719,4.336-3.024,6.229
			c-1.34,1.865-2.871,3.566-4.619,4.969c-1.78,1.354-3.67,2.521-5.682,3.325c-2.018,0.788-4.041,1.36-6.146,1.552
			c-1.062,0.166-2.014,0.121-2.99,0.149c-0.555,0.026-1.012-0.063-1.517-0.089c-0.491-0.053-0.982-0.059-1.461-0.148
			c-3.854-0.6-7.278-2.09-10.012-4.011c-2.722-1.956-4.774-4.28-6.209-6.556c-1.455-2.275-2.263-4.506-2.776-6.354
			c-0.117-0.467-0.228-0.91-0.332-1.326c-0.089-0.419-0.128-0.82-0.188-1.188c-0.117-0.74-0.203-1.369-0.203-1.887
			C-493.964-469.429-493.989-469.978-493.989-469.978z"/>
	</g>
	<g>
		<path fill="#F7931E" d="M-493.757-473.183c0.277-1.936,0.799-3.791,1.539-5.535c6.488,5.641,15.323,8.854,24.749,8.652
			c-0.031,0.2-0.056,0.405-0.056,0.615c0,1.982,1.606,3.592,3.59,3.592s3.591-1.609,3.591-3.592c0-0.482-0.097-0.941-0.27-1.363
			c0.402-0.08,0.807-0.164,1.211-0.257c3.478-0.795,6.729-2.021,9.711-3.596c0.322,1.512,0.496,3.08,0.496,4.688
			c0,1.58-0.166,3.118-0.479,4.604c-5.944,2.79-12.849,4.094-20.067,3.433c-1.562-0.144-3.087-0.383-4.58-0.695
			c-0.154,1.32-1.46,2.352-3.048,2.352c-1.692,0-3.063-1.169-3.063-2.611c0-0.5,0.168-0.965,0.453-1.36
			C-485.326-466.248-490.024-469.335-493.757-473.183z"/>
		<path fill="#F15A24" d="M-493.757-473.183l0.534-2.83l0.906-2.746l0.044-0.133l0.125,0.094c0.889,0.672,1.764,1.359,2.661,2.016
			l1.417,0.88c0.477,0.286,0.934,0.604,1.425,0.862l1.491,0.743c0.501,0.237,0.982,0.517,1.498,0.722l1.548,0.611
			c0.52,0.191,1.021,0.434,1.556,0.584l1.598,0.467c0.532,0.145,1.057,0.338,1.601,0.439l1.63,0.321
			c0.545,0.097,1.083,0.237,1.632,0.3l1.651,0.172c0.551,0.052,1.1,0.129,1.651,0.16l3.314,0.047l0.449,0.006l-0.036,0.473
			l-0.028,0.367c-0.006,0.042-0.01,0.163-0.018,0.142l0.021,0.206c0.028,0.276,0.053,0.567,0.145,0.758l0.104,0.324l0.18,0.32
			c0.097,0.229,0.283,0.394,0.432,0.587c0.162,0.181,0.369,0.317,0.555,0.474c0.225,0.1,0.416,0.258,0.653,0.319
			c0.233,0.065,0.459,0.165,0.707,0.164l0.362,0.037l0.363-0.035c0.303-0.009,0.51-0.095,0.719-0.164
			c0.219-0.039,0.426-0.214,0.641-0.312c0.197-0.137,0.383-0.297,0.561-0.461c0.14-0.199,0.34-0.354,0.434-0.582
			c0.117-0.211,0.238-0.422,0.29-0.66c0.091-0.229,0.118-0.467,0.133-0.709l0.019-0.18l0.008-0.046
			c0.004,0.074-0.002-0.009-0.002-0.006l-0.014-0.103l-0.042-0.413c-0.026-0.277-0.135-0.44-0.184-0.671l-0.114-0.526l0.449-0.097
			l0.701-0.151c0.248-0.056,0.451-0.089,0.688-0.158l1.404-0.375c0.465-0.129,0.944-0.234,1.387-0.4l1.354-0.459
			c0.904-0.277,1.771-0.707,2.664-1.053c0.445-0.168,0.861-0.41,1.298-0.611l1.288-0.631l0.607-0.301l0.104,0.633l0.382,2.36
			l0.12,2.388c-0.003,0.248-0.021,0.404-0.028,0.61l-0.031,0.584l-0.062,1.167c-0.115,0.793-0.247,1.59-0.373,2.385l-0.039,0.243
			l-0.229,0.091c-0.985,0.397-1.941,0.877-2.955,1.209l-1.51,0.525c-0.502,0.173-1.021,0.292-1.531,0.441
			c-0.518,0.13-1.021,0.308-1.545,0.399l-1.562,0.323c-1.04,0.223-2.104,0.312-3.153,0.478l-1.59,0.114
			c-0.529,0.034-1.059,0.091-1.591,0.079l-1.594,0.008c-0.532,0.021-1.062-0.029-1.593-0.063l-1.59-0.108l-1.575-0.202
			c-1.039-0.106-2.095-0.365-3.139-0.549l0.429-0.309c-0.064,0.232-0.083,0.486-0.198,0.699c-0.1,0.225-0.208,0.438-0.365,0.618
			c-0.281,0.39-0.673,0.666-1.074,0.897c-0.216,0.084-0.422,0.197-0.646,0.252c-0.229,0.046-0.446,0.129-0.679,0.13l-0.344,0.024
			l-0.086,0.006c-0.083-0.002-0.066-0.004-0.104-0.008l-0.157-0.015c-0.209-0.021-0.414-0.028-0.654-0.104
			c-0.233-0.057-0.462-0.125-0.663-0.235c-0.214-0.087-0.408-0.209-0.593-0.354c-0.199-0.121-0.349-0.304-0.511-0.471
			c-0.166-0.164-0.267-0.388-0.396-0.58c-0.08-0.22-0.183-0.438-0.219-0.672l-0.039-0.354c-0.002-0.066-0.02-0.098-0.009-0.194
			l0.015-0.158c0.005-0.188,0.081-0.477,0.163-0.686c0.083-0.222,0.206-0.419,0.334-0.613l0.122,0.399l-3.793-1.713
			c-0.606-0.334-1.194-0.703-1.793-1.052l-1.784-1.061c-0.293-0.185-0.558-0.411-0.838-0.614l-0.833-0.625l-1.653-1.25
			c-0.516-0.46-1.004-0.952-1.506-1.425L-493.757-473.183z M-493.757-473.183l1.551,1.369c0.519,0.453,1.025,0.918,1.552,1.359
			l1.684,1.193l0.841,0.596c0.283,0.193,0.553,0.409,0.848,0.583l1.802,0.998c0.603,0.328,1.194,0.675,1.804,0.987l3.791,1.592
			l0.294,0.123l-0.172,0.277c-0.1,0.16-0.198,0.321-0.259,0.5c-0.059,0.184-0.109,0.307-0.118,0.538l-0.012,0.158
			c-0.005,0.009,0.01,0.081,0.014,0.119l0.035,0.274c0.03,0.182,0.119,0.35,0.18,0.522c0.113,0.149,0.187,0.326,0.324,0.455
			c0.135,0.131,0.254,0.278,0.422,0.374c0.151,0.116,0.313,0.215,0.494,0.281c0.172,0.094,0.35,0.139,0.526,0.18
			c0.162,0.061,0.381,0.068,0.591,0.084l0.158,0.012c0.014,0,0.081,0.008,0.05,0.004l0.072-0.008l0.284-0.025
			c0.194,0,0.373-0.08,0.562-0.118c0.185-0.048,0.349-0.147,0.522-0.216c0.319-0.196,0.632-0.42,0.838-0.725
			c0.117-0.141,0.195-0.304,0.267-0.47c0.089-0.159,0.085-0.345,0.139-0.515l0.114-0.355l0.312,0.048
			c1.028,0.159,2.026,0.392,3.085,0.481l1.554,0.17l1.561,0.076c0.521,0.021,1.038,0.064,1.562,0.045l1.56-0.02
			c0.521,0.011,1.039-0.05,1.559-0.086l1.557-0.122c1.023-0.167,2.062-0.26,3.079-0.484l1.521-0.325
			c0.516-0.093,1.004-0.271,1.506-0.4c0.498-0.146,1.006-0.268,1.494-0.438l1.469-0.522c0.982-0.328,1.912-0.802,2.873-1.195
			l-0.267,0.336l0.341-2.239l0.108-2.31l-0.129-2.285l-0.354-2.26l0.713,0.334l-1.322,0.641c-0.444,0.203-0.872,0.447-1.332,0.619
			c-0.918,0.351-1.799,0.777-2.744,1.063l-1.404,0.465c-0.467,0.169-0.938,0.271-1.404,0.397l-1.403,0.365
			c-0.229,0.065-0.505,0.115-0.729,0.164l-0.719,0.15l0.335-0.624c0.087,0.304,0.22,0.655,0.243,0.929l0.04,0.412l0.01,0.104
			l0.006,0.097l-0.009,0.062l-0.021,0.232c-0.021,0.312-0.062,0.62-0.179,0.913c-0.073,0.306-0.225,0.579-0.379,0.849
			c-0.13,0.287-0.375,0.495-0.562,0.742c-0.227,0.211-0.465,0.415-0.723,0.588c-0.281,0.135-0.52,0.327-0.852,0.403
			c-0.317,0.104-0.637,0.192-0.896,0.196c-0.156,0.012-0.229,0.029-0.459,0.037l-0.465-0.045c-0.312-0.01-0.604-0.127-0.898-0.217
			c-0.301-0.085-0.557-0.274-0.83-0.414c-0.238-0.192-0.495-0.375-0.7-0.604c-0.188-0.243-0.417-0.462-0.544-0.748l-0.219-0.409
			c-0.062-0.148-0.104-0.309-0.149-0.464c-0.118-0.329-0.123-0.594-0.146-0.87l-0.021-0.207c0.001-0.158,0.012-0.176,0.02-0.271
			l0.047-0.459l0.412,0.479l-3.386-0.109c-0.562-0.043-1.12-0.131-1.681-0.193l-1.678-0.207c-0.561-0.074-1.104-0.227-1.657-0.334
			l-1.651-0.356c-0.551-0.115-1.08-0.32-1.619-0.479l-1.609-0.505c-0.539-0.163-1.046-0.418-1.569-0.622l-1.558-0.648
			c-0.52-0.215-1-0.517-1.5-0.771l-1.485-0.797c-0.489-0.276-0.942-0.612-1.415-0.916l-1.402-0.932
			c-0.885-0.688-1.746-1.41-2.618-2.111l0.168-0.039l-0.988,2.688L-493.757-473.183z"/>
	</g>
	<g>
		<path fill="#F7931E" d="M-489.104-460.216c-0.04,0.111-0.064,0.229-0.064,0.357c0,0.596,0.483,1.08,1.08,1.08
			c0.395,0,0.735-0.214,0.924-0.529c5.215,2.289,11.382,3.759,18.042,4.068c1.698,0.08,3.375,0.072,5.019,0.002
			c-0.164-0.396-0.254-0.828-0.254-1.281c0-1.858,1.507-3.365,3.364-3.365c1.855,0,3.363,1.507,3.363,3.365
			c0,0.207-0.021,0.412-0.059,0.607c1.441-0.242,2.849-0.537,4.206-0.894c-0.865,1.188-1.843,2.287-2.919,3.281
			c-4.344,0.95-9.104,1.353-14.064,1.09c-7.361-0.39-14.122-2.188-19.643-4.941c-1.017-1.492-1.858-3.111-2.495-4.832
			C-491.503-461.498-490.333-460.833-489.104-460.216z"/>
		<path fill="#F15A24" d="M-489.104-460.216c-0.016,0.129-0.05,0.263-0.052,0.389c0.007,0.134,0.042,0.26,0.089,0.378
			c0.107,0.236,0.304,0.429,0.538,0.527c0.116,0.048,0.239,0.082,0.366,0.083c0.107,0.012,0.261-0.024,0.377-0.053
			c0.109-0.053,0.221-0.093,0.311-0.184c0.105-0.066,0.162-0.184,0.24-0.275l0.045-0.054l0.059,0.021l2.771,0.996l1.385,0.492
			l1.425,0.365l2.848,0.73c0.963,0.178,1.93,0.331,2.894,0.497l1.447,0.246c0.479,0.103,0.973,0.099,1.458,0.149l2.924,0.23
			c0.501,0.042,0.953,0.085,1.45,0.062l1.476-0.019l2.951-0.03l-0.392,0.586c-0.078-0.28-0.201-0.555-0.231-0.846l-0.045-0.438
			l-0.011-0.108c0-0.038-0.006,0.006-0.002-0.098l0.006-0.05l0.019-0.194l0.038-0.388c0.021-0.137,0.077-0.295,0.117-0.44
			c0.072-0.312,0.216-0.567,0.359-0.823c0.123-0.271,0.352-0.47,0.523-0.704c0.213-0.198,0.438-0.396,0.684-0.557
			c0.262-0.131,0.502-0.315,0.793-0.383c0.276-0.097,0.562-0.181,0.855-0.191c0.164-0.012,0.253-0.04,0.479-0.033l0.389,0.038
			c0.24,0,0.568,0.114,0.861,0.203c0.299,0.094,0.533,0.264,0.8,0.396c0.223,0.188,0.477,0.354,0.667,0.579
			c0.188,0.229,0.396,0.443,0.52,0.716l0.211,0.391l0.139,0.423c0.106,0.278,0.117,0.578,0.147,0.872
			c0.005,0.091,0.021,0.107,0.017,0.261l-0.021,0.193l-0.034,0.389l-0.55-0.51l4.16-0.9l1.367-0.295l-0.847,1.059l-1.402,1.754
			l-1.578,1.6l-0.094,0.097l-0.137,0.022l-2.146,0.383c-0.715,0.136-1.43,0.261-2.154,0.319l-2.165,0.235
			c-0.721,0.084-1.446,0.076-2.173,0.119c-0.725,0.021-1.449,0.082-2.174,0.068l-2.176-0.052l-1.086-0.026
			c-0.403-0.021-0.729-0.07-1.099-0.104l-2.146-0.229l-2.146-0.238c-0.713-0.123-1.425-0.297-2.136-0.441l-2.132-0.458l-1.064-0.231
			l-1.031-0.334l-2.067-0.668c-0.683-0.241-1.394-0.401-2.049-0.711l-3.958-1.78l-0.053-0.023l-0.025-0.045l-1.359-2.385
			l-1.059-2.528l-0.115-0.274l0.262,0.157L-489.104-460.216z M-489.104-460.216l-3.552-1.907l0.146-0.117l1.144,2.457l1.429,2.293
			l-0.078-0.067l3.971,1.636c0.653,0.29,1.362,0.432,2.041,0.653l2.057,0.61l1.024,0.306l1.053,0.201l2.098,0.398
			c0.7,0.126,1.393,0.28,2.099,0.386l2.149,0.197l2.146,0.209c0.351,0.029,0.737,0.082,1.055,0.094l1.067,0.019l2.145,0.035
			c0.713,0.006,1.425-0.062,2.138-0.086c0.711-0.048,1.427-0.044,2.136-0.134l2.125-0.248c0.709-0.062,1.411-0.192,2.109-0.33
			l2.102-0.393l-0.229,0.119l1.501-1.538l1.354-1.669l0.521,0.764l-4.252,0.885l-0.612,0.128l0.063-0.638l0.039-0.388l0.02-0.194
			c0,0.021-0.011-0.09-0.016-0.127c-0.027-0.223-0.021-0.451-0.108-0.66l-0.096-0.319l-0.16-0.295
			c-0.087-0.211-0.252-0.369-0.39-0.547c-0.144-0.175-0.338-0.293-0.502-0.447c-0.198-0.092-0.396-0.24-0.594-0.299
			c-0.205-0.052-0.359-0.154-0.646-0.16l-0.392-0.041l-0.295,0.028c-0.229,0.003-0.44,0.069-0.654,0.142
			c-0.229,0.041-0.405,0.193-0.61,0.285c-0.188,0.123-0.358,0.275-0.526,0.424c-0.13,0.185-0.315,0.33-0.406,0.541
			c-0.111,0.197-0.229,0.396-0.271,0.597c-0.028,0.104-0.075,0.188-0.097,0.309l-0.041,0.387l-0.021,0.194l-0.005,0.048
			c0.005-0.07,0.005,0.004,0.007,0l0.012,0.084l0.029,0.34c0.021,0.227,0.12,0.436,0.172,0.656l0.139,0.592l-0.529-0.006
			l-2.951-0.031l-1.475-0.019c-0.488,0.013-1.019-0.046-1.494-0.1l-2.954-0.305c-0.49-0.062-0.988-0.071-1.471-0.188l-1.458-0.281
			c-0.973-0.19-1.943-0.37-2.91-0.571l-2.843-0.847l-1.418-0.424l-1.375-0.549l-2.743-1.108l0.103-0.033
			c-0.092,0.107-0.166,0.233-0.289,0.307c-0.104,0.095-0.246,0.144-0.38,0.191c-0.067,0.024-0.132,0.02-0.196,0.03
			c-0.06,0.007-0.141,0.02-0.209,0.004c-0.138-0.009-0.271-0.053-0.395-0.11c-0.246-0.123-0.441-0.336-0.54-0.586
			c-0.044-0.131-0.071-0.26-0.071-0.395C-489.166-459.96-489.126-460.085-489.104-460.216z"/>
	</g>
	<g>
		<path fill="#F7931E" d="M-488.971-484.103c0.979,1.111,2.087,2.153,3.302,3.117c0.291-0.783,1.039-1.348,1.926-1.348
			c1.137,0,2.059,0.923,2.059,2.062c0,0.61-0.271,1.154-0.696,1.531c4.663,2.752,10.427,4.495,16.723,4.738
			c5.617,0.217,10.906-0.786,15.438-2.696c-1.04-3.308-2.829-6.28-5.163-8.729c-2.635,0.479-5.405,0.688-8.269,0.58
			c-0.424-0.018-0.844-0.041-1.264-0.07c-0.031-1.376-1.319-2.485-2.91-2.485c-1.252,0-2.316,0.689-2.729,1.655
			c-4.004-0.901-7.654-2.422-10.764-4.411C-484.294-488.722-486.904-486.642-488.971-484.103z M-458.633-481.377
			c0-1.082,0.832-1.959,1.858-1.959s1.858,0.877,1.858,1.959c0,1.081-0.832,1.958-1.858,1.958
			C-457.802-479.419-458.633-480.296-458.633-481.377z"/>
		<g>
			<path fill="#F15A24" d="M-488.971-484.103l1.624,1.592l1.744,1.442l-0.166,0.046c0.221-0.619,0.725-1.129,1.357-1.347
				c0.16-0.041,0.32-0.095,0.488-0.101c0.168-0.027,0.351-0.002,0.492,0.009c0.148-0.004,0.329,0.075,0.493,0.116
				c0.162,0.058,0.304,0.146,0.454,0.225c0.127,0.109,0.276,0.199,0.385,0.328c0.107,0.13,0.231,0.25,0.308,0.406
				c0.184,0.285,0.277,0.625,0.308,0.966l0.014,0.128c0.001,0.09-0.006,0.092-0.008,0.144l-0.021,0.23
				c0.003,0.146-0.086,0.339-0.135,0.507c-0.13,0.333-0.337,0.607-0.583,0.855l-0.039-0.397l1.826,0.968l1.887,0.85l1.932,0.729
				l1.972,0.61l2.003,0.494c0.671,0.148,1.354,0.25,2.027,0.378c0.675,0.129,1.364,0.174,2.044,0.266
				c0.68,0.101,1.369,0.116,2.054,0.167c0.333,0.016,0.707,0.059,1.007,0.053l1.043-0.02l2.082-0.039
				c0.702,0.018,1.381-0.075,2.057-0.169l2.025-0.258c0.684-0.053,1.346-0.251,2.014-0.404l2-0.479
				c0.67-0.145,1.295-0.44,1.941-0.652l1.936-0.695l-0.278,0.603l-0.892-2.334l-1.144-2.226l-1.386-2.082l-1.614-1.913l0.423,0.137
				l-2.4,0.295l-1.201,0.146c-0.399,0.066-0.803,0.069-1.206,0.069l-2.419,0.029c-0.406,0.004-0.801,0.016-1.215,0.01l-1.193-0.071
				l-0.354-0.021l-0.058-0.4l-0.051-0.38c-0.035-0.123-0.089-0.241-0.129-0.363c-0.052-0.118-0.138-0.221-0.202-0.335
				c-0.064-0.111-0.18-0.193-0.266-0.295c-0.08-0.106-0.213-0.163-0.315-0.249c-0.103-0.09-0.229-0.138-0.354-0.198
				c-0.119-0.067-0.248-0.117-0.387-0.146c-0.133-0.034-0.263-0.089-0.4-0.089c-0.129-0.01-0.299-0.034-0.396-0.037
				c-0.15,0.013-0.328,0.01-0.462,0.035c-0.247,0.043-0.521,0.113-0.771,0.238c-0.248,0.118-0.486,0.27-0.675,0.467
				c-0.203,0.185-0.347,0.418-0.471,0.654l-0.146,0.285l-0.266-0.074l-2.839-0.8c-0.466-0.153-0.922-0.34-1.384-0.508l-1.379-0.519
				c-0.232-0.08-0.447-0.205-0.67-0.305l-0.665-0.316l-1.329-0.635c-0.433-0.23-0.848-0.496-1.271-0.746l-1.262-0.76l0.202,0.012
				l-2.157,1.14l-2.023,1.372l-1.867,1.585L-488.971-484.103z M-488.971-484.103l1.609-1.865l1.815-1.674l1.994-1.465l2.146-1.24
				l0.088-0.051l0.115,0.062l1.271,0.699c0.426,0.229,0.841,0.478,1.271,0.697l1.319,0.592l0.661,0.298
				c0.225,0.093,0.438,0.21,0.666,0.284l1.368,0.477c0.457,0.155,0.908,0.327,1.369,0.467l2.804,0.719l-0.411,0.211
				c0.155-0.33,0.349-0.646,0.605-0.896c0.246-0.266,0.547-0.469,0.864-0.63c0.312-0.164,0.653-0.269,1.029-0.335
				c0.181-0.032,0.321-0.031,0.483-0.049c0.22-0.004,0.365,0.021,0.552,0.031c0.181,0.002,0.353,0.061,0.522,0.103
				c0.176,0.036,0.346,0.094,0.506,0.177c0.164,0.076,0.332,0.141,0.476,0.254c0.146,0.112,0.312,0.191,0.433,0.333
				c0.125,0.136,0.27,0.252,0.371,0.408c0.098,0.158,0.213,0.306,0.289,0.476c0.064,0.174,0.143,0.349,0.189,0.528l0.078,0.562
				l-0.407-0.42l1.194,0.061c0.381,0.001,0.783-0.014,1.174-0.02l2.363-0.047c0.395-0.004,0.789-0.01,1.178-0.078l1.171-0.152
				l2.342-0.305l0.274-0.035l0.146,0.173l1.698,1.981l1.464,2.161l1.209,2.315l0.924,2.444l0.169,0.445l-0.445,0.157l-1.989,0.706
				c-0.671,0.214-1.317,0.512-2.007,0.656l-2.062,0.476c-0.688,0.151-1.36,0.349-2.071,0.399l-2.106,0.25
				c-0.703,0.09-1.405,0.177-2.097,0.154l-2.084,0.023l-1.043,0.011c-0.396,0.001-0.711-0.043-1.072-0.062
				c-0.699-0.06-1.403-0.074-2.098-0.192c-0.693-0.108-1.396-0.172-2.081-0.319c-0.688-0.146-1.379-0.266-2.062-0.435l-2.028-0.551
				l-1.995-0.669l-1.949-0.788l-1.896-0.908l-1.833-1.028l-0.289-0.162l0.25-0.236c0.198-0.188,0.38-0.409,0.483-0.654
				c0.033-0.132,0.114-0.216,0.121-0.387l0.03-0.23c0.003-0.026,0.015-0.104,0.01-0.09l-0.009-0.104
				c-0.015-0.275-0.078-0.559-0.225-0.799c-0.053-0.134-0.153-0.233-0.237-0.348c-0.086-0.113-0.209-0.188-0.312-0.288
				c-0.122-0.066-0.244-0.15-0.372-0.203c-0.137-0.032-0.239-0.108-0.407-0.114c-0.168-0.019-0.293-0.045-0.436-0.024
				c-0.146-0.002-0.284,0.042-0.426,0.069c-0.557,0.168-1.024,0.602-1.245,1.151l-0.058,0.144l-0.108-0.098l-1.695-1.529
				L-488.971-484.103z"/>
			<path fill="#F15A24" d="M-458.633-481.377c0,0,0.004-0.047,0.012-0.134c0.017-0.086-0.009-0.219,0.049-0.377
				c0.033-0.164,0.104-0.35,0.203-0.562c0.104-0.208,0.271-0.417,0.48-0.628c0.229-0.184,0.518-0.376,0.872-0.453
				c0.103-0.018,0.157-0.048,0.296-0.053l0.253-0.007c0.157-0.009,0.418,0.05,0.614,0.116c0.4,0.142,0.759,0.428,1.025,0.795
				c0.271,0.373,0.379,0.842,0.412,1.302c-0.037,0.295-0.021,0.362-0.108,0.657c-0.062,0.258-0.179,0.455-0.3,0.646
				c-0.271,0.368-0.625,0.657-1.026,0.798c-0.396,0.129-0.812,0.161-1.161,0.057c-0.328-0.069-0.664-0.274-0.876-0.455
				c-0.213-0.211-0.376-0.42-0.481-0.629c-0.103-0.211-0.17-0.397-0.201-0.562c-0.059-0.157-0.034-0.292-0.049-0.377
				C-458.629-481.33-458.633-481.377-458.633-481.377z M-458.633-481.377c0,0,0.01,0.046,0.02,0.134
				c0.02,0.085,0.005,0.219,0.064,0.371c0.038,0.159,0.115,0.342,0.246,0.525c0.135,0.18,0.312,0.36,0.542,0.496
				c0.257,0.121,0.479,0.207,0.795,0.188c0.292,0.012,0.567-0.114,0.81-0.257c0.234-0.159,0.414-0.394,0.552-0.638
				c0.05-0.136,0.114-0.265,0.133-0.373c0.047-0.058,0.044-0.373,0.062-0.447c0-0.572-0.271-1.131-0.744-1.46
				c-0.125-0.062-0.19-0.144-0.368-0.185l-0.246-0.06c-0.022-0.011-0.128-0.008-0.188-0.013c-0.289-0.024-0.562,0.074-0.8,0.189
				c-0.229,0.136-0.405,0.316-0.541,0.497c-0.131,0.184-0.207,0.366-0.243,0.525c-0.062,0.152-0.05,0.287-0.066,0.371
				C-458.626-481.423-458.633-481.377-458.633-481.377z"/>
		</g>
	</g>
	<circle fill="#FBB03B" cx="-471.893" cy="-458.929" r="2.209"/>
</g>
<g>
	<g>
		<circle fill="#FBB03B" cx="-142.224" cy="-144.047" r="22.398"/>
		<path fill="#F15A24" d="M-164.623-144.048c0,0,0.03,0.549,0.09,1.578c0.006,0.518,0.101,1.146,0.228,1.881
			c0.063,0.367,0.107,0.768,0.201,1.185c0.109,0.414,0.225,0.854,0.348,1.317c0.533,1.834,1.358,4.056,2.904,6.24
			c1.51,2.188,3.596,4.432,6.364,6.154c2.756,1.725,6.139,2.938,9.801,3.235c0.455,0.058,0.92,0.026,1.383,0.045
			c0.452-0.008,0.957,0.047,1.37-0.01c0.958-0.095,1.979-0.123,2.867-0.345c1.84-0.284,3.714-0.975,5.483-1.782
			c1.781-0.834,3.42-1.992,4.939-3.289c1.497-1.338,2.812-2.89,3.934-4.586c1.08-1.725,1.899-3.604,2.522-5.552
			c0.573-1.969,0.821-4.019,0.858-6.071c-0.068-0.924-0.041-2.221-0.237-3.108c-0.099-0.972-0.376-1.97-0.624-2.963
			c-0.62-1.948-1.451-3.824-2.525-5.55c-1.117-1.693-2.434-3.248-3.934-4.582c-1.521-1.297-3.159-2.455-4.938-3.289
			c-3.554-1.699-7.417-2.375-11.132-2.09c-3.602,0.293-7.026,1.509-9.771,3.229c-2.769,1.724-4.856,3.966-6.364,6.151
			c-1.547,2.186-2.373,4.406-2.906,6.24c-0.123,0.465-0.238,0.903-0.348,1.317c-0.094,0.417-0.138,0.817-0.201,1.185
			c-0.127,0.735-0.222,1.363-0.228,1.881C-164.592-144.597-164.623-144.048-164.623-144.048z M-164.623-144.048
			c0,0,0.024-0.549,0.069-1.578c-0.002-0.519,0.084-1.147,0.203-1.887c0.06-0.369,0.098-0.771,0.188-1.188
			c0.104-0.417,0.214-0.858,0.332-1.326c0.515-1.849,1.32-4.079,2.775-6.354c1.436-2.274,3.486-4.603,6.207-6.559
			c2.747-1.922,6.131-3.413,10.042-4.018c3.78-0.551,8.097-0.17,12.087,1.465c2.014,0.805,3.9,1.971,5.686,3.326
			c1.746,1.408,3.281,3.104,4.619,4.972c1.311,1.893,2.306,4.012,3.021,6.231c0.3,1.127,0.626,2.241,0.771,3.459
			c0.097,0.599,0.192,1.205,0.203,1.733l0.094,1.722c-0.066,2.344-0.385,4.681-1.069,6.916c-0.716,2.221-1.719,4.336-3.024,6.229
			c-1.34,1.865-2.871,3.566-4.619,4.969c-1.78,1.354-3.67,2.521-5.682,3.325c-2.018,0.788-4.041,1.36-6.146,1.552
			c-1.062,0.166-2.014,0.121-2.99,0.149c-0.555,0.026-1.012-0.063-1.517-0.089c-0.491-0.053-0.982-0.059-1.461-0.148
			c-3.854-0.6-7.278-2.09-10.012-4.011c-2.722-1.956-4.774-4.28-6.209-6.556c-1.455-2.275-2.263-4.506-2.776-6.354
			c-0.117-0.467-0.228-0.91-0.332-1.326c-0.089-0.419-0.128-0.82-0.188-1.188c-0.117-0.74-0.203-1.369-0.203-1.887
			C-164.598-143.499-164.623-144.048-164.623-144.048z"/>
	</g>
	<g>
		<path fill="#F7931E" d="M-164.391-147.253c0.277-1.936,0.799-3.791,1.539-5.535c6.488,5.641,15.323,8.854,24.749,8.652
			c-0.031,0.2-0.056,0.405-0.056,0.615c0,1.982,1.606,3.592,3.59,3.592s3.591-1.609,3.591-3.592c0-0.482-0.097-0.941-0.27-1.363
			c0.402-0.08,0.807-0.164,1.211-0.257c3.478-0.795,6.729-2.021,9.711-3.596c0.322,1.512,0.496,3.08,0.496,4.688
			c0,1.58-0.166,3.118-0.479,4.604c-5.944,2.79-12.849,4.094-20.067,3.433c-1.562-0.144-3.087-0.383-4.58-0.695
			c-0.154,1.32-1.46,2.352-3.048,2.352c-1.692,0-3.063-1.169-3.063-2.611c0-0.5,0.168-0.965,0.453-1.36
			C-155.96-140.318-160.658-143.405-164.391-147.253z"/>
		<path fill="#F15A24" d="M-164.391-147.253l0.534-2.83l0.906-2.746l0.044-0.133l0.125,0.094c0.889,0.672,1.764,1.359,2.661,2.016
			l1.417,0.88c0.477,0.286,0.934,0.604,1.425,0.862l1.491,0.743c0.501,0.237,0.982,0.517,1.498,0.722l1.548,0.611
			c0.52,0.191,1.021,0.434,1.556,0.584l1.598,0.467c0.532,0.145,1.057,0.338,1.601,0.439l1.63,0.321
			c0.545,0.097,1.083,0.237,1.632,0.3l1.651,0.172c0.551,0.052,1.1,0.129,1.651,0.16l3.314,0.047l0.449,0.006l-0.036,0.473
			l-0.028,0.367c-0.006,0.042-0.01,0.163-0.018,0.142l0.021,0.206c0.028,0.276,0.053,0.567,0.145,0.758l0.104,0.324l0.18,0.32
			c0.097,0.229,0.283,0.394,0.432,0.587c0.162,0.181,0.369,0.317,0.555,0.474c0.225,0.1,0.416,0.258,0.653,0.319
			c0.233,0.065,0.459,0.165,0.707,0.164l0.362,0.037l0.363-0.035c0.303-0.009,0.51-0.095,0.719-0.164
			c0.219-0.039,0.426-0.214,0.641-0.312c0.197-0.137,0.383-0.297,0.561-0.461c0.14-0.199,0.34-0.354,0.434-0.582
			c0.117-0.211,0.238-0.422,0.29-0.66c0.091-0.229,0.118-0.467,0.133-0.709l0.019-0.18l0.008-0.046
			c0.004,0.074-0.002-0.009-0.002-0.006l-0.014-0.103l-0.042-0.413c-0.026-0.277-0.135-0.44-0.184-0.671l-0.114-0.526l0.449-0.097
			l0.701-0.151c0.248-0.056,0.451-0.089,0.688-0.158l1.404-0.375c0.465-0.129,0.944-0.234,1.387-0.4l1.354-0.459
			c0.904-0.277,1.771-0.707,2.664-1.053c0.445-0.168,0.861-0.41,1.298-0.611l1.288-0.631l0.607-0.301l0.104,0.633l0.382,2.36
			l0.12,2.388c-0.003,0.248-0.021,0.404-0.028,0.61l-0.031,0.584l-0.062,1.167c-0.115,0.793-0.247,1.59-0.373,2.385l-0.039,0.243
			l-0.229,0.091c-0.985,0.397-1.941,0.877-2.955,1.209l-1.51,0.525c-0.502,0.173-1.021,0.292-1.531,0.441
			c-0.518,0.13-1.021,0.308-1.545,0.399l-1.562,0.323c-1.04,0.223-2.104,0.312-3.153,0.478l-1.59,0.114
			c-0.529,0.034-1.059,0.091-1.591,0.079l-1.594,0.008c-0.532,0.021-1.062-0.029-1.593-0.063l-1.59-0.108l-1.575-0.202
			c-1.039-0.106-2.095-0.365-3.139-0.549l0.429-0.309c-0.064,0.232-0.083,0.486-0.198,0.699c-0.1,0.225-0.208,0.438-0.365,0.618
			c-0.281,0.39-0.673,0.666-1.074,0.897c-0.216,0.084-0.422,0.197-0.646,0.252c-0.229,0.046-0.446,0.129-0.679,0.13l-0.344,0.024
			l-0.086,0.006c-0.083-0.002-0.066-0.004-0.104-0.008l-0.157-0.015c-0.209-0.021-0.414-0.028-0.654-0.104
			c-0.233-0.057-0.462-0.125-0.663-0.235c-0.214-0.087-0.408-0.209-0.593-0.354c-0.199-0.121-0.349-0.304-0.511-0.471
			c-0.166-0.164-0.267-0.388-0.396-0.58c-0.08-0.22-0.183-0.438-0.219-0.672l-0.039-0.354c-0.002-0.066-0.02-0.098-0.009-0.194
			l0.015-0.158c0.005-0.188,0.081-0.477,0.163-0.686c0.083-0.222,0.206-0.419,0.334-0.613l0.122,0.399l-3.793-1.713
			c-0.606-0.334-1.194-0.703-1.793-1.052l-1.784-1.061c-0.293-0.185-0.558-0.411-0.838-0.614l-0.833-0.625l-1.653-1.25
			c-0.516-0.46-1.004-0.952-1.506-1.425L-164.391-147.253z M-164.391-147.253l1.551,1.369c0.519,0.453,1.025,0.918,1.552,1.359
			l1.684,1.193l0.841,0.596c0.283,0.193,0.553,0.409,0.848,0.583l1.802,0.998c0.603,0.328,1.194,0.675,1.804,0.987l3.791,1.592
			l0.294,0.123l-0.172,0.277c-0.1,0.16-0.198,0.321-0.259,0.5c-0.059,0.184-0.109,0.307-0.118,0.538l-0.012,0.158
			c-0.005,0.009,0.01,0.081,0.014,0.119l0.035,0.274c0.03,0.182,0.119,0.35,0.18,0.522c0.113,0.149,0.187,0.326,0.324,0.455
			c0.135,0.131,0.254,0.278,0.422,0.374c0.151,0.116,0.313,0.215,0.494,0.281c0.172,0.094,0.35,0.139,0.526,0.18
			c0.162,0.061,0.381,0.068,0.591,0.084l0.158,0.012c0.014,0,0.081,0.008,0.05,0.004l0.072-0.008l0.284-0.025
			c0.194,0,0.373-0.08,0.562-0.118c0.185-0.048,0.349-0.147,0.522-0.216c0.319-0.196,0.632-0.42,0.838-0.725
			c0.117-0.141,0.195-0.304,0.267-0.47c0.089-0.159,0.085-0.345,0.139-0.515l0.114-0.355l0.312,0.048
			c1.028,0.159,2.026,0.392,3.085,0.481l1.554,0.17l1.561,0.076c0.521,0.021,1.038,0.064,1.562,0.045l1.56-0.02
			c0.521,0.011,1.039-0.05,1.559-0.086l1.557-0.122c1.023-0.167,2.062-0.26,3.079-0.484l1.521-0.325
			c0.516-0.093,1.004-0.271,1.506-0.4c0.498-0.146,1.006-0.268,1.494-0.438l1.469-0.522c0.982-0.328,1.912-0.802,2.873-1.195
			l-0.267,0.336l0.341-2.239l0.108-2.31l-0.129-2.285l-0.354-2.26l0.713,0.334l-1.322,0.641c-0.444,0.203-0.872,0.447-1.332,0.619
			c-0.918,0.351-1.799,0.777-2.744,1.063l-1.404,0.465c-0.467,0.169-0.938,0.271-1.404,0.397l-1.403,0.365
			c-0.229,0.065-0.505,0.115-0.729,0.164l-0.719,0.15l0.335-0.624c0.087,0.304,0.22,0.655,0.243,0.929l0.04,0.412l0.01,0.104
			l0.006,0.097l-0.009,0.062l-0.021,0.232c-0.021,0.312-0.062,0.62-0.179,0.913c-0.073,0.306-0.225,0.579-0.379,0.849
			c-0.13,0.287-0.375,0.495-0.562,0.742c-0.227,0.211-0.465,0.415-0.723,0.588c-0.281,0.135-0.52,0.327-0.852,0.403
			c-0.317,0.104-0.637,0.192-0.896,0.196c-0.156,0.012-0.229,0.029-0.459,0.037l-0.465-0.045c-0.312-0.01-0.604-0.127-0.898-0.217
			c-0.301-0.085-0.557-0.274-0.83-0.414c-0.238-0.192-0.495-0.375-0.7-0.604c-0.188-0.243-0.417-0.462-0.544-0.748l-0.219-0.409
			c-0.062-0.148-0.104-0.309-0.149-0.464c-0.118-0.329-0.123-0.594-0.146-0.87l-0.021-0.207c0.001-0.158,0.012-0.176,0.02-0.271
			l0.047-0.459l0.412,0.479l-3.386-0.109c-0.562-0.043-1.12-0.131-1.681-0.193l-1.678-0.207c-0.561-0.074-1.104-0.227-1.657-0.334
			l-1.651-0.356c-0.551-0.115-1.08-0.32-1.619-0.479l-1.609-0.505c-0.539-0.163-1.046-0.418-1.569-0.622l-1.558-0.648
			c-0.52-0.215-1-0.517-1.5-0.771l-1.485-0.797c-0.489-0.276-0.942-0.612-1.415-0.916l-1.402-0.932
			c-0.885-0.688-1.746-1.41-2.618-2.111l0.168-0.039l-0.988,2.688L-164.391-147.253z"/>
	</g>
	<g>
		<path fill="#F7931E" d="M-159.737-134.286c-0.04,0.111-0.064,0.229-0.064,0.357c0,0.596,0.483,1.08,1.08,1.08
			c0.395,0,0.735-0.214,0.924-0.529c5.215,2.289,11.382,3.759,18.042,4.068c1.698,0.08,3.375,0.072,5.019,0.002
			c-0.164-0.396-0.254-0.828-0.254-1.281c0-1.858,1.507-3.365,3.364-3.365c1.855,0,3.363,1.507,3.363,3.365
			c0,0.207-0.021,0.412-0.059,0.607c1.441-0.242,2.849-0.537,4.206-0.894c-0.865,1.188-1.843,2.287-2.919,3.281
			c-4.344,0.95-9.104,1.353-14.064,1.09c-7.361-0.39-14.122-2.188-19.643-4.941c-1.017-1.492-1.858-3.111-2.495-4.832
			C-162.137-135.568-160.967-134.903-159.737-134.286z"/>
		<path fill="#F15A24" d="M-159.737-134.286c-0.016,0.129-0.05,0.263-0.052,0.389c0.007,0.134,0.042,0.26,0.089,0.378
			c0.107,0.236,0.304,0.429,0.538,0.527c0.116,0.048,0.239,0.082,0.366,0.083c0.107,0.012,0.261-0.024,0.377-0.053
			c0.109-0.053,0.221-0.093,0.311-0.184c0.105-0.066,0.162-0.184,0.24-0.275l0.045-0.054l0.059,0.021l2.771,0.996l1.385,0.492
			l1.425,0.365l2.848,0.73c0.963,0.178,1.93,0.331,2.894,0.497l1.447,0.246c0.479,0.103,0.973,0.099,1.458,0.149l2.924,0.23
			c0.501,0.042,0.953,0.085,1.45,0.062l1.476-0.019l2.951-0.03l-0.392,0.586c-0.078-0.28-0.201-0.555-0.231-0.846l-0.045-0.438
			l-0.011-0.108c0-0.038-0.006,0.006-0.002-0.098l0.006-0.05l0.019-0.194l0.038-0.388c0.021-0.137,0.077-0.295,0.117-0.44
			c0.072-0.312,0.216-0.567,0.359-0.823c0.123-0.271,0.352-0.47,0.523-0.704c0.213-0.198,0.438-0.396,0.684-0.557
			c0.262-0.131,0.502-0.315,0.793-0.383c0.276-0.097,0.562-0.181,0.855-0.191c0.164-0.012,0.253-0.04,0.479-0.033l0.389,0.038
			c0.24,0,0.568,0.114,0.861,0.203c0.299,0.094,0.533,0.264,0.8,0.396c0.223,0.188,0.477,0.354,0.667,0.579
			c0.188,0.229,0.396,0.443,0.52,0.716l0.211,0.391l0.139,0.423c0.106,0.278,0.117,0.578,0.147,0.872
			c0.005,0.091,0.021,0.107,0.017,0.261l-0.021,0.193l-0.034,0.389l-0.55-0.51l4.16-0.9l1.367-0.295l-0.847,1.059l-1.402,1.754
			l-1.578,1.6l-0.094,0.097l-0.137,0.022l-2.146,0.383c-0.715,0.136-1.43,0.261-2.154,0.319l-2.165,0.235
			c-0.721,0.084-1.446,0.076-2.173,0.119c-0.725,0.021-1.449,0.082-2.174,0.068l-2.176-0.052l-1.086-0.026
			c-0.403-0.021-0.729-0.07-1.099-0.104l-2.146-0.229l-2.146-0.238c-0.713-0.123-1.425-0.297-2.136-0.441l-2.132-0.458l-1.064-0.231
			l-1.031-0.334l-2.067-0.668c-0.683-0.241-1.394-0.401-2.049-0.711l-3.958-1.78l-0.053-0.023l-0.025-0.045l-1.359-2.385
			l-1.059-2.528l-0.115-0.274l0.262,0.157L-159.737-134.286z M-159.737-134.286l-3.552-1.907l0.146-0.117l1.144,2.457l1.429,2.293
			l-0.078-0.067l3.971,1.636c0.653,0.29,1.362,0.432,2.041,0.653l2.057,0.61l1.024,0.306l1.053,0.201l2.098,0.398
			c0.7,0.126,1.393,0.28,2.099,0.386l2.149,0.197l2.146,0.209c0.351,0.029,0.737,0.082,1.055,0.094l1.067,0.019l2.145,0.035
			c0.713,0.006,1.425-0.062,2.138-0.086c0.711-0.048,1.427-0.044,2.136-0.134l2.125-0.248c0.709-0.062,1.411-0.192,2.109-0.33
			l2.102-0.393l-0.229,0.119l1.501-1.538l1.354-1.669l0.521,0.764l-4.252,0.885l-0.612,0.128l0.063-0.638l0.039-0.388l0.02-0.194
			c0,0.021-0.011-0.09-0.016-0.127c-0.027-0.223-0.021-0.451-0.108-0.66l-0.096-0.319l-0.16-0.295
			c-0.087-0.211-0.252-0.369-0.39-0.547c-0.144-0.175-0.338-0.293-0.502-0.447c-0.198-0.092-0.396-0.24-0.594-0.299
			c-0.205-0.052-0.359-0.154-0.646-0.16l-0.392-0.041l-0.295,0.028c-0.229,0.003-0.44,0.069-0.654,0.142
			c-0.229,0.041-0.405,0.193-0.61,0.285c-0.188,0.123-0.358,0.275-0.526,0.424c-0.13,0.185-0.315,0.33-0.406,0.541
			c-0.111,0.197-0.229,0.396-0.271,0.597c-0.028,0.104-0.075,0.188-0.097,0.309l-0.041,0.387l-0.021,0.194l-0.005,0.048
			c0.005-0.07,0.005,0.004,0.007,0l0.012,0.084l0.029,0.34c0.021,0.227,0.12,0.436,0.172,0.656l0.139,0.592l-0.529-0.006
			l-2.951-0.031l-1.475-0.019c-0.488,0.013-1.019-0.046-1.494-0.1l-2.954-0.305c-0.49-0.062-0.988-0.071-1.471-0.188l-1.458-0.281
			c-0.973-0.19-1.943-0.37-2.91-0.571l-2.843-0.847l-1.418-0.424l-1.375-0.549l-2.743-1.108l0.103-0.033
			c-0.092,0.107-0.166,0.233-0.289,0.307c-0.104,0.095-0.246,0.144-0.38,0.191c-0.067,0.024-0.132,0.02-0.196,0.03
			c-0.06,0.007-0.141,0.02-0.209,0.004c-0.138-0.009-0.271-0.053-0.395-0.11c-0.246-0.123-0.441-0.336-0.54-0.586
			c-0.044-0.131-0.071-0.26-0.071-0.395C-159.799-134.03-159.76-134.155-159.737-134.286z"/>
	</g>
	<g>
		<path fill="#F7931E" d="M-159.605-158.173c0.979,1.111,2.087,2.153,3.302,3.117c0.291-0.783,1.039-1.348,1.926-1.348
			c1.137,0,2.059,0.923,2.059,2.062c0,0.61-0.271,1.154-0.696,1.531c4.663,2.752,10.427,4.495,16.723,4.738
			c5.617,0.217,10.906-0.786,15.438-2.696c-1.04-3.308-2.829-6.28-5.163-8.729c-2.635,0.479-5.405,0.688-8.269,0.58
			c-0.424-0.018-0.844-0.041-1.264-0.07c-0.031-1.376-1.319-2.485-2.91-2.485c-1.252,0-2.316,0.689-2.729,1.655
			c-4.004-0.901-7.654-2.422-10.764-4.411C-154.928-162.792-157.538-160.712-159.605-158.173z M-129.267-155.447
			c0-1.082,0.832-1.959,1.858-1.959s1.858,0.877,1.858,1.959c0,1.081-0.832,1.958-1.858,1.958
			C-128.436-153.489-129.267-154.366-129.267-155.447z"/>
		<g>
			<path fill="#F15A24" d="M-159.605-158.173l1.624,1.592l1.744,1.442l-0.166,0.046c0.221-0.619,0.725-1.129,1.357-1.347
				c0.16-0.041,0.32-0.095,0.488-0.101c0.168-0.027,0.351-0.002,0.492,0.009c0.148-0.004,0.329,0.075,0.493,0.116
				c0.162,0.058,0.304,0.146,0.454,0.225c0.127,0.109,0.276,0.199,0.385,0.328c0.107,0.13,0.231,0.25,0.308,0.406
				c0.184,0.285,0.277,0.625,0.308,0.966l0.014,0.128c0.001,0.09-0.006,0.092-0.008,0.144l-0.021,0.23
				c0.003,0.146-0.086,0.339-0.135,0.507c-0.13,0.333-0.337,0.607-0.583,0.855l-0.039-0.397l1.826,0.968l1.887,0.85l1.932,0.729
				l1.972,0.61l2.003,0.494c0.671,0.148,1.354,0.25,2.027,0.378c0.675,0.129,1.364,0.174,2.044,0.266
				c0.68,0.101,1.369,0.116,2.054,0.167c0.333,0.016,0.707,0.059,1.007,0.053l1.043-0.02l2.082-0.039
				c0.702,0.018,1.381-0.075,2.057-0.169l2.025-0.258c0.684-0.053,1.346-0.251,2.014-0.404l2-0.479
				c0.67-0.145,1.295-0.44,1.941-0.652l1.936-0.695l-0.278,0.603l-0.892-2.334l-1.144-2.226l-1.386-2.082l-1.614-1.913l0.423,0.137
				l-2.4,0.295l-1.201,0.146c-0.399,0.066-0.803,0.069-1.206,0.069l-2.419,0.029c-0.406,0.004-0.801,0.016-1.215,0.01l-1.193-0.071
				l-0.354-0.021l-0.058-0.4l-0.051-0.38c-0.035-0.123-0.089-0.241-0.129-0.363c-0.052-0.118-0.138-0.221-0.202-0.335
				c-0.064-0.111-0.18-0.193-0.266-0.295c-0.08-0.106-0.213-0.163-0.315-0.249c-0.103-0.09-0.229-0.138-0.354-0.198
				c-0.119-0.067-0.248-0.117-0.387-0.146c-0.133-0.034-0.263-0.089-0.4-0.089c-0.129-0.01-0.299-0.034-0.396-0.037
				c-0.15,0.013-0.328,0.01-0.462,0.035c-0.247,0.043-0.521,0.113-0.771,0.238c-0.248,0.118-0.486,0.27-0.675,0.467
				c-0.203,0.185-0.347,0.418-0.471,0.654l-0.146,0.285l-0.266-0.074l-2.839-0.8c-0.466-0.153-0.922-0.34-1.384-0.508l-1.379-0.519
				c-0.232-0.08-0.447-0.205-0.67-0.305l-0.665-0.316l-1.329-0.635c-0.433-0.23-0.848-0.496-1.271-0.746l-1.262-0.76l0.202,0.012
				l-2.157,1.14l-2.023,1.372l-1.867,1.585L-159.605-158.173z M-159.605-158.173l1.609-1.865l1.815-1.674l1.994-1.465l2.146-1.24
				l0.088-0.051l0.115,0.062l1.271,0.699c0.426,0.229,0.841,0.478,1.271,0.697l1.319,0.592l0.661,0.298
				c0.225,0.093,0.438,0.21,0.666,0.284l1.368,0.477c0.457,0.155,0.908,0.327,1.369,0.467l2.804,0.719l-0.411,0.211
				c0.155-0.33,0.349-0.646,0.605-0.896c0.246-0.266,0.547-0.469,0.864-0.63c0.312-0.164,0.653-0.269,1.029-0.335
				c0.181-0.032,0.321-0.031,0.483-0.049c0.22-0.004,0.365,0.021,0.552,0.031c0.181,0.002,0.353,0.061,0.522,0.103
				c0.176,0.036,0.346,0.094,0.506,0.177c0.164,0.076,0.332,0.141,0.476,0.254c0.146,0.112,0.312,0.191,0.433,0.333
				c0.125,0.136,0.27,0.252,0.371,0.408c0.098,0.158,0.213,0.306,0.289,0.476c0.064,0.174,0.143,0.349,0.189,0.528l0.078,0.562
				l-0.407-0.42l1.194,0.061c0.381,0.001,0.783-0.014,1.174-0.02l2.363-0.047c0.395-0.004,0.789-0.01,1.178-0.078l1.171-0.152
				l2.342-0.305l0.274-0.035l0.146,0.173l1.698,1.981l1.464,2.161l1.209,2.315l0.924,2.444l0.169,0.445l-0.445,0.157l-1.989,0.706
				c-0.671,0.214-1.317,0.512-2.007,0.656l-2.062,0.476c-0.688,0.151-1.36,0.349-2.071,0.399l-2.106,0.25
				c-0.703,0.09-1.405,0.177-2.097,0.154l-2.084,0.023l-1.043,0.011c-0.396,0.001-0.711-0.043-1.072-0.062
				c-0.699-0.06-1.403-0.074-2.098-0.192c-0.693-0.108-1.396-0.172-2.081-0.319c-0.688-0.146-1.379-0.266-2.062-0.435l-2.028-0.551
				l-1.995-0.669l-1.949-0.788l-1.896-0.908l-1.833-1.028l-0.289-0.162l0.25-0.236c0.198-0.188,0.38-0.409,0.483-0.654
				c0.033-0.132,0.114-0.216,0.121-0.387l0.03-0.23c0.003-0.026,0.015-0.104,0.01-0.09l-0.009-0.104
				c-0.015-0.275-0.078-0.559-0.225-0.799c-0.053-0.134-0.153-0.233-0.237-0.348c-0.086-0.113-0.209-0.188-0.312-0.288
				c-0.122-0.066-0.244-0.15-0.372-0.203c-0.137-0.032-0.239-0.108-0.407-0.114c-0.168-0.019-0.293-0.045-0.436-0.024
				c-0.146-0.002-0.284,0.042-0.426,0.069c-0.557,0.168-1.024,0.602-1.245,1.151l-0.058,0.144l-0.108-0.098l-1.695-1.529
				L-159.605-158.173z"/>
			<path fill="#F15A24" d="M-129.267-155.447c0,0,0.004-0.047,0.012-0.134c0.017-0.086-0.009-0.219,0.049-0.377
				c0.033-0.164,0.104-0.35,0.203-0.562c0.104-0.208,0.271-0.417,0.48-0.628c0.229-0.184,0.518-0.376,0.872-0.453
				c0.103-0.018,0.157-0.048,0.296-0.053l0.253-0.007c0.157-0.009,0.418,0.05,0.614,0.116c0.4,0.142,0.759,0.428,1.025,0.795
				c0.271,0.373,0.379,0.842,0.412,1.302c-0.037,0.295-0.021,0.362-0.108,0.657c-0.062,0.258-0.179,0.455-0.3,0.646
				c-0.271,0.368-0.625,0.657-1.026,0.798c-0.396,0.129-0.812,0.161-1.161,0.057c-0.328-0.069-0.664-0.274-0.876-0.455
				c-0.213-0.211-0.376-0.42-0.481-0.629c-0.103-0.211-0.17-0.397-0.201-0.562c-0.059-0.157-0.034-0.292-0.049-0.377
				C-129.263-155.4-129.267-155.447-129.267-155.447z M-129.267-155.447c0,0,0.01,0.046,0.02,0.134
				c0.02,0.085,0.005,0.219,0.064,0.371c0.038,0.159,0.115,0.342,0.246,0.525c0.135,0.18,0.312,0.36,0.542,0.496
				c0.257,0.121,0.479,0.207,0.795,0.188c0.292,0.012,0.567-0.114,0.81-0.257c0.234-0.159,0.414-0.394,0.552-0.638
				c0.05-0.136,0.114-0.265,0.133-0.373c0.047-0.058,0.044-0.373,0.062-0.447c0-0.572-0.271-1.131-0.744-1.46
				c-0.125-0.062-0.19-0.144-0.368-0.185l-0.246-0.06c-0.022-0.011-0.128-0.008-0.188-0.013c-0.289-0.024-0.562,0.074-0.8,0.189
				c-0.229,0.136-0.405,0.316-0.541,0.497c-0.131,0.184-0.207,0.366-0.243,0.525c-0.062,0.152-0.05,0.287-0.066,0.371
				C-129.26-155.493-129.267-155.447-129.267-155.447z"/>
		</g>
	</g>
	<circle fill="#FBB03B" cx="-142.526" cy="-132.999" r="2.209"/>
</g>
</svg>
