<?xml version="1.0" encoding="utf-8"?>
<!-- Generator: Adobe Illustrator 16.0.0, SVG Export Plug-In . SVG Version: 6.00 Build 0)  -->
<!DOCTYPE svg PUBLIC "-//W3C//DTD SVG 1.1//EN" "http://www.w3.org/Graphics/SVG/1.1/DTD/svg11.dtd">
<svg version="1.1" id="Layer_1" xmlns="http://www.w3.org/2000/svg" xmlns:xlink="http://www.w3.org/1999/xlink" x="0px" y="0px"
	 width="950px" height="560px" viewBox="-270.857 -206.5 950 560" enable-background="new -270.857 -206.5 950 560"
	 xml:space="preserve">
<g>
	<g>
		<g>
			<circle fill="#6BCBBD" cx="474.36" cy="246.061" r="96.439"/>
			<g>
				<path fill="#2E8979" d="M377.926,245.051c0,0,0.011,0.593,0.029,1.735c0.042,1.146-0.015,2.854,0.175,5.064
					c0.25,4.421,0.912,10.941,3.07,18.943c1.009,4.019,2.548,8.348,4.468,12.948c1.932,4.601,4.444,9.4,7.566,14.241
					c6.231,9.664,15.072,19.563,26.837,27.515c5.873,3.959,12.433,7.439,19.549,10.183c7.118,2.76,14.836,4.636,22.87,5.622
					c1.001,0.157,2.019,0.217,3.032,0.303c1.019,0.077,2.034,0.162,3.06,0.243c1.022,0.03,2.055,0.062,3.085,0.093l1.551,0.048
					l1.549-0.023c1.043-0.02,2.091-0.038,3.141-0.061c1.05-0.034,2.083-0.137,3.133-0.201c2.092-0.1,4.187-0.41,6.292-0.655
					c4.195-0.636,8.423-1.434,12.583-2.655c2.101-0.531,4.145-1.287,6.223-1.957c1.024-0.376,2.039-0.787,3.066-1.177l1.534-0.598
					l1.509-0.671c16.155-7.021,30.811-18.95,41.17-34.263c2.607-3.813,4.876-7.867,6.931-12.034
					c2.043-4.176,3.697-8.546,5.128-12.987c1.412-4.453,2.407-9.036,3.176-13.651c0.723-4.618,1.051-9.339,1.151-13.97
					c-0.011-4.77-0.234-9.384-0.862-14.041c-0.675-4.628-1.571-9.231-2.889-13.714c-1.338-4.472-2.9-8.873-4.855-13.093
					c-1.968-4.208-4.148-8.307-6.677-12.173c-10.033-15.526-24.442-27.752-40.446-35.115l-1.494-0.703l-1.52-0.629
					c-1.017-0.413-2.022-0.846-3.041-1.241c-2.063-0.715-4.091-1.512-6.18-2.088c-4.133-1.311-8.34-2.191-12.524-2.918
					c-2.101-0.29-4.185-0.642-6.285-0.787c-1.046-0.087-2.088-0.211-3.13-0.265c-1.044-0.04-2.084-0.085-3.121-0.129l-1.543-0.057
					l-1.558,0.017c-1.037,0.011-2.071,0.02-3.104,0.03c-1.021,0.056-2.041,0.119-3.055,0.177c-1.016,0.062-2.028,0.104-3.033,0.238
					c-8.053,0.821-15.808,2.533-22.98,5.143c-7.174,2.593-13.804,5.934-19.759,9.771c-11.928,7.704-20.976,17.415-27.407,26.943
					c-3.223,4.779-5.834,9.521-7.862,14.08c-2.017,4.56-3.645,8.858-4.738,12.854c-2.322,7.954-3.124,14.46-3.466,18.875
					c-0.239,2.206-0.218,3.912-0.281,5.058C377.948,244.46,377.926,245.051,377.926,245.051z M377.926,245.051
					c0,0,0.021-0.593,0.06-1.737c0.062-1.146,0.033-2.852,0.264-5.06c0.322-4.417,1.096-10.927,3.391-18.901
					c1.079-4.003,2.692-8.314,4.697-12.89c2.011-4.574,4.612-9.336,7.823-14.137c6.405-9.589,15.462-19.315,27.342-27.195
					c5.944-3.917,12.575-7.342,19.775-10.024c7.195-2.694,14.996-4.501,23.12-5.408c1.011-0.145,2.039-0.198,3.065-0.273
					c1.027-0.069,2.062-0.138,3.099-0.209c1.027-0.017,2.062-0.039,3.102-0.062l1.56-0.031c0.548,0.002,1.054,0.031,1.584,0.043
					c1.049,0.03,2.1,0.064,3.152,0.093c1.058,0.047,2.108,0.163,3.167,0.238c2.123,0.128,4.234,0.463,6.365,0.735
					c4.238,0.69,8.511,1.544,12.709,2.828c2.123,0.565,4.185,1.351,6.285,2.058c1.036,0.39,2.061,0.818,3.096,1.224l1.551,0.624
					l1.522,0.698c8.162,3.651,15.925,8.562,22.962,14.506c3.528,2.967,6.788,6.274,9.902,9.741
					c3.095,3.487,5.894,7.255,8.493,11.172c2.592,3.926,4.829,8.097,6.852,12.38c2.009,4.292,3.621,8.776,5.002,13.33
					c1.361,4.567,2.3,9.255,3.001,13.981c0.655,4.718,0.916,9.572,0.928,14.274c-0.12,4.831-0.475,9.571-1.23,14.3
					c-0.802,4.709-1.835,9.378-3.292,13.912c-1.476,4.525-3.181,8.973-5.279,13.225c-2.11,4.238-4.439,8.36-7.108,12.233
					c-2.685,3.862-5.559,7.568-8.726,10.991c-3.184,3.398-6.51,6.643-10.105,9.527c-7.162,5.797-15.022,10.541-23.259,14.023
					l-1.536,0.667l-1.562,0.589c-1.044,0.386-2.077,0.793-3.121,1.161c-2.111,0.665-4.192,1.405-6.326,1.924
					c-4.225,1.198-8.514,1.962-12.765,2.564c-2.137,0.228-4.251,0.516-6.385,0.601c-1.062,0.054-2.125,0.15-3.177,0.172
					c-1.05,0.009-2.096,0.021-3.141,0.028c-0.527,0.002-1.029,0.019-1.576,0.009l-1.564-0.063c-1.042-0.042-2.079-0.084-3.112-0.128
					c-1.031-0.093-2.061-0.184-3.086-0.274c-1.022-0.097-2.049-0.168-3.059-0.335c-8.099-1.077-15.861-3.045-22.997-5.89
					c-7.144-2.835-13.703-6.396-19.562-10.434c-11.713-8.129-20.565-18.04-26.77-27.76c-3.109-4.867-5.611-9.683-7.526-14.301
					c-1.905-4.616-3.428-8.958-4.425-12.984c-2.128-8.019-2.765-14.543-2.997-18.97c-0.184-2.213-0.12-3.918-0.157-5.064
					C377.934,245.644,377.926,245.051,377.926,245.051z"/>
			</g>
		</g>
		<path fill="#2E7A71" stroke="#0B443D" stroke-width="0.75" stroke-miterlimit="10" d="M379.069,231.26
			c1.278-8.321,3.608-16.287,6.872-23.758c27.682,24.574,65.575,38.806,106.179,38.363c-0.154,0.859-0.259,1.743-0.269,2.647
			c-0.089,8.539,6.761,15.533,15.297,15.622c8.538,0.09,15.532-6.76,15.622-15.298c0.021-2.076-0.372-4.063-1.097-5.878
			c1.74-0.325,3.481-0.672,5.224-1.051c15.01-3.271,29.071-8.407,41.977-15.048c1.318,6.526,1.994,13.285,1.921,20.213
			c-0.071,6.797-0.853,13.418-2.256,19.802c-25.731,11.743-55.505,17.043-86.563,13.868c-6.715-0.688-13.273-1.787-19.687-3.198
			c-0.72,5.681-6.39,10.057-13.23,9.985c-7.284-0.076-13.137-5.171-13.072-11.382c0.022-2.148,0.766-4.146,2.013-5.842
			C415.055,261.501,394.968,247.995,379.069,231.26z"/>
		<path fill="#2E7A71" stroke="#0B443D" stroke-width="0.75" stroke-miterlimit="10" d="M398.524,287.301
			c-0.177,0.484-0.29,0.994-0.296,1.535c-0.026,2.568,2.031,4.672,4.597,4.699c1.699,0.018,3.182-0.889,4.003-2.239
			c22.35,10.09,48.836,16.699,77.493,18.339c7.321,0.42,14.521,0.463,21.604,0.228c-0.685-1.71-1.06-3.575-1.039-5.532
			c0.084-8,6.637-14.416,14.637-14.332c8.001,0.084,14.419,6.636,14.335,14.635c-0.009,0.9-0.111,1.772-0.277,2.623
			c6.218-0.98,12.289-2.185,18.152-3.658c-3.781,5.072-8.042,9.76-12.719,13.994c-18.746,3.896-39.247,5.414-60.602,4.058
			c-31.684-2.011-60.702-10.06-84.348-22.167c-4.309-6.465-7.86-13.479-10.523-20.91
			C388.245,281.673,393.254,284.587,398.524,287.301z"/>
		<path fill="#2E7A71" stroke="#0B443D" stroke-width="0.75" stroke-miterlimit="10" d="M400.168,184.467
			c4.16,4.827,8.883,9.365,14.077,13.57c1.285-3.365,4.536-5.754,8.348-5.714c4.896,0.052,8.822,4.063,8.771,8.957
			c-0.027,2.636-1.224,4.962-3.064,6.567c19.951,12.058,44.68,19.822,71.774,21.152c24.182,1.187,47.008-2.895,66.601-10.917
			c-4.328-14.286-11.897-27.166-21.835-37.813c-11.363,1.949-23.318,2.723-35.628,2.118c-1.821-0.09-3.637-0.208-5.436-0.356
			c-0.072-5.933-5.573-10.758-12.412-10.829c-5.394-0.057-10.008,2.864-11.821,7.001c-17.198-4.059-32.855-10.768-46.145-19.474
			C420.509,164.786,409.18,173.623,400.168,184.467z M530.658,197.563c0.049-4.658,3.672-8.399,8.09-8.354
			c4.419,0.047,7.962,3.861,7.913,8.521c-0.049,4.652-3.671,8.393-8.089,8.346C534.153,206.031,530.61,202.219,530.658,197.563z"/>
		<g>
			<circle fill="#2E7A71" cx="472.566" cy="293.616" r="9.515"/>
			<path fill="#0B443D" d="M482.082,293.714c0,0-0.017,0.234-0.038,0.672c-0.002,0.221-0.042,0.485-0.096,0.802
				c-0.037,0.313-0.121,0.671-0.236,1.062c-0.228,0.783-0.579,1.727-1.213,2.681c-0.623,0.957-1.508,1.928-2.675,2.742
				c-1.165,0.801-2.627,1.41-4.26,1.623c-0.41,0.043-0.813,0.076-1.257,0.079c-0.413-0.022-0.818-0.009-1.264-0.088
				c-0.881-0.095-1.726-0.357-2.57-0.698c-0.84-0.353-1.626-0.852-2.366-1.432c-0.724-0.599-1.358-1.322-1.909-2.111
				c-0.538-0.803-0.946-1.695-1.238-2.629c-0.273-0.94-0.398-1.92-0.411-2.902c0.03-0.945,0.178-1.965,0.471-2.892
				c0.312-0.929,0.736-1.812,1.291-2.603c0.567-0.779,1.216-1.487,1.953-2.073c0.752-0.562,1.549-1.048,2.396-1.381
				c1.682-0.678,3.493-0.843,5.095-0.605c1.646,0.254,3.083,0.89,4.238,1.715c1.146,0.836,2.009,1.831,2.615,2.799
				c0.611,0.97,0.945,1.92,1.157,2.704c0.103,0.397,0.181,0.752,0.213,1.068c0.048,0.314,0.082,0.583,0.08,0.802
				C482.072,293.481,482.082,293.714,482.082,293.714z M482.082,293.714c0,0-0.014-0.23-0.03-0.67c0-0.219-0.037-0.483-0.091-0.8
				c-0.032-0.317-0.114-0.672-0.218-1.065c-0.221-0.779-0.558-1.73-1.202-2.665c-0.628-0.941-1.5-1.91-2.67-2.658
				c-1.159-0.747-2.604-1.293-4.144-1.45c-1.579-0.153-3.246,0.095-4.782,0.802c-1.529,0.713-2.893,1.872-3.866,3.327
				c-0.477,0.735-0.845,1.54-1.121,2.379c-0.259,0.851-0.373,1.693-0.402,2.611c0.007,0.889,0.107,1.772,0.346,2.622
				c0.262,0.841,0.61,1.655,1.072,2.4c0.942,1.479,2.28,2.671,3.796,3.409c0.76,0.355,1.562,0.646,2.354,0.769
				c0.386,0.094,0.812,0.11,1.223,0.147c0.382,0.018,0.793,0.007,1.181-0.013c1.563-0.13,3.007-0.643,4.188-1.366
				c1.184-0.727,2.077-1.676,2.722-2.601c0.662-0.929,1.021-1.866,1.257-2.644c0.114-0.394,0.204-0.746,0.241-1.06
				c0.06-0.312,0.103-0.577,0.106-0.8C482.065,293.948,482.082,293.714,482.082,293.714z"/>
		</g>
	</g>
	<g>
		<g>
			<path fill="#6BCBBD" d="M592.302,208.399c0.303,0.9,0.582,1.81,0.866,2.719c23.082-1.456,37.188-0.869,37.665,2.134
				c1.086,6.865-66.95,29.296-154.948,43.243c-88.004,13.945-162.649,14.133-163.736,7.268c-0.501-3.16,14.195-8.448,38.776-14.592
				c-0.012-0.939-0.038-1.889-0.019-2.826c-41.35,10.061-67.261,19.484-66.338,25.294c1.634,10.295,87.812,11.185,191.348-5.225
				c103.528-16.41,185.206-43.907,183.58-54.2C658.595,206.577,632.62,205.515,592.302,208.399z"/>
			<path fill="#2E8979" d="M592.302,208.399l0.874,2.715l-0.012-0.008c8.484-0.548,16.989-1.004,25.499-0.786
				c2.13,0.063,4.259,0.181,6.376,0.441c1.059,0.134,2.113,0.3,3.152,0.58c0.521,0.139,1.033,0.313,1.529,0.543
				c0.477,0.243,1.015,0.554,1.22,1.16c0.197,0.592-0.126,1.213-0.455,1.622c-0.335,0.443-0.737,0.811-1.156,1.153
				c-0.839,0.679-1.742,1.262-2.665,1.803c-1.848,1.074-3.765,2.012-5.704,2.896c-7.781,3.481-15.84,6.261-23.933,8.896
				c-8.102,2.608-16.272,5-24.481,7.242c-16.415,4.497-32.998,8.366-49.654,11.858c-16.661,3.477-33.413,6.539-50.224,9.186
				c-16.815,2.65-33.696,4.89-50.62,6.715c-16.926,1.829-33.904,3.19-50.916,4.009c-8.506,0.401-17.025,0.652-25.547,0.654
				c-4.265-0.003-8.526-0.069-12.792-0.251c-4.27-0.193-8.534-0.472-12.802-1.085c-2.137-0.347-4.264-0.688-6.415-1.563
				c-0.536-0.234-1.086-0.495-1.631-1.007c-0.136-0.113-0.267-0.269-0.387-0.46c-0.129-0.159-0.22-0.395-0.288-0.638
				c-0.021-0.115-0.024,0.01-0.057-0.309l-0.003-0.1l-0.002-0.201c0.031-0.254,0.11-0.603,0.2-0.764
				c0.356-0.727,0.832-1.155,1.287-1.532c0.462-0.386,0.939-0.691,1.415-0.986c1.919-1.145,3.906-1.981,5.904-2.788
				c1.999-0.79,4.018-1.509,6.046-2.186c8.119-2.687,16.355-4.88,24.614-6.967l-0.721,0.934l-0.023-2.854l1.181,0.947
				c-10.684,2.615-21.329,5.398-31.849,8.564c-5.257,1.587-10.485,3.267-15.628,5.152c-2.569,0.946-5.118,1.939-7.611,3.036
				c-2.481,1.106-4.955,2.272-7.172,3.724c-1.094,0.718-2.17,1.532-2.843,2.445c-0.192,0.225-0.271,0.448-0.396,0.664
				c-0.021,0.104-0.043,0.2-0.075,0.3c-0.026,0.102,0.012,0.176-0.007,0.268c-0.012-0.029,0.021,0.154-0.03-0.053l0.036,0.123
				l0.071,0.249c0.022,0.105,0.053,0.117,0.073,0.144c0.021,0.023,0.041,0.051,0.056,0.08c0.103,0.136,0.272,0.36,0.49,0.527
				c0.84,0.737,2.1,1.256,3.323,1.694c1.244,0.439,2.554,0.777,3.867,1.072c5.291,1.16,10.764,1.7,16.221,2.119
				c10.938,0.78,21.942,0.864,32.933,0.702c21.984-0.37,43.959-1.85,65.858-3.938c21.904-2.104,43.743-4.893,65.488-8.272
				c21.75-3.358,43.407-7.335,64.924-11.962c21.511-4.645,42.905-9.886,64.003-16.147c10.538-3.153,21.024-6.509,31.294-10.438
				c5.126-1.98,10.213-4.085,15.1-6.579c2.429-1.264,4.834-2.605,6.987-4.263c1.057-0.835,2.09-1.768,2.696-2.906l0.186-0.438
				l0.093-0.446c0.003-0.131-0.018-0.332-0.001-0.402l-0.148-0.495c-0.232-0.491-0.761-0.95-1.298-1.301
				c-2.316-1.337-5.1-1.821-7.779-2.275c-2.714-0.411-5.45-0.66-8.191-0.84c-5.488-0.351-10.995-0.411-16.497-0.371
				C614.29,207.114,603.288,207.671,592.302,208.399z M592.302,208.399c10.982-0.82,21.979-1.467,32.995-1.662
				c5.508-0.085,11.021-0.072,16.523,0.235c2.752,0.155,5.503,0.384,8.239,0.773c2.716,0.448,5.5,0.88,7.998,2.285
				c0.595,0.402,1.189,0.827,1.549,1.604l0.152,0.493c0.028,0.268,0.025,0.412,0.026,0.626l-0.112,0.561l-0.211,0.52
				c-0.686,1.306-1.758,2.257-2.839,3.137c-2.2,1.719-4.615,3.091-7.056,4.386c-4.902,2.552-9.99,4.708-15.116,6.738
				c-10.272,4.025-20.743,7.488-31.293,10.685c-21.103,6.37-42.498,11.715-64.016,16.47c-21.523,4.732-43.189,8.816-64.954,12.282
				c-21.766,3.438-43.636,6.251-65.572,8.396c-21.938,2.124-43.947,3.644-66.003,4.048c-11.027,0.176-22.069,0.111-33.104-0.659
				c-5.514-0.417-11.033-0.943-16.508-2.136c-1.368-0.305-2.732-0.653-4.09-1.129c-1.347-0.496-2.712-0.999-3.973-2.066
				c-0.317-0.264-0.598-0.567-0.885-0.994c-0.069-0.119-0.139-0.243-0.198-0.369c-0.064-0.126-0.127-0.263-0.141-0.325l-0.068-0.249
				l-0.037-0.124c-0.06-0.293-0.022-0.191-0.038-0.307c-0.001-0.254-0.03-0.527,0.021-0.766c0.054-0.231,0.113-0.472,0.183-0.701
				c0.192-0.393,0.383-0.807,0.637-1.114c0.979-1.303,2.169-2.144,3.356-2.943c2.394-1.567,4.921-2.76,7.463-3.894
				c2.549-1.119,5.133-2.122,7.731-3.071c5.2-1.898,10.462-3.58,15.747-5.167c10.575-3.161,21.25-5.938,31.959-8.544l1.173-0.284
				l0.009,1.229l0.016,2.803l0.005,0.753l-0.727,0.18c-8.233,2.066-16.45,4.24-24.487,6.891c-2.006,0.664-3.999,1.368-5.953,2.141
				c-1.946,0.774-3.892,1.603-5.631,2.635c-0.428,0.265-0.845,0.536-1.2,0.835c-0.369,0.279-0.668,0.628-0.78,0.857
				c-0.04,0.073,0.013-0.004-0.04-0.007l0.001,0.197l0.001,0.1c-0.018-0.252,0.005-0.062,0.002-0.115
				c0.015,0.013-0.006,0.033,0.045,0.077c0.021,0.039,0.055,0.093,0.126,0.147c0.228,0.226,0.644,0.46,1.081,0.643
				c1.792,0.741,3.898,1.113,5.953,1.439c4.148,0.605,8.383,0.889,12.609,1.087c4.229,0.187,8.474,0.261,12.716,0.271
				c8.483,0.011,16.979-0.225,25.464-0.614c16.972-0.773,33.918-2.157,50.822-3.889c16.91-1.743,33.773-3.9,50.579-6.469
				c33.603-5.158,66.983-11.854,99.869-20.499c8.218-2.172,16.398-4.493,24.511-7.031c8.094-2.563,16.167-5.271,23.945-8.68
				c1.937-0.864,3.853-1.78,5.689-2.829c0.915-0.527,1.81-1.097,2.629-1.748c0.404-0.328,0.798-0.68,1.107-1.082
				c0.312-0.401,0.549-0.85,0.409-1.309c-0.133-0.433-0.594-0.738-1.043-0.968c-0.465-0.222-0.959-0.399-1.467-0.535
				c-1.016-0.282-2.06-0.461-3.108-0.599c-2.101-0.276-4.223-0.545-6.343-0.627c-8.496-0.288-17.011,0.53-25.491,0.442l-0.01-0.001
				l-0.004,0.125L592.302,208.399z"/>
		</g>
	</g>
	<g>
		<g>
			<path fill="#2E7A71" d="M600.431,262.47c-0.131,0.937-0.291,1.88-0.443,2.82c21.301,9.019,33.65,15.849,32.736,18.748
				c-2.094,6.627-72.982-3.735-157.929-30.609c-84.953-26.871-151.807-60.087-149.707-66.714c0.965-3.051,16.476-1.204,41.208,4.285
				c0.414-0.848,0.814-1.703,1.25-2.536c-41.487-9.491-68.876-12.647-70.65-7.036c-3.142,9.937,73.547,49.267,173.486,80.887
				c99.94,31.612,185.295,43.545,188.442,33.61C660.543,290.485,637.784,277.918,600.431,262.47z"/>
			<path fill="#0B443D" d="M600.431,262.47l-0.439,2.822l-0.002-0.008c7.826,3.322,15.627,6.738,23.13,10.758
				c1.87,1.014,3.716,2.074,5.486,3.257c0.887,0.594,1.753,1.214,2.548,1.926c0.4,0.355,0.774,0.736,1.107,1.16
				c0.309,0.421,0.631,0.926,0.548,1.501c-0.085,0.57-0.604,0.945-1.073,1.167c-0.485,0.239-1.005,0.384-1.527,0.502
				c-1.045,0.228-2.107,0.341-3.17,0.41c-2.128,0.13-4.259,0.102-6.385,0.022c-8.506-0.384-16.951-1.524-25.359-2.804
				c-8.406-1.31-16.779-2.846-25.114-4.531c-16.678-3.368-33.229-7.342-49.675-11.7c-16.443-4.365-32.777-9.147-48.985-14.321
				c-16.211-5.176-32.29-10.745-48.227-16.707c-15.934-5.966-31.726-12.313-47.292-19.195c-7.777-3.442-15.498-7.023-23.114-10.832
				c-3.805-1.907-7.582-3.873-11.306-5.936c-3.718-2.075-7.4-4.227-10.909-6.666c-1.734-1.246-3.479-2.507-4.926-4.159
				c-0.35-0.419-0.688-0.872-0.898-1.444c-0.061-0.136-0.096-0.287-0.108-0.451c-0.037-0.156-0.017-0.328,0.018-0.5
				c0.015-0.062-0.005-0.045,0.04-0.169l0.044-0.094l0.088-0.179c0.108-0.135,0.235-0.308,0.36-0.391
				c0.498-0.387,1.054-0.556,1.591-0.673c0.541-0.127,1.082-0.189,1.62-0.237c2.158-0.162,4.299-0.024,6.427,0.149
				c2.127,0.185,4.242,0.447,6.349,0.748c8.434,1.226,16.777,2.947,25.087,4.771l-0.383,0.184l1.254-2.541l0.226,0.49
				c-10.732-2.442-21.505-4.713-32.346-6.597c-5.421-0.934-10.86-1.77-16.32-2.386c-2.728-0.306-5.467-0.557-8.205-0.691
				c-2.731-0.12-5.488-0.184-8.186,0.132c-1.337,0.161-2.699,0.401-3.85,0.979c-0.573,0.281-1.083,0.685-1.272,1.216
				c-0.223,0.582-0.092,1.116,0.147,1.73c0.497,1.187,1.419,2.226,2.344,3.198c0.942,0.975,1.975,1.876,3.034,2.736
				c4.259,3.441,8.929,6.374,13.639,9.197c9.462,5.604,19.28,10.599,29.192,15.373c19.855,9.507,40.184,18.007,60.722,25.936
				c20.547,7.908,41.338,15.186,62.315,21.878c20.978,6.687,42.146,12.777,63.481,18.226c21.337,5.429,42.833,10.271,64.522,14.066
				c10.846,1.879,21.735,3.536,32.693,4.584c5.475,0.507,10.973,0.887,16.472,0.825c2.745-0.052,5.503-0.183,8.196-0.713
				c1.327-0.285,2.687-0.655,3.783-1.441l0.378-0.326l0.304-0.389l0.204-0.432l0.088-0.509c0.014-0.641-0.278-1.288-0.612-1.862
				c-1.515-2.277-3.796-3.938-6.001-5.546c-2.253-1.578-4.596-3.022-6.976-4.403c-4.763-2.757-9.669-5.264-14.616-7.675
				C620.696,271.101,610.595,266.704,600.431,262.47z M600.372,262.47c10.18,4.202,20.321,8.566,30.248,13.343
				c4.954,2.401,9.887,4.889,14.664,7.634c2.384,1.375,4.743,2.813,7.009,4.388c2.218,1.613,4.511,3.259,6.076,5.586
				c0.346,0.604,0.669,1.251,0.646,2.007l-0.084,0.511c-0.077,0.192-0.148,0.338-0.23,0.506l-0.33,0.428l-0.399,0.35
				c-1.155,0.827-2.529,1.2-3.87,1.49c-2.716,0.544-5.482,0.686-8.236,0.744c-5.518,0.077-11.021-0.283-16.51-0.776
				c-10.97-1.015-21.875-2.631-32.729-4.511c-21.706-3.773-43.22-8.595-64.568-14c-21.35-5.427-42.535-11.501-63.532-18.166
				c-20.993-6.669-41.801-13.927-62.37-21.819c-20.56-7.909-40.91-16.396-60.795-25.89c-9.93-4.771-19.765-9.764-29.265-15.372
				c-4.73-2.829-9.419-5.764-13.734-9.242c-1.075-0.875-2.127-1.788-3.101-2.791c-0.956-1.014-1.918-2.064-2.498-3.427
				c-0.152-0.337-0.247-0.699-0.3-1.101c-0.004-0.201-0.035-0.449,0.003-0.609l0.046-0.255l0.022-0.127
				c0.037-0.133,0.048-0.117,0.071-0.185c0.293-0.788,0.971-1.283,1.614-1.603c1.318-0.66,2.724-0.89,4.105-1.062
				c2.773-0.325,5.551-0.261,8.311-0.142c2.762,0.14,5.512,0.396,8.251,0.705c5.48,0.622,10.93,1.468,16.363,2.41
				c10.857,1.895,21.638,4.182,32.373,6.636l0.426,0.098l-0.194,0.396l-1.247,2.526l-0.119,0.241l-0.263-0.06
				c-8.298-1.833-16.629-3.561-25.029-4.785c-2.102-0.304-4.206-0.565-6.315-0.754c-2.107-0.177-4.23-0.31-6.316-0.156
				c-0.519,0.046-1.033,0.106-1.528,0.221c-0.496,0.101-0.982,0.272-1.327,0.543c-0.731,0.514-0.102,1.583,0.541,2.322
				c1.354,1.557,3.085,2.825,4.798,4.054c3.475,2.42,7.141,4.569,10.847,6.639c3.71,2.064,7.479,4.029,11.276,5.937
				c7.599,3.809,15.309,7.396,23.075,10.846c15.545,6.894,31.323,13.256,47.242,19.233c15.918,5.979,31.988,11.563,48.182,16.749
				c16.195,5.191,32.518,9.987,48.952,14.369c16.434,4.373,32.976,8.345,49.634,11.777c8.329,1.71,16.69,3.272,25.088,4.606
				c8.398,1.305,16.836,2.472,25.327,2.883c2.122,0.082,4.249,0.118,6.367-0.004c1.059-0.065,2.115-0.178,3.151-0.398
				c0.515-0.114,1.026-0.26,1.496-0.486c0.464-0.223,0.924-0.554,1.007-1.068c0.075-0.505-0.219-0.996-0.522-1.409
				c-0.325-0.414-0.692-0.795-1.091-1.145c-0.789-0.71-1.65-1.332-2.529-1.927c-1.761-1.185-3.603-2.429-5.468-3.448
				c-7.483-4.038-15.283-6.922-23.09-11.004l-0.124-0.002l-0.004,0.354L600.372,262.47z"/>
		</g>
	</g>
</g>
</svg>
