<?xml version="1.0" encoding="utf-8"?>
<!-- Generator: Adobe Illustrator 16.0.0, SVG Export Plug-In . SVG Version: 6.00 Build 0)  -->
<!DOCTYPE svg PUBLIC "-//W3C//DTD SVG 1.1//EN" "http://www.w3.org/Graphics/SVG/1.1/DTD/svg11.dtd">
<svg version="1.1" id="Layer_1" xmlns="http://www.w3.org/2000/svg" xmlns:xlink="http://www.w3.org/1999/xlink" x="0px" y="0px"
	 width="950px" height="560px" viewBox="0 0 950 560" enable-background="new 0 0 950 560" xml:space="preserve">
<g>
	<g>
		<g>
			<path d="M335.773,252.389c-2.162-7.8-4.328-15.599-6.494-23.398l-2.854-10.275l2.48-0.842c8.092-2.744,12.059-4.013,20.209-6.46
				c2.425-0.72,4.809-1.084,7.091-1.084c2.905,0,5.675,0.587,8.229,1.742c4.752,2.148,7.754,5.844,8.682,10.686
				c0.899,4.698-0.298,9.24-3.56,13.499c-3.085,4.029-7.304,6.771-12.54,8.152c-1.838,0.487-3.071,0.819-4.42,1.189l1.138,4.586
				l-2.607,0.715c-4.761,1.306-7.095,1.975-11.89,3.405l-2.708,0.809L335.773,252.389z M348.795,230.282
				c1.374-0.399,2.613-0.751,4.444-1.266c1.355-0.379,2.003-1.438,1.903-1.89c-0.068-0.315-0.607-0.554-1.252-0.554
				c-0.29,0-0.592,0.045-0.898,0.134c-1.977,0.574-3.27,0.954-4.738,1.395L348.795,230.282z"/>
			<path fill="#701414" d="M356.205,213.1c2.509,0,4.884,0.498,7.088,1.494c3.979,1.8,6.349,4.75,7.101,8.684
				c0.753,3.938-0.306,7.726-3.038,11.294c-2.734,3.571-6.428,5.939-11.046,7.156c-2.826,0.749-4.236,1.134-7.053,1.919
				c0.455,1.832,0.68,2.746,1.135,4.578c-4.794,1.314-7.186,2.001-11.949,3.424c-2.877-10.386-5.764-20.77-8.647-31.152
				c7.997-2.713,12.022-4.001,20.116-6.431C352.083,213.422,354.187,213.1,356.205,213.1 M346.802,233.753
				c2.869-0.847,4.306-1.26,7.186-2.069c2.611-0.729,4.319-3.053,3.861-5.147c-0.367-1.683-1.991-2.733-3.959-2.733
				c-0.537,0-1.098,0.078-1.668,0.243c-2.922,0.849-4.381,1.281-7.291,2.167C345.678,229.226,346.052,230.733,346.802,233.753
				 M356.205,207.559c-2.549,0-5.197,0.402-7.871,1.196c-8.11,2.436-12.284,3.77-20.319,6.495l-4.96,1.683l1.401,5.047l2.142,7.71
				c2.169,7.812,4.34,15.626,6.505,23.439l1.509,5.447l5.416-1.616c4.772-1.425,7.094-2.09,11.83-3.39l5.215-1.43l-1.137-4.578
				c0.541-0.146,1.127-0.301,1.792-0.477c5.837-1.539,10.559-4.616,14.027-9.145c3.708-4.845,5.12-10.275,4.081-15.705
				c-1.104-5.766-4.652-10.153-10.26-12.689C362.661,208.228,359.507,207.559,356.205,207.559L356.205,207.559z"/>
		</g>
		<g>
			<path d="M267.055,279.575l2.545-1.159c4.592-2.092,6.821-3.077,11.361-5.021l2.537-1.087l14.073,32.492l-2.722,1.024
				c-4.312,1.622-6.411,2.439-10.693,4.166l-2.435,0.981L267.055,279.575z"/>
			<path fill="#701414" d="M282.053,275.941c3.939,9.097,7.88,18.193,11.82,27.29c-4.315,1.625-6.466,2.463-10.753,4.189
				c-4.124-8.828-8.248-17.655-12.371-26.483C275.251,278.887,277.513,277.886,282.053,275.941 M284.944,268.675l-5.073,2.173
				c-4.51,1.932-6.857,2.97-11.419,5.047l-5.092,2.319l2.368,5.068l6.186,13.242l6.186,13.241l2.222,4.757l4.87-1.963
				c4.258-1.717,6.345-2.528,10.633-4.143l5.445-2.049l-2.312-5.339l-3.439-7.94c-2.794-6.449-5.588-12.899-8.38-19.35
				L284.944,268.675L284.944,268.675z"/>
		</g>
		<g>
			<path d="M637.998,329.847c-4.459-2.443-6.647-3.604-11.145-5.915l-1.419-0.729l-0.082-1.593c-0.266-5.158-0.386-8.659-0.5-13.204
				c-1.138,1.069-2.317,2.163-3.55,3.294c-3.073,2.825-4.591,4.191-7.518,6.711l-4.065,3.498l-0.5-5.34
				c-0.445-4.757-0.853-9.766-1.278-15.73c-2.921,2.924-5.283,5.217-8.767,8.48l-1.296,1.214l-1.644-0.67
				c-4.678-1.905-6.979-2.807-11.729-4.597l-3.962-1.492l2.954-3.033c6.902-7.086,13.884-14.494,20.636-21.656
				c4.826-5.12,9.816-10.413,14.825-15.644l4.39-4.584l0.377,6.335c0.355,5.976,0.649,12.136,0.878,18.385
				c4.419-4.515,8.668-8.8,12.884-12.994l4.624-4.602l0.101,6.522c0.146,9.441,0.048,19.035-0.045,28.313
				c-0.088,8.715-0.179,17.725-0.067,26.564l0.06,4.744L637.998,329.847z"/>
			<path fill="#701414" d="M620.962,265.356c0.491,8.266,0.848,16.536,1.087,24.811c5.716-5.885,11.504-11.76,17.394-17.62
				c0.281,18.272-0.342,36.589-0.112,54.87c-4.454-2.439-6.695-3.63-11.21-5.949c-0.372-7.225-0.458-11.188-0.644-19.402
				c-2.739,2.668-5.44,5.202-8.047,7.594c-3.087,2.837-4.578,4.177-7.451,6.65c-0.679-7.243-1.21-14.506-1.692-21.77
				c-5.473,5.543-8.081,8.145-13.005,12.758c-4.693-1.912-7.055-2.838-11.796-4.625C597.3,290.544,608.894,277.958,620.962,265.356
				 M625.741,252.357l-8.781,9.166c-5.017,5.238-10.011,10.537-14.841,15.661c-6.743,7.153-13.718,14.553-20.604,21.623
				l-5.908,6.065l7.924,2.985c4.721,1.779,7.009,2.676,11.659,4.571l3.288,1.339l2.591-2.427c1.725-1.616,3.176-2.995,4.554-4.329
				c0.274,3.506,0.549,6.713,0.839,9.813l0.998,10.683l8.133-6.998c2.65-2.281,4.154-3.625,6.673-5.932
				c0.08,2.193,0.181,4.453,0.32,7.174l0.163,3.187l2.838,1.458c4.471,2.297,6.646,3.451,11.079,5.879l8.322,4.561l-0.119-9.488
				c-0.11-8.809-0.02-17.803,0.068-26.502c0.094-9.296,0.191-18.907,0.045-28.385l-0.201-13.044l-9.248,9.202
				c-2.778,2.765-5.572,5.57-8.419,8.454c-0.181-4.076-0.388-8.101-0.621-12.044L625.741,252.357L625.741,252.357z"/>
		</g>
		<g>
			<path d="M463.165,387.636c-5.239,0-10.539-0.387-15.746-1.146l-0.58-0.082c-0.238-0.035-1.053-0.172-1.053-0.172
				c-41.251-6.641-75.098-36.62-86.226-76.375c-2.272-7.864-3.637-16.037-4.058-24.302c-4.131-1.66-8.239-3.333-12.277-5.003
				l2.852,9.738l-2.818,0.688c-4.387,1.068-6.553,1.624-11.038,2.827l-2.544,0.683l-6.579-20.355
				c-0.187,0.298-0.371,0.594-0.558,0.893l4.833,14.231c0,0-3.05,0.893-3.178,0.931l1.94,5.565l-2.464,0.981
				c-1.874,0.746-2.809,1.123-4.673,1.886l-0.116,0.047l-0.121,0.038c-0.128,0.039-0.242,0.086-0.34,0.125
				c-0.053,0.021-0.104,0.041-0.153,0.061c-0.153,0.084-0.337,0.169-0.557,0.236l-1.067,0.332c-2.762,0.864-5.547,1.303-8.275,1.303
				c-2.864,0-5.743-0.483-8.556-1.437c-5.706-1.935-9.615-5.307-11.619-10.022c-2.094-4.924-1.564-9.998,1.574-15.081
				c3.062-4.96,7.685-8.602,13.739-10.822c0.062-0.022,0.124-0.045,0.187-0.068c-23.266-10.716-42.692-20.841-56.527-29.476
				c-22.198-13.854-23.713-19.857-22.553-23.541c1.255-3.98,6.317-5.754,16.415-5.754c16.104,0,44.99,4.64,83.539,13.416
				l3.497,0.796l-1.654,3.183c-0.405,0.779-0.788,1.573-1.171,2.368l-0.506,1.044l-0.957,1.959l-2.128-0.471
				c-22.957-5.075-39.697-7.758-48.413-7.758c-2.139,0-3.422,0.164-4.168,0.327c1.372,1.702,6.172,6.18,22.738,15.225
				c14.362,7.843,33.468,16.911,55.508,26.352l-2.43-9.494l2.691-0.683c4.857-1.233,7.215-1.804,12.009-2.905l0.697-0.159
				c2.525-8.045,5.991-15.759,10.347-23.015l-0.561-3.017c-0.788-4.242-1.575-8.485-2.367-12.728l-0.479-2.563l2.53-0.633
				c5.218-1.303,7.771-1.91,13.005-3.095l2.886-0.652l0.429,2.707c20.239-20.661,48.018-32.403,77.094-32.403
				c21.817,0,42.806,6.466,60.75,18.71l0.821,0.046l0.007-0.057l2.585,0.16c10.811,0.67,21.771,1.697,32.576,3.054l2.938,0.369
				l-3.354,17.27l-2.583-0.34c-2.771-0.365-4.479-0.583-6.595-0.836l-0.836,4.757c1.358,1.81,2.661,3.661,3.897,5.538
				c8.699-10.675,16.642-19.254,24.806-26.81l2.862-2.649l1.559,3.576c7.782,17.854,11.688,36.26,14.481,51.909l0.765,4.282
				l-4.203-1.118c-9.483-2.52-19.227-4.773-29.023-6.716c0.571,1.583,1.105,3.181,1.601,4.784c1.199,0.273,2.397,0.55,3.594,0.838
				l0.397,0.096l0.004-0.014l1.539,0.384l0.75,0.181l-0.001,0.007l0.408,0.102c4.778,1.191,7.109,1.801,11.875,3.106l2.672,0.731
				c0,0-4.902,17.921-6.915,25.267c-0.361,1.326,0.278,1.752,0.693,1.888c0.074,0.024,0.152,0.037,0.221,0.037
				c0.478,0,0.774-0.888,0.854-1.159l7.404-25.389l2.669,0.791c4.786,1.42,7.103,2.136,11.804,3.647l2.634,0.847l-0.844,2.635
				c-2.443,7.634-4.887,15.268-7.327,22.9c-1.752,5.471-4.845,9.531-9.193,12.072c-2.633,1.537-5.373,2.316-8.145,2.316
				c-1.77,0-3.595-0.318-5.426-0.945c-1.871-0.643-3.558-1.543-5.052-2.695l-3.956,14.061c-2.054,7.295-4.911,14.373-8.512,21.09
				c49.616,12.129,95.12,19.912,116.626,19.91c5.212,0,7.688-0.478,8.806-0.832c-1.827-2.023-9.618-8.161-42.696-22.131l-2.01-0.85
				l0.393-2.381c0.195-1.187,0.391-2.375,0.557-3.561l0.492-3.543l3.308,1.365c26.061,10.746,46.363,20.205,60.346,28.117
				c16.542,9.359,22.883,15.635,21.199,20.982c-1.447,4.586-8.372,6.629-22.449,6.629c-0.002,0-0.002,0-0.005,0
				c-31.139,0-90.721-10.273-155.807-26.846c-19.878,24.422-49.318,38.846-81.064,39.648l-0.155,0.006
				c-0.886,0.02-1.768,0.033-2.653,0.033H463.165L463.165,387.636z M311.159,276.972c-0.837,0-1.693,0.149-2.545,0.446
				c-1.691,0.588-2.902,1.495-3.699,2.773c-0.069,0.111-0.132,0.219-0.188,0.323l0.493-0.169c3.468-1.187,5.892-1.999,8.526-2.846
				c-0.259-0.116-0.539-0.215-0.834-0.296C312.35,277.05,311.76,276.972,311.159,276.972z"/>
			<path fill="#701414" d="M463.165,175.134c22.234,0,42.849,6.901,59.826,18.667c0.201,0.012,0.401,0.019,0.603,0.029
				c-0.015,0.123-0.029,0.237-0.043,0.357c1.106,0.777,2.195,1.577,3.27,2.395c0.104-0.8,0.214-1.647,0.337-2.595
				c10.803,0.669,21.607,1.683,32.402,3.038c-0.869,4.476-1.332,6.858-2.293,11.803c-3.691-0.486-5.537-0.717-9.232-1.145
				c-0.5,2.842-0.999,5.684-1.498,8.525c2.355,3.064,4.55,6.259,6.562,9.577c8.176-10.23,16.935-20.249,26.961-29.527
				c7.244,16.62,11.197,33.941,14.294,51.289c-11.306-3.004-22.691-5.565-34.128-7.707c1.457,3.506,2.729,7.108,3.805,10.794
				c1.713,0.391,3.426,0.779,5.136,1.189c-1.023,4.282-1.657,6.928-2.474,10.35c0.478,2.789,0.845,5.616,1.098,8.476
				c1.484-6.025,2.967-12.051,4.45-18.076c4.739,1.183,7.101,1.8,11.815,3.09c-2.061,7.531-4.12,15.063-6.185,22.594
				c-0.75,2.755,0.698,4.661,2.503,5.253c0.351,0.114,0.716,0.175,1.083,0.175c1.416,0,2.855-0.906,3.514-3.151
				c2.211-7.573,4.416-15.146,6.626-22.72c4.711,1.397,7.061,2.122,11.743,3.628c-2.443,7.633-4.888,15.268-7.327,22.901
				c-1.562,4.876-4.214,8.34-7.952,10.522c-2.253,1.314-4.486,1.938-6.747,1.938c-1.493,0-2.999-0.272-4.527-0.796
				c-3.843-1.317-6.745-3.855-8.736-7.894c-0.046-0.094-0.086-0.188-0.131-0.28c-0.562,7.583-1.935,14.94-4.025,21.991
				c0.104-0.195,0.216-0.385,0.32-0.58c-2.354,8.361-5.75,16.296-10.036,23.662c56.029,13.874,100.468,20.859,120.818,20.859
				c7.257,0,11.452-0.889,12.016-2.671c1.248-3.968-15.665-13.299-44.83-25.615c0.213-1.285,0.426-2.573,0.604-3.854
				c51.144,21.088,82.305,38.254,79.959,45.707c-0.99,3.139-7.971,4.689-19.81,4.689c-28.887,0-86.68-9.24-156.855-27.201
				c-18.641,23.697-47.509,39.182-80.089,40.006c-0.05,0-0.102,0.004-0.154,0.006c-0.858,0.02-1.72,0.033-2.583,0.033
				c-0.015,0-0.029-0.002-0.043-0.002c-0.015,0-0.029,0.002-0.043,0.002c-5.213,0-10.337-0.387-15.347-1.117
				c-0.188-0.027-0.378-0.051-0.565-0.08c-0.342-0.051-0.682-0.111-1.022-0.166c-40.534-6.527-73.249-35.967-84.002-74.389
				c-2.348-8.124-3.734-16.655-4.035-25.461c-6.609-2.645-13.033-5.274-19.256-7.883c1.407,4.809,2.181,7.455,3.665,12.52
				c-4.448,1.084-6.669,1.655-11.1,2.844c-2.317-7.167-4.632-14.334-6.948-21.502c-0.497-0.217-0.992-0.432-1.485-0.647
				c-1.965,3.105-3.172,5.035-5.292,8.478c-0.785-1.414-2.333-2.436-4.133-2.929c-0.787-0.216-1.621-0.331-2.486-0.331
				c-1.111,0-2.275,0.189-3.455,0.6c-2.313,0.805-4.013,2.116-5.141,3.925c-1.128,1.81-1.345,3.569-0.651,5.339
				c0.922,2.346,3.403,3.789,6.192,4.133c-0.8-2.104-1.197-3.149-1.989-5.23c5.812-1.987,8.729-2.938,14.583-4.749
				c1.241,3.657,1.866,5.492,3.123,9.194c-1.28,0.375-1.918,0.565-3.196,0.948c0.804,2.309,1.208,3.469,2.021,5.803
				c-1.883,0.749-2.823,1.128-4.697,1.895c-0.361,0.111-0.652,0.25-0.859,0.313c-0.052,0.017-0.138,0.092-0.188,0.107
				c-0.433,0.134-0.65,0.202-1.082,0.336c-2.523,0.791-5.004,1.178-7.452,1.178c-2.591,0-5.145-0.436-7.666-1.29
				c-4.865-1.649-8.242-4.443-9.958-8.482c-1.715-4.032-1.283-8.227,1.382-12.542c2.681-4.343,6.819-7.652,12.336-9.676
				c2.829-1.039,5.668-1.527,8.391-1.546c-54.668-24.576-88.049-45.519-85.595-53.308c0.815-2.587,5.604-3.816,13.772-3.816
				c16.084,0.001,45.261,4.771,82.924,13.348c-0.591,1.14-1.14,2.312-1.708,3.472c-22.812-5.042-39.892-7.822-49.01-7.822
				c-4.414,0-6.961,0.651-7.39,2.013c-1.757,5.575,32.151,24.859,85.542,47.404c-1.093-4.267-1.85-7.223-3.133-12.234
				c4.768-1.21,7.157-1.788,11.948-2.889c0.321,1.414,0.643,2.829,0.964,4.244c2.608-10.585,6.822-20.538,12.376-29.585
				c-1.04-5.596-2.077-11.192-3.121-16.787c5.162-1.289,7.751-1.905,12.945-3.08c0.286,1.803,0.571,3.607,0.856,5.411
				C403.476,188.947,431.703,175.134,463.165,175.134 M576.604,228.536c-0.858-3.259-1.301-4.862-2.228-8.006
				c-2.287,2.56-3.427,3.866-5.688,6.507C571.858,227.614,573.44,227.914,576.604,228.536 M463.165,169.593
				c-28.004,0-54.838,10.621-75.193,29.464l-0.056-0.351l-5.771,1.305c-5.199,1.177-7.885,1.815-13.066,3.109l-5.061,1.264
				l0.957,5.128c0.787,4.22,1.571,8.439,2.354,12.66l0.383,2.059c-3.947,6.719-7.156,13.812-9.588,21.185
				c-4.236,0.978-6.701,1.576-11.233,2.727l-5.381,1.366l1.376,5.379l0.342,1.337c-18.893-8.217-35.47-16.118-48.389-23.077
				c-9.391-5.059-15.117-8.692-18.588-11.184c6.998,0.393,20.156,2.151,44.798,7.6l4.258,0.941l1.916-3.918
				c0.172-0.353,0.341-0.704,0.512-1.058c0.389-0.804,0.755-1.564,1.134-2.293l3.306-6.365l-6.994-1.592
				c-38.743-8.821-67.843-13.484-84.153-13.485c-7.744,0-16.908,0.873-19.057,7.69c-2.229,7.074,4.646,14.816,23.728,26.726
				c12.844,8.016,30.446,17.295,51.431,27.131c-4.059,2.377-7.315,5.533-9.721,9.429c-3.587,5.81-4.198,11.903-1.766,17.621
				c2.326,5.474,6.793,9.363,13.279,11.562c3.1,1.051,6.277,1.583,9.445,1.583c3.009,0,6.073-0.48,9.105-1.428l1.073-0.335
				c0.338-0.103,0.635-0.231,0.877-0.354c0.005-0.002,0.011-0.005,0.017-0.007c0.046-0.019,0.098-0.041,0.155-0.06l0.241-0.074
				l0.211-0.088c1.84-0.754,2.752-1.121,4.649-1.876l4.745-1.89l3.498-0.938c4.459-1.196,6.614-1.748,10.976-2.812l5.636-1.373
				l-1.63-5.567l-0.417-1.425c1.771,0.724,3.55,1.446,5.336,2.165c0.528,7.868,1.891,15.644,4.062,23.165
				c11.425,40.775,46.141,71.523,88.449,78.336l0.327,0.053c0.247,0.041,0.494,0.084,0.742,0.121
				c0.134,0.02,0.263,0.037,0.391,0.055l0.199,0.027c5.349,0.781,10.781,1.178,16.155,1.178h0.066h0.002c0.007,0,0.014,0,0.019,0
				c0.82,0,1.707-0.012,2.715-0.035l0.128-0.006h0.037c31.96-0.809,61.645-15.084,82.011-39.303
				c64.633,16.373,123.713,26.5,154.79,26.5c15.695,0,23.2-2.561,25.094-8.562c2.186-6.943-4.326-13.963-22.476-24.23
				c-14.082-7.967-34.488-17.478-60.654-28.268l-6.613-2.727l-0.987,7.084c-0.158,1.137-0.346,2.278-0.545,3.486l-0.039,0.232
				l-0.709,4.308l4.021,1.698c20.735,8.757,31.261,14.321,36.578,17.624c-0.501,0.011-1.036,0.017-1.609,0.017
				c-20.814,0-64.479-7.4-112.552-19.002c2.937-5.939,5.317-12.129,7.104-18.479l2.962-10.521c0.793,0.389,1.62,0.73,2.481,1.025
				c2.121,0.727,4.248,1.096,6.324,1.096c3.269,0,6.479-0.906,9.541-2.695c4.958-2.895,8.469-7.477,10.435-13.617
				c2.44-7.636,4.885-15.27,7.327-22.901l1.688-5.271l-5.269-1.693c-1.401-0.451-2.604-0.835-3.728-1.189l-1.5-8.404
				c-2.822-15.808-6.772-34.411-14.669-52.529l-3.117-7.151l-5.727,5.298c-4.221,3.907-8.381,8.08-12.611,12.666
				c0.422-2.174,0.796-4.101,1.315-6.775l1.128-5.815l-5.877-0.737c-10.863-1.364-21.882-2.397-32.75-3.071l-2.76-0.171
				C506.496,176.052,485.244,169.593,463.165,169.593L463.165,169.593z M552.409,214.801c0.058-0.33,0.116-0.661,0.174-0.992
				c0.877,0.11,1.797,0.229,2.877,0.37c-0.624,0.738-1.252,1.486-1.883,2.244C553.193,215.88,552.804,215.339,552.409,214.801
				L552.409,214.801z"/>
		</g>
	</g>
	<g>
		<g>
			<g>
				<ellipse fill="#E6E6E6" cx="463.165" cy="279.998" rx="105.043" ry="104.864"/>
				<path fill="#B3B3B3" d="M559.109,242.446c6.608,20.35,4.122,39.387-5.544,42.517c-9.676,3.132-22.875-10.831-29.481-31.179
					c-6.608-20.352-4.124-39.39,5.545-42.517C539.3,208.136,552.503,222.097,559.109,242.446z"/>
				<ellipse fill="#B3B3B3" cx="491.294" cy="194.584" rx="7.559" ry="7.543"/>
				<path fill="#B3B3B3" d="M414.714,200.862c1.486,5.391,12.308,7.115,24.174,3.857c11.863-3.261,20.279-10.271,18.792-15.659
					c-1.484-5.389-12.307-7.114-24.171-3.853C421.644,188.466,413.229,195.476,414.714,200.862z"/>
				<path fill="#B3B3B3" d="M375.251,244.233c0,5.476,3.008,9.917,6.72,9.917c3.708,0,6.717-4.441,6.717-9.917
					c0-5.477-3.008-9.916-6.717-9.916C378.26,234.316,375.251,238.756,375.251,244.233z"/>
				<ellipse fill="#B3B3B3" cx="457.443" cy="246.388" rx="21.76" ry="15.088"/>
				<path fill="#CCCCCC" d="M471.313,364.747c-8.444,0-16.644-1.012-24.508-2.867c-1.062-4.996-7.371-10.387-15.988-13.132
					c-6.275-1.999-12.355-2.131-16.654-0.729c-28.673-18.427-47.645-50.296-47.645-86.545c0-9.582,1.353-18.848,3.832-27.649
					c-7.579,14.287-11.891,30.526-11.891,47.768c0,57.036,46.917,103.271,104.792,103.271c48.151,0,88.69-32.018,100.96-75.62
					C546.714,342.224,511.691,364.747,471.313,364.747z"/>
				<path fill="#CCCCCC" d="M416.007,300.593c2.323,18.113-5.035,33.982-16.442,35.441c-11.403,1.459-22.532-12.045-24.86-30.162
					c-2.321-18.119,5.038-33.986,16.446-35.444C402.556,268.97,413.682,282.475,416.007,300.593z"/>
				<path fill="#B3B3B3" d="M411.715,294.529c2.18,16.991-4.181,31.802-14.212,33.087c-10.028,1.279-19.922-11.454-22.103-28.445
					c-2.178-16.991,4.182-31.804,14.213-33.086C399.639,264.804,409.534,277.537,411.715,294.529z"/>
				<ellipse fill="#B3B3B3" cx="489.449" cy="280.922" rx="6.717" ry="6.706"/>
				<path fill="#B3B3B3" d="M439.405,309.087c0,8.148,6.541,14.754,14.608,14.754c8.07,0,14.61-6.605,14.61-14.754
					c0-8.149-6.539-14.753-14.61-14.753C445.946,294.334,439.405,300.938,439.405,309.087z"/>
				<path fill="#B3B3B3" d="M444.69,365.731c-1.24,2.996-8.223,2.957-15.593-0.086c-7.372-3.043-12.343-7.938-11.101-10.932
					c1.24-2.996,8.222-2.957,15.592,0.086C440.961,357.843,445.93,362.735,444.69,365.731z"/>
				<path fill="#B3B3B3" d="M505.331,332.406c-11.33,8.216-17.024,19.677-12.718,25.595c4.306,5.916,16.98,4.053,28.312-4.162
					c11.329-8.217,17.025-19.676,12.72-25.593C529.338,322.326,516.661,324.188,505.331,332.406z"/>
			</g>
		</g>
		<g>
			<g>
				<g>
					<path fill="#EDEFF4" stroke="#5DA2DB" stroke-width="3" stroke-miterlimit="10" d="M367.356,234.571
						c-2.734,3.572-6.428,5.94-11.046,7.157c-2.826,0.749-4.237,1.134-7.053,1.919c0.455,1.831,0.681,2.746,1.135,4.578
						c-4.794,1.315-7.186,2.001-11.949,3.423c-2.877-10.386-5.764-20.769-8.647-31.152c7.997-2.712,12.022-4,20.116-6.43
						c4.872-1.446,9.407-1.271,13.382,0.527c3.979,1.8,6.349,4.75,7.101,8.684C371.148,227.215,370.088,231.004,367.356,234.571z
						 M352.221,224.046c-2.922,0.849-4.381,1.281-7.291,2.167c0.748,3.013,1.122,4.521,1.872,7.54
						c2.869-0.847,4.306-1.26,7.186-2.069c2.61-0.729,4.318-3.053,3.861-5.147C357.382,224.396,354.878,223.277,352.221,224.046z"/>
					<path fill="#EDEFF4" stroke="#5DA2DB" stroke-width="3" stroke-miterlimit="10" d="M397.141,238.042
						c-8.231,1.386-12.335,2.156-20.507,3.853c-2.068-11.133-4.133-22.268-6.21-33.399c5.163-1.289,7.75-1.905,12.945-3.081
						c1.231,7.781,2.464,15.562,3.692,23.346c3.421-0.682,5.132-1.006,8.562-1.635C396.226,231.468,396.531,233.656,397.141,238.042
						z"/>
					<path fill="#EDEFF4" stroke="#5DA2DB" stroke-width="3" stroke-miterlimit="10" d="M398.577,237.807
						c6.51-14.314,13.676-28.653,21.958-42.826c10.676,11.805,20.036,24.36,28.449,37.445
						C432.104,233.309,415.276,235.106,398.577,237.807z M426.699,222.459c-1.75-2.298-2.63-3.431-4.408-5.657
						c-1.412,2.646-2.108,3.975-3.482,6.634C421.962,223.023,423.539,222.827,426.699,222.459z"/>
					<path fill="#EDEFF4" stroke="#5DA2DB" stroke-width="3" stroke-miterlimit="10" d="M490.327,237.118
						c-8.554-7.822-17.666-15.192-27.4-22.044c-0.027,6.607-0.042,10.007-0.072,16.829c-4.97,0.124-7.452,0.214-12.417,0.448
						c-0.294-13.228-0.589-26.455-0.89-39.682c10.383,5.577,20.17,11.722,29.429,18.412c0.275-7.448,0.412-11.07,0.659-17.845
						c5.393-0.153,8.091-0.2,13.492-0.233C492.19,207.71,491.259,222.413,490.327,237.118z"/>
					<path fill="#EDEFF4" stroke="#5DA2DB" stroke-width="3" stroke-miterlimit="10" d="M525.315,219.831
						c-7.031-0.594-10.548-0.837-17.582-1.214c-0.053,0.55-0.081,0.828-0.136,1.381c5.067,0.276,7.604,0.442,12.67,0.831
						c-0.639,5.166-0.966,7.808-1.621,13.118c-8.237-0.793-16.487-1.365-24.738-1.726c0.924-13.057,1.841-26.112,2.759-39.169
						c8.965,0.026,17.943,0.281,26.926,0.778c-0.547,4.462-0.839,6.815-1.438,11.676c-5.235-0.317-7.854-0.447-13.088-0.648
						c-0.051,0.52-0.077,0.781-0.128,1.305c7.226,0.292,10.837,0.494,18.063,1.008C526.348,212.085,526.008,214.637,525.315,219.831
						z"/>
					<path fill="#EDEFF4" stroke="#5DA2DB" stroke-width="3" stroke-miterlimit="10" d="M557.267,208.828
						c-3.691-0.486-5.537-0.717-9.232-1.145c-1.716,9.744-3.424,19.488-5.14,29.233c-4.921-0.724-7.385-1.057-12.315-1.669
						c1.437-9.632,2.875-19.264,4.311-28.897c-3.7-0.32-5.548-0.465-9.246-0.727c0.631-4.847,0.937-7.193,1.514-11.636
						c10.803,0.669,21.607,1.682,32.402,3.037C558.691,201.501,558.228,203.884,557.267,208.828z"/>
					<path fill="#EDEFF4" stroke="#5DA2DB" stroke-width="3" stroke-miterlimit="10" d="M544.282,237.127
						c10.718-14.109,22.064-28.181,35.776-40.869c7.244,16.621,11.196,33.942,14.294,51.29
						C577.804,243.15,561.087,239.68,544.282,237.127z M576.604,228.536c-0.858-3.259-1.301-4.862-2.228-8.006
						c-2.287,2.56-3.427,3.866-5.688,6.507C571.858,227.614,573.44,227.914,576.604,228.536z"/>
				</g>
				<g>
					<path fill="#EDEFF4" stroke="#5DA2DB" stroke-width="3" stroke-miterlimit="10" d="M293.873,303.231
						c-4.315,1.625-6.466,2.463-10.753,4.189c-4.124-8.827-8.248-17.655-12.371-26.483c4.502-2.05,6.764-3.051,11.304-4.996
						C285.992,285.039,289.934,294.135,293.873,303.231z"/>
					<path fill="#EDEFF4" stroke="#5DA2DB" stroke-width="3" stroke-miterlimit="10" d="M317.777,277.461
						c-0.785-1.414-2.334-2.436-4.133-2.93c-1.797-0.493-3.843-0.459-5.94,0.27c-2.313,0.804-4.012,2.115-5.141,3.924
						c-1.128,1.81-1.345,3.569-0.651,5.34c0.923,2.346,3.404,3.788,6.192,4.133c-0.8-2.104-1.197-3.149-1.989-5.23
						c5.812-1.988,8.729-2.938,14.583-4.749c1.241,3.657,1.865,5.492,3.123,9.194c-1.28,0.375-1.918,0.565-3.196,0.948
						c0.804,2.309,1.208,3.469,2.021,5.802c-1.883,0.75-2.822,1.129-4.697,1.896c-0.361,0.11-0.652,0.251-0.859,0.313
						c-0.052,0.016-0.138,0.092-0.189,0.106c-0.433,0.135-0.651,0.203-1.082,0.338c-5.196,1.624-10.215,1.547-15.118-0.114
						c-4.864-1.648-8.242-4.442-9.958-8.481c-1.715-4.033-1.283-8.227,1.382-12.542c2.681-4.343,6.819-7.653,12.337-9.677
						c4.972-1.824,9.991-2.005,14.315-0.787c1.874,0.525,3.654,1.356,5.139,2.43C321.415,271.593,320.186,273.551,317.777,277.461z"
						/>
					<path fill="#EDEFF4" stroke="#5DA2DB" stroke-width="3" stroke-miterlimit="10" d="M368.45,286.928
						c-9.583-4.396-19.489-8.389-29.725-11.884c1.547,5.283,2.321,7.93,3.878,13.244c-4.449,1.084-6.67,1.656-11.1,2.844
						c-3.454-10.679-6.904-21.36-10.354-32.041c10.675,2.67,21.012,5.914,31.011,9.669c-1.561-6.093-2.342-9.144-3.906-15.249
						c4.768-1.21,7.157-1.789,11.948-2.889C362.954,262.724,365.704,274.825,368.45,286.928z"/>
					<path fill="#EDEFF4" stroke="#5DA2DB" stroke-width="3" stroke-miterlimit="10" d="M398.344,271.032
						c-2.935,3.485-6.672,5.419-11.405,6.042c-4.735,0.623-8.99-0.262-12.991-2.707c-3.998-2.442-6.474-5.674-7.408-9.926
						c-0.934-4.247-0.023-8.188,2.876-11.963c2.896-3.77,6.863-6.164,11.921-7.075c5.056-0.91,9.597-0.031,13.628,2.69
						c4.037,2.725,6.335,6.409,6.945,10.952C402.522,263.596,401.274,267.552,398.344,271.032z M383.204,255.981
						c-3.345,0.542-5.548,3.423-4.98,6.352c0.568,2.931,3.63,4.892,6.887,4.424c3.257-0.47,5.531-3.239,5.052-6.243
						C389.684,257.511,386.55,255.438,383.204,255.981z"/>
					<path fill="#EDEFF4" stroke="#5DA2DB" stroke-width="3" stroke-miterlimit="10" d="M447.466,274.848
						c-2.918,1.595-6.148,2.447-9.188,2.891c-0.865,0.126-1.836,0.162-2.733,0.173c-2.11,0.024-4.237-0.18-6.34-0.671
						c-0.02,0.021-0.029,0.027-0.049,0.048c-3.879-0.842-7.644-2.522-10.913-5.019c-0.043,0.002-0.063,0.003-0.106,0.005
						c0.2,1.976,0.298,2.955,0.494,4.894c-4.492,0.249-6.738,0.401-11.229,0.753c-1.49-11.64-2.977-23.28-4.464-34.92
						c7.693-0.976,11.548-1.396,19.265-2.095c4.641-0.405,8.725,0.903,12.142,3.871c3.421,2.97,5.221,6.811,5.431,11.218
						c0.18,4.354-4.038,11.053-4.021,11.055c0.064,0.106,3.853-0.75,5.601-1.77C443.844,269.145,445.067,271.071,447.466,274.848z
						 M423.172,252.385c-2.795,0.195-4.191,0.305-6.985,0.537c0.346,3.424,0.515,5.125,0.854,8.494
						c2.742-0.193,4.115-0.28,6.859-0.438c2.409-0.134,4.294-2.179,4.125-4.531C427.851,254.041,425.636,252.214,423.172,252.385z"
						/>
					<path fill="#EDEFF4" stroke="#5DA2DB" stroke-width="3" stroke-miterlimit="10" d="M447.782,276.635
						c7.704-13.695,15.581-27.555,23.922-41.496c7.866,14.678,14.836,29.751,21.796,44.79
						C478.372,277.993,463.108,276.889,447.782,276.635z M474.539,266.528c-1.348-2.631-2.033-3.958-3.416-6.625
						c-1.525,2.514-2.278,3.754-3.769,6.193C470.23,266.249,471.669,266.335,474.539,266.528z"/>
					<path fill="#EDEFF4" stroke="#5DA2DB" stroke-width="3" stroke-miterlimit="10" d="M529.711,290.666
						c-7.119-8.54-14.425-16.993-22.085-25.31c-0.734,6.852-1.088,10.169-1.746,16.346c-4.423-0.693-6.637-1.014-11.077-1.605
						c1.127-14.135,2.271-28.27,3.412-42.404c8.557,8.397,16.53,17.192,24.093,26.196c0.953-6.791,1.902-13.583,2.854-20.375
						c4.849,0.683,7.268,1.052,12.102,1.844C534.739,260.459,532.22,275.561,529.711,290.666z"/>
					<path fill="#EDEFF4" stroke="#5DA2DB" stroke-width="3" stroke-miterlimit="10" d="M565.851,265.689
						c-3.222-0.838-4.838-1.246-8.072-2.031c-2.049,9.333-4.098,18.667-6.147,28c-4.284-1.182-6.433-1.747-10.745-2.831
						c1.784-9.264,3.566-18.528,5.354-27.791c-3.255-0.688-4.886-1.022-8.151-1.659c0.922-5.305,1.394-8.022,2.345-13.481
						c9.625,1.67,19.209,3.643,28.731,5.93C567.82,257.445,567.15,260.244,565.851,265.689z"/>
					<path fill="#EDEFF4" stroke="#5DA2DB" stroke-width="3" stroke-miterlimit="10" d="M596.011,284.344
						c-1.562,4.875-4.214,8.339-7.951,10.521c-3.741,2.185-7.434,2.46-11.275,1.143c-3.843-1.316-6.745-3.855-8.735-7.894
						c-1.989-4.035-2.497-8.371-1.32-13.157c1.839-7.461,3.674-14.922,5.51-22.384c4.739,1.183,7.101,1.8,11.815,3.09
						c-2.061,7.531-4.12,15.063-6.185,22.594c-0.75,2.755,0.698,4.661,2.503,5.253c1.699,0.555,3.768-0.148,4.598-2.977
						c2.209-7.573,4.416-15.146,6.626-22.72c4.711,1.397,7.061,2.122,11.743,3.628C600.895,269.075,598.451,276.71,596.011,284.344z
						"/>
					<path fill="#EDEFF4" stroke="#5DA2DB" stroke-width="3" stroke-miterlimit="10" d="M639.33,327.417
						c-4.454-2.439-6.695-3.63-11.21-5.949c-0.372-7.225-0.458-11.188-0.644-19.402c-2.739,2.668-5.44,5.202-8.047,7.594
						c-3.087,2.837-4.578,4.177-7.451,6.65c-0.679-7.243-1.21-14.506-1.692-21.77c-5.473,5.543-8.081,8.145-13.005,12.758
						c-4.694-1.912-7.055-2.838-11.796-4.625c11.814-12.13,23.408-24.716,35.477-37.316c0.491,8.266,0.848,16.536,1.087,24.811
						c5.716-5.885,11.504-11.76,17.394-17.62C639.725,290.818,639.1,309.136,639.33,327.417z"/>
				</g>
			</g>
		</g>
		<g>
			
				<linearGradient id="SVGID_1_" gradientUnits="userSpaceOnUse" x1="1152.75" y1="2155.8203" x2="1559.7549" y2="2155.8203" gradientTransform="matrix(0.9325 -0.3611 -0.3611 -0.9325 -11.2355 2789.3445)">
				<stop  offset="0" style="stop-color:#FCEE21"/>
				<stop  offset="1" style="stop-color:#C1272D"/>
			</linearGradient>
			<path fill="url(#SVGID_1_)" d="M642.784,321.624c-0.179,1.283-0.393,2.57-0.604,3.855c29.164,12.316,46.077,21.648,44.829,25.615
				c-2.86,9.074-99.886-5.006-216.182-41.664c-116.302-36.658-207.841-82.019-204.981-91.09c1.314-4.173,22.546-1.674,56.4,5.811
				c0.568-1.161,1.116-2.333,1.708-3.473c-56.791-12.93-94.276-17.209-96.697-9.53c-4.285,13.603,100.718,67.324,237.544,110.452
				c136.817,43.129,253.649,59.336,257.942,45.73C725.089,359.878,693.927,342.713,642.784,321.624z"/>
		</g>
	</g>
</g>
</svg>
