<?xml version="1.0" encoding="utf-8"?>
<!-- Generator: Adobe Illustrator 16.0.0, SVG Export Plug-In . SVG Version: 6.00 Build 0)  -->
<!DOCTYPE svg PUBLIC "-//W3C//DTD SVG 1.1//EN" "http://www.w3.org/Graphics/SVG/1.1/DTD/svg11.dtd">
<svg version="1.1" id="Layer_1" xmlns="http://www.w3.org/2000/svg" xmlns:xlink="http://www.w3.org/1999/xlink" x="0px" y="0px"
	 width="950px" height="560px" viewBox="-270.857 -206.5 950 560" enable-background="new -270.857 -206.5 950 560"
	 xml:space="preserve">
<g>
	<g>
		<path fill="#E6E6E6" d="M301.26-131.695c0-2.165-0.682-2.312-0.682-2.312s1.006,0.035,1.006-1.006s-2.708-4.629-3.333-4.629
			c0-1.063-2.392-7.22-6.582-7.22c-0.931,0-1.541-0.22-1.541,0.78c-0.003,0-0.01,0-0.015,0c-1.229-1-2.524-1.12-3.877-1.514
			c0.052-1.036-0.786-2.809-5.452-2.902c-1.861,0-5.4,0.479-5.4,2.504v0.005c-2.216,0.541-4.885,1.578-7.092,3
			c-0.006,0.001,0.11,0.003,0.11,0.003s-0.523-0.176-1.854-0.176c-1.329,0-9.473,5.051-9.473,13.76c0,0.73,0.412,1.129,0.412,1.729
			c0,0.597-0.987-0.266-0.987,2.99c0,3.257,2.187,6.078,2.922,6.078c-1.123,0-1.319,1.832-1.319,2.762
			c0,0.931,1.268,9.971,7.776,9.971c0,0.532,2.263,2.26,4.32,2.26c1.114,0,1.563-0.52,1.745-0.979
			c1.427,0.592,2.931,1.031,4.49,1.308l0.338,0.154c0,0,0.789,1.515,3.379,1.515c2.594,0,7.08-1.785,7.08-2.498
			c0-0.006,0.004-0.019,0.004-0.024c0.785-0.271,1.551-0.946,2.291-0.946c0.004,0,0.015,0,0.015,0s0.026,1.033,1.522,1.033
			s5.237-3.033,5.237-5.033c1.073,0,1.308,0,1.349,0c0,0,4.887-5.009,4.887-7.7c0.697-0.3,2.394-0.36,2.394-5.745
			C304.931-124.526,304.967-131.695,301.26-131.695z"/>
		<path d="M301.26-131.695l-0.029-0.626c-0.017-0.208-0.062-0.412-0.086-0.619c-0.06-0.199-0.095-0.408-0.189-0.591
			c-0.076-0.186-0.21-0.373-0.38-0.444l-0.128-0.057l0.136-0.005c0.295-0.011,0.608-0.124,0.78-0.367
			c0.072-0.123,0.146-0.257,0.147-0.407c0.029-0.146,0.021-0.289-0.02-0.444c-0.183-0.566-0.517-1.106-0.851-1.617
			c-0.344-0.513-0.715-1.006-1.105-1.478c-0.199-0.234-0.404-0.463-0.62-0.679c-0.108-0.104-0.22-0.211-0.336-0.301
			c-0.106-0.097-0.25-0.173-0.328-0.189l-0.11-0.025l-0.012-0.096c-0.05-0.475-0.232-0.979-0.423-1.451
			c-0.198-0.475-0.419-0.941-0.672-1.391c-0.503-0.896-1.104-1.742-1.831-2.455c-0.178-0.185-0.365-0.354-0.568-0.504
			c-0.189-0.166-0.396-0.31-0.615-0.433c-0.207-0.144-0.436-0.25-0.664-0.342c-0.226-0.115-0.463-0.173-0.703-0.23
			c-0.234-0.081-0.483-0.082-0.729-0.103c-0.232-0.027-0.514-0.021-0.766-0.023c-0.249,0-0.512,0.01-0.615,0.09
			c-0.104,0.055-0.137,0.264-0.146,0.485l-0.018,0.089l-0.25-0.172h-0.014h-0.055l-0.067,0.143l-1.884-0.761l-1.955-0.616
			l-0.192-0.043l-0.017-0.221l-0.026-0.343l-0.106-0.333c-0.033-0.112-0.125-0.202-0.183-0.307
			c-0.056-0.105-0.129-0.201-0.229-0.276c-0.176-0.175-0.354-0.341-0.597-0.452c-0.216-0.136-0.438-0.257-0.696-0.326
			c-0.254-0.074-0.484-0.199-0.756-0.234l-0.789-0.146c-0.262-0.062-0.535-0.058-0.808-0.08l-0.812-0.051
			c-0.243-0.022-0.549,0.001-0.805,0.013c-0.27,0.016-0.537,0.04-0.808,0.074c-0.534,0.066-1.062,0.166-1.571,0.314
			c-0.504,0.149-0.992,0.351-1.379,0.643c-0.188,0.146-0.354,0.312-0.454,0.499c-0.112,0.183-0.146,0.39-0.159,0.603l-0.023,0.293
			l-0.271,0.08l-0.908,0.27c-0.306,0.093-0.609,0.169-0.908,0.277l-0.893,0.336c-0.296,0.115-0.598,0.215-0.887,0.345
			c-0.572,0.271-1.146,0.534-1.717,0.812l-1.639,0.945l-0.127,0.055l0.051-0.015c0.016-0.006,0.035-0.013,0.072-0.035
			c0.028-0.028,0.109-0.046,0.188-0.243c0.035-0.098,0.02-0.246-0.037-0.332c-0.053-0.091-0.107-0.129-0.146-0.152
			c-0.076-0.045-0.106,0.117-0.131,0.111c-0.047-0.01-0.059,0.155-0.066,0.155c-0.014,0,0.003,0,0.003,0h0.022h0.055l-0.141,0.668
			c-0.141-0.021-0.262-0.14-0.408-0.155l-0.478-0.067l-0.474-0.048l-0.235-0.025l-0.118-0.012c0.025-0.004-0.062,0.001,0.059-0.008
			h-0.01l-0.018,0.002l-0.029,0.005l-0.062,0.011c-0.183,0.021-0.3,0.074-0.408,0.124c-0.104,0.037-0.247,0.103-0.39,0.178
			c-0.28,0.13-0.553,0.302-0.824,0.466c-0.541,0.338-1.057,0.725-1.559,1.129c-0.49,0.416-0.975,0.847-1.416,1.312
			c-0.449,0.46-0.877,0.947-1.27,1.458l-0.572,0.775l-0.516,0.814c-0.322,0.553-0.626,1.121-0.875,1.709l-0.355,0.891
			c-0.107,0.301-0.184,0.612-0.272,0.918c-0.209,0.606-0.261,1.248-0.384,1.873c-0.047,0.314-0.043,0.637-0.067,0.955l-0.022,0.478
			c-0.01,0.053-0.012,0.219-0.02,0.18l0.031,0.246l0.035,0.243l0.063,0.171l0.16,0.45c0.069,0.154-0.104,0.412-0.072,0.615
			l-0.183,0.039v0.01l0.189,0.07l0.094,0.015l0.041,0.062c-0.002,0.07-0.074,0.315-0.149,0.365c-0.176,0.18-0.269,0.197-0.31,0.23
			c-0.271,0.107-0.401,0.803-0.438,1.402c-0.021,0.303-0.023,0.648-0.021,0.934c0.008,0.342,0.035,0.656,0.078,0.941
			c0.092,0.607,0.258,1.219,0.48,1.801c0.229,0.584,0.52,1.146,0.863,1.657c0.173,0.257,0.361,0.5,0.562,0.711
			c0.103,0.099,0.284,0.212,0.386,0.274c0.094,0.092,0.225,0.102,0.225,0.107v0.998c0,0.012-0.373,0.076-0.521,0.312
			c-0.137,0.22-0.269,0.528-0.324,0.845c-0.062,0.318-0.112,0.654-0.119,0.988c-0.006,0.109-0.002,0.354,0.02,0.49
			c0.02,0.156,0.032,0.318,0.062,0.494c0.105,0.685,0.262,1.369,0.459,2.037c0.188,0.672,0.432,1.326,0.713,1.959
			c0.125,0.325,0.307,0.619,0.46,0.928c0.153,0.311,0.36,0.582,0.538,0.875c0.188,0.285,0.42,0.533,0.625,0.804
			c0.229,0.247,0.479,0.469,0.72,0.707c0.272,0.19,0.538,0.394,0.815,0.573c0.302,0.136,0.59,0.304,0.896,0.419
			c0.319,0.079,0.634,0.192,0.959,0.252l0.996,0.09l0.461,0.461c0.009-0.021,0.006-0.043-0.008-0.06
			c0.006,0.008,0.017,0.022,0.021,0.035c0.012,0.024,0.062,0.08,0.088,0.118c0.077,0.089,0.17,0.183,0.271,0.271
			c0.204,0.176,0.428,0.346,0.666,0.493c0.473,0.305,0.986,0.556,1.518,0.724c0.268,0.083,0.532,0.156,0.803,0.188
			c0.136,0.024,0.269,0.028,0.397,0.035l0.103,0.006c-0.021,0,0.06-0.004,0.084-0.006l0.226-0.013
			c0.138-0.019,0.222-0.036,0.336-0.067c0.11-0.035,0.213-0.078,0.302-0.136c0.18-0.112,0.311-0.271,0.393-0.47l0.164-0.396
			l0.421,0.147l2.161,0.765l2.229,0.526l0.069,0.017l0.035,0.016l0.339,0.156l0.112,0.051l0.092,0.143
			c0.07,0.116,0.222,0.3,0.371,0.428c0.147,0.142,0.324,0.256,0.511,0.362c0.177,0.116,0.392,0.172,0.584,0.265
			c0.207,0.062,0.425,0.103,0.636,0.157c0.217,0.039,0.444,0.038,0.665,0.062c0.22,0.029,0.438,0.008,0.688,0
			c0.438-0.041,0.896-0.096,1.357-0.193c0.917-0.186,1.83-0.447,2.713-0.777c0.441-0.162,0.872-0.351,1.288-0.553
			c0.205-0.105,0.403-0.215,0.585-0.334c0.082-0.059,0.17-0.124,0.232-0.18c0.021-0.026,0.044-0.051,0.068-0.073
			c-0.015-0.015-0.022,0.065-0.002,0.037l0.256-0.354l2.259-0.734l0.153,0.135h-0.006l0.375,0.177
			c0.004,0.074,0.07,0.147,0.153,0.236c0.086,0.1,0.21,0.138,0.356,0.19l0.229,0.051l0.267,0.013l0.131,0.008
			c-0.023,0.011,0.08-0.009,0.111-0.01c0.104-0.011,0.207-0.019,0.273-0.046c0.299-0.066,0.686-0.246,1.014-0.422
			c0.338-0.188,0.67-0.396,0.982-0.633c0.629-0.467,1.212-1.006,1.695-1.61c0.235-0.306,0.457-0.625,0.613-0.964
			c0.081-0.17,0.155-0.34,0.195-0.518c0.064-0.174,0.058-0.349,0.087-0.523l0.048-0.292l0.242,0.001l1.346,0.01l-0.199,0.084
			c1.062-1.091,2.062-2.259,2.971-3.484c0.455-0.61,0.871-1.248,1.23-1.91c0.188-0.332,0.333-0.674,0.473-1.021l0.15-0.529
			c0.034-0.177,0.045-0.354,0.069-0.533l0.021-0.139l0.1-0.037c0.318-0.127,0.615-0.193,0.854-0.377
			c0.135-0.067,0.24-0.17,0.336-0.287c0.103-0.111,0.223-0.207,0.279-0.353c0.146-0.269,0.312-0.53,0.388-0.842
			c0.09-0.302,0.211-0.595,0.242-0.916l0.153-0.945c0.03-0.316,0.039-0.641,0.06-0.961c0.047-0.644,0.067-1.283,0.016-1.925
			c-0.043-0.643-0.121-1.281-0.236-1.915c-0.122-0.632-0.289-1.254-0.522-1.854c-0.139-0.287-0.244-0.596-0.434-0.857
			c-0.157-0.283-0.371-0.521-0.591-0.756c-0.248-0.197-0.493-0.422-0.808-0.518C301.91-131.645,301.578-131.639,301.26-131.695z
			 M301.26-131.695c0.318,0.048,0.653,0.032,0.947,0.185c0.316,0.091,0.57,0.311,0.827,0.505c0.229,0.231,0.452,0.47,0.618,0.753
			c0.197,0.262,0.312,0.57,0.463,0.859c0.251,0.602,0.436,1.228,0.573,1.862c0.133,0.638,0.229,1.28,0.289,1.929
			c0.067,0.646,0.062,1.302,0.031,1.951c-0.014,0.324-0.012,0.65-0.033,0.976l-0.138,0.973c-0.021,0.328-0.144,0.642-0.229,0.962
			c-0.066,0.326-0.238,0.622-0.397,0.922c-0.062,0.159-0.193,0.278-0.311,0.411c-0.108,0.138-0.231,0.259-0.389,0.347
			c-0.277,0.223-0.631,0.312-0.902,0.431l0.117-0.177c-0.021,0.205-0.029,0.414-0.063,0.613l-0.153,0.583
			c-0.137,0.374-0.283,0.741-0.468,1.089c-0.356,0.698-0.771,1.362-1.222,1.998c-0.905,1.269-1.898,2.34-2.971,3.473l-0.078-0.029
			h-0.123l-1.347,0.125l0.29-0.232c-0.023,0.226-0.021,0.492-0.099,0.701c-0.05,0.221-0.134,0.438-0.226,0.635
			c-0.182,0.396-0.418,0.758-0.672,1.097c-0.521,0.665-1.131,1.245-1.794,1.753c-0.329,0.258-0.685,0.486-1.05,0.697
			c-0.385,0.205-0.729,0.396-1.223,0.513c-0.127,0.038-0.223,0.044-0.322,0.056c-0.064,0.004-0.062,0.018-0.188,0.014l-0.172-0.014
			c-0.229-0.005-0.457-0.042-0.691-0.13c-0.229-0.081-0.465-0.218-0.646-0.422c-0.179-0.214-0.31-0.62-0.335-0.953l0.382,0.161
			h-0.031l0.151,0.15l-2.321,1.063l0.252-0.308c-0.008,0.086-0.062,0.306-0.121,0.396l-0.168,0.209
			c-0.113,0.107-0.221,0.193-0.332,0.275c-0.221,0.148-0.441,0.277-0.664,0.395c-0.446,0.227-0.897,0.432-1.357,0.606
			c-0.918,0.358-1.855,0.646-2.824,0.854c-0.479,0.106-0.979,0.182-1.496,0.227c-0.229,0.007-0.494,0.033-0.756,0.003
			c-0.26-0.022-0.519-0.024-0.771-0.069c-0.256-0.062-0.514-0.109-0.766-0.188c-0.244-0.109-0.504-0.182-0.732-0.327
			c-0.233-0.134-0.463-0.283-0.666-0.472c-0.211-0.188-0.385-0.373-0.562-0.666l0.201,0.193l-0.339-0.154l0.104,0.033l-2.328-0.537
			l-2.258-0.787l0.584-0.25c-0.143,0.359-0.404,0.689-0.735,0.898c-0.166,0.105-0.339,0.182-0.517,0.237
			c-0.172,0.054-0.391,0.091-0.545,0.108l-0.229,0.015l-0.143,0.007l-0.125-0.006c-0.168-0.008-0.334-0.014-0.496-0.042
			c-0.33-0.039-0.646-0.123-0.953-0.218c-0.616-0.194-1.192-0.474-1.732-0.815c-0.271-0.168-0.527-0.36-0.777-0.576
			c-0.125-0.108-0.248-0.229-0.367-0.364c-0.062-0.082-0.117-0.136-0.178-0.246l-0.086-0.162c-0.029-0.09-0.053-0.187-0.061-0.279
			l0.461,0.461l-1.146-0.098c-0.377-0.068-0.748-0.193-1.121-0.29c-0.361-0.134-0.703-0.324-1.058-0.486
			c-0.321-0.206-0.634-0.437-0.944-0.66c-0.272-0.265-0.562-0.521-0.819-0.798c-0.233-0.297-0.491-0.58-0.701-0.891
			c-0.197-0.319-0.427-0.622-0.595-0.955c-0.168-0.332-0.364-0.653-0.502-0.998c-0.305-0.678-0.565-1.371-0.771-2.08
			c-0.213-0.707-0.379-1.425-0.495-2.158c-0.031-0.178-0.062-0.372-0.08-0.572c-0.025-0.22-0.037-0.334-0.033-0.584
			c0.006-0.384,0.041-0.765,0.107-1.152c0.074-0.387,0.256-0.782,0.49-1.178c0.199-0.394,0.367-0.81,1.367-0.793v0.998
			c-1-0.037-0.655-0.188-0.816-0.305c-0.176-0.124-0.336-0.256-0.47-0.389c-0.253-0.27-0.486-0.551-0.683-0.844
			c-0.396-0.584-0.72-1.207-0.967-1.857c-0.25-0.65-0.438-1.323-0.535-2.023c-0.056-0.369-0.08-0.713-0.084-1.033
			c-0.004-0.375,0.002-0.691,0.026-1.047c0.026-0.348,0.069-0.701,0.172-1.071c0.056-0.185,0.114-0.376,0.236-0.575
			c0.106-0.193,0.317-0.405,0.521-0.51c0.1-0.053,0.152-0.096,0.09-0.041c-0.013-0.004-0.084,0.154-0.062,0.147l0.007-0.062
			l-0.215-0.016c0.004-0.058-0.221,0.069-0.221,0.055v-0.006l0.213-0.021c-0.037-0.119,0.098-0.204,0.033-0.354
			c-0.062-0.203-0.241-0.754-0.238-1.03l-0.004-0.245c-0.008-0.204,0.021-0.204,0.021-0.314l0.034-0.513
			c0.027-0.341,0.03-0.685,0.082-1.021c0.136-0.67,0.197-1.356,0.42-2.004c0.104-0.326,0.185-0.66,0.304-0.979l0.385-0.948
			c0.269-0.625,0.593-1.229,0.938-1.811l0.552-0.859l0.605-0.814c0.414-0.537,0.863-1.047,1.339-1.528
			c0.474-0.488,0.979-0.938,1.495-1.374c0.529-0.424,1.074-0.828,1.654-1.188c0.296-0.176,0.584-0.356,0.904-0.505
			c0.262-0.141,0.765-0.343,1.055-0.376l0.062-0.011l0.03-0.005l0.019-0.003l0.074-0.005l0.131,0.008l0.26,0.017l0.518,0.033
			l0.52,0.034c0.178,0.02,0.377,0.309,0.562,0.348l-0.141,1.074h-0.062h-0.027h-0.024c-0.015,0-0.027-0.238-0.074-0.247
			c-0.022-0.007-0.058-0.128-0.135-0.173c-0.038-0.023-0.097-0.122-0.149-0.211c-0.055-0.086-0.07-0.266-0.037-0.364
			c0.072-0.196,0.152-0.229,0.187-0.258c0.036-0.021,0.055-0.036,0.069-0.042l0.043-0.02l-0.127,0.054l1.713-0.98
			c0.592-0.284,1.189-0.545,1.789-0.817c0.299-0.131,0.609-0.229,0.918-0.344l0.924-0.334c0.309-0.106,0.629-0.183,0.939-0.274
			l0.946-0.265l-0.294,0.375c0.021-0.34,0.092-0.691,0.275-0.981c0.168-0.302,0.412-0.53,0.662-0.716
			c0.51-0.372,1.066-0.582,1.627-0.74c0.561-0.156,1.125-0.252,1.688-0.314c0.284-0.033,0.565-0.054,0.854-0.066
			c0.299-0.008,0.549-0.028,0.854-0.002l0.853,0.064c0.279,0.028,0.562,0.026,0.847,0.098l0.845,0.168
			c0.282,0.041,0.553,0.182,0.828,0.269c0.279,0.082,0.541,0.224,0.795,0.388c0.271,0.133,0.496,0.338,0.712,0.562
			c0.119,0.099,0.213,0.222,0.29,0.362c0.076,0.139,0.184,0.261,0.229,0.414l0.141,0.457l0.027,0.482l-0.209-0.296l1.998,0.705
			l1.918,0.987l-0.119,0.061h0.014l-0.264,0.173c0.021-0.278,0.029-0.71,0.388-0.96c0.349-0.207,0.646-0.18,0.903-0.189
			c0.27,0.007,0.515-0.01,0.797,0.026c0.273,0.029,0.551,0.036,0.811,0.129c0.27,0.071,0.53,0.142,0.771,0.271
			c0.251,0.108,0.492,0.229,0.713,0.388c0.232,0.141,0.449,0.297,0.648,0.479c0.213,0.166,0.403,0.35,0.588,0.545
			c0.742,0.768,1.338,1.652,1.832,2.584c0.248,0.465,0.461,0.947,0.649,1.438c0.183,0.499,0.358,0.987,0.404,1.554l-0.122-0.123
			c0.229,0.041,0.348,0.152,0.474,0.254c0.128,0.102,0.236,0.215,0.351,0.326c0.219,0.228,0.42,0.465,0.615,0.709
			c0.39,0.486,0.752,0.994,1.084,1.52c0.322,0.531,0.646,1.062,0.823,1.687c0.037,0.146,0.042,0.312,0.011,0.475
			c-0.011,0.16-0.096,0.312-0.182,0.443c-0.199,0.265-0.533,0.373-0.85,0.377l0.008-0.062c0.214,0.097,0.329,0.293,0.408,0.485
			c0.096,0.19,0.125,0.402,0.179,0.604c0.022,0.209,0.062,0.416,0.069,0.625L301.26-131.695z"/>
	</g>
	<g>
		
			<ellipse transform="matrix(0.9513 -0.3084 0.3084 0.9513 55.063 84.4937)" fill="#B3B3B3" cx="294.845" cy="-131.956" rx="4.048" ry="8.531"/>
		<path d="M298.751-133.268c0,0,0.047,0.151,0.134,0.438c0.098,0.284,0.204,0.708,0.338,1.25c0.225,1.086,0.543,2.675,0.344,4.607
			c-0.125,0.939-0.354,2.06-1.252,2.886c-0.234,0.198-0.489,0.35-0.82,0.45c-0.242,0.078-0.609,0.119-0.938,0.08
			c-0.64-0.072-1.236-0.345-1.758-0.705c-1.046-0.721-1.895-1.717-2.576-2.814c-0.697-1.092-1.228-2.302-1.646-3.541
			c-0.383-1.227-0.674-2.552-0.746-3.833c-0.09-1.289,0.01-2.594,0.434-3.793c0.209-0.596,0.535-1.169,1.014-1.603
			c0.484-0.443,1.105-0.655,1.729-0.602c1.229,0.141,2.062,0.915,2.715,1.604c1.299,1.447,1.973,2.922,2.43,3.933
			c0.211,0.517,0.369,0.925,0.461,1.21C298.699-133.419,298.751-133.268,298.751-133.268z M298.751-133.268
			c0,0-0.054-0.15-0.155-0.432c-0.094-0.283-0.26-0.688-0.478-1.201c-0.236-0.504-0.521-1.119-0.945-1.77
			c-0.415-0.651-0.923-1.372-1.614-2.018c-0.674-0.627-1.565-1.281-2.562-1.311c-1.041-0.043-1.791,0.895-2.062,1.973
			c-0.289,1.086-0.311,2.297-0.185,3.5c0.142,1.219,0.381,2.401,0.78,3.602c0.369,1.184,0.884,2.316,1.479,3.375
			c0.604,1.048,1.329,2.018,2.202,2.727c0.438,0.354,0.929,0.611,1.427,0.706c0.243,0.042,0.453,0.054,0.754-0.013
			c0.213-0.049,0.454-0.158,0.646-0.303c0.8-0.617,1.135-1.668,1.312-2.573c0.185-0.929,0.172-1.812,0.123-2.581
			c-0.035-0.774-0.169-1.441-0.271-1.987c-0.124-0.542-0.229-0.969-0.317-1.253C298.795-133.116,298.751-133.268,298.751-133.268z"
			/>
	</g>
	<g>
		<circle fill="#B3B3B3" cx="283.839" cy="-143.367" r="1.662"/>
		<path d="M282.178-143.367c0,0,0.006,0.041,0.018,0.116c0.019,0.073,0.009,0.19,0.062,0.321c0.035,0.139,0.11,0.293,0.229,0.449
			c0.125,0.148,0.285,0.301,0.492,0.405c0.213,0.089,0.447,0.163,0.697,0.134c0.055-0.008,0.146-0.007,0.161-0.018l0.214-0.055
			c0.159-0.034,0.211-0.111,0.316-0.159c0.203-0.14,0.354-0.331,0.475-0.529c0.098-0.192,0.156-0.483,0.161-0.614
			c-0.019-0.399-0.065-0.465-0.163-0.715c-0.119-0.197-0.271-0.388-0.474-0.527c-0.205-0.119-0.44-0.231-0.692-0.229
			c-0.279-0.023-0.467,0.039-0.695,0.131c-0.207,0.104-0.365,0.254-0.49,0.404c-0.118,0.155-0.194,0.312-0.229,0.45
			c-0.057,0.131-0.047,0.246-0.062,0.32C282.184-143.408,282.178-143.367,282.178-143.367z M282.178-143.367
			c0,0,0.004-0.041,0.012-0.117c0.013-0.074-0.006-0.191,0.045-0.328c0.026-0.144,0.1-0.301,0.187-0.486
			c0.103-0.18,0.247-0.357,0.438-0.539c0.188-0.152,0.488-0.33,0.771-0.393c0.305-0.094,0.667-0.076,1.025,0.021
			c0.354,0.114,0.691,0.347,0.949,0.67c0.254,0.293,0.383,0.869,0.394,1.123c-0.022,0.521-0.14,0.872-0.396,1.222
			c-0.256,0.324-0.595,0.555-0.947,0.669c-0.182,0.048-0.411,0.099-0.547,0.082l-0.223-0.012c-0.126-0.005-0.175-0.033-0.263-0.049
			c-0.312-0.069-0.563-0.235-0.771-0.392c-0.19-0.183-0.342-0.358-0.438-0.539c-0.087-0.187-0.157-0.344-0.187-0.487
			c-0.053-0.138-0.033-0.253-0.047-0.327C282.182-143.327,282.178-143.367,282.178-143.367z"/>
	</g>
	<g>
		
			<ellipse transform="matrix(-0.9643 0.265 -0.265 -0.9643 491.6136 -350.2375)" fill="#B3B3B3" cx="269.428" cy="-141.962" rx="4.9" ry="2.23"/>
		<path d="M264.784-140.655c0.009-0.018,0.067,0.407,0.63,0.735c0.544,0.328,1.475,0.474,2.539,0.355
			c0.533-0.061,1.104-0.178,1.689-0.354c0.574-0.175,1.19-0.416,1.765-0.72c0.575-0.31,1.145-0.678,1.62-1.116
			c0.469-0.429,0.847-1.011,0.724-1.367c-0.076-0.367-0.696-0.675-1.315-0.803c-0.637-0.132-1.312-0.156-1.967-0.13
			c-1.312,0.074-2.542,0.404-3.518,0.843c-0.977,0.442-1.701,1.043-2.001,1.603C264.635-141.04,264.801-140.645,264.784-140.655z
			 M264.784-140.655c0.018,0.011-0.161-0.381,0.143-0.966c0.298-0.57,0.979-1.214,1.921-1.787c0.942-0.576,2.152-1.083,3.537-1.34
			c0.694-0.126,1.438-0.193,2.209-0.081c0.391,0.047,0.783,0.157,1.174,0.36c0.191,0.101,0.389,0.234,0.559,0.416
			c0.085,0.07,0.178,0.22,0.253,0.343c0.079,0.149,0.062,0.126,0.14,0.325c0.139,0.537-0.041,1.05-0.265,1.414
			c-0.229,0.375-0.517,0.67-0.823,0.908c-0.604,0.492-1.275,0.812-1.938,1.06c-0.672,0.25-1.312,0.409-1.945,0.517
			c-0.628,0.105-1.229,0.15-1.779,0.143c-1.102-0.01-2.017-0.215-2.562-0.553C264.841-140.246,264.794-140.674,264.784-140.655z"/>
	</g>
	<g>
		<ellipse fill="#B3B3B3" cx="262.459" cy="-134.205" rx="1.479" ry="2.186"/>
		<path d="M260.98-134.205c0,0,0.011,0.182,0.056,0.495c0.04,0.151,0.063,0.345,0.172,0.539c0.087,0.196,0.21,0.417,0.405,0.586
			c0.177,0.187,0.436,0.312,0.683,0.319c0.05-0.004,0.154,0,0.151-0.008l0.232-0.068c0.115-0.08,0.158-0.113,0.26-0.229
			c0.351-0.386,0.488-1.031,0.496-1.634c-0.015-0.101-0.006-0.369-0.033-0.48c-0.026-0.131-0.043-0.269-0.09-0.412
			c-0.074-0.285-0.201-0.549-0.375-0.737c-0.174-0.19-0.377-0.332-0.653-0.302c-0.253,0.015-0.479,0.121-0.669,0.314
			c-0.196,0.168-0.32,0.391-0.407,0.586c-0.106,0.193-0.132,0.387-0.172,0.539C260.991-134.387,260.98-134.205,260.98-134.205z
			 M260.98-134.205c0,0,0-0.182,0.026-0.498c0.032-0.156,0.054-0.35,0.121-0.562c0.058-0.217,0.157-0.457,0.317-0.696
			c0.137-0.238,0.42-0.495,0.771-0.615c0.333-0.14,0.824-0.054,1.165,0.185c0.362,0.231,0.627,0.584,0.789,0.969
			c0.1,0.184,0.152,0.4,0.193,0.623c0.051,0.24,0.043,0.339,0.064,0.598c-0.029,0.415-0.064,0.84-0.264,1.221
			c-0.162,0.383-0.428,0.734-0.79,0.965c-0.146,0.123-0.429,0.209-0.614,0.241l-0.242,0.003c-0.16-0.003-0.213-0.043-0.314-0.062
			c-0.355-0.128-0.607-0.367-0.758-0.611c-0.159-0.24-0.264-0.479-0.317-0.695c-0.067-0.215-0.089-0.41-0.122-0.564
			C260.98-134.024,260.98-134.205,260.98-134.205z"/>
	</g>
	<g>
		<ellipse fill="#B3B3B3" cx="279.055" cy="-133.731" rx="4.784" ry="3.324"/>
		<path d="M274.271-133.731c0,0,0.016,0.1,0.045,0.285c0.015,0.094,0.029,0.207,0.054,0.342c0.034,0.131,0.116,0.267,0.185,0.426
			c0.062,0.166,0.166,0.326,0.311,0.483c0.128,0.167,0.271,0.343,0.476,0.479c0.19,0.148,0.384,0.318,0.634,0.429
			c0.237,0.13,0.487,0.263,0.778,0.333c0.279,0.096,0.571,0.182,0.892,0.213c0.153,0.024,0.312,0.049,0.477,0.074
			c0.162,0.001,0.328,0.003,0.495,0.005c0.159-0.002,0.351,0.011,0.487-0.002c0.178-0.021,0.354-0.045,0.53-0.067
			c0.375-0.024,0.691-0.147,1.025-0.235c0.653-0.233,1.329-0.556,1.825-1.048c0.496-0.478,0.979-1.075,0.978-1.717
			c0.011,0.14,0.122,0.033,0.122,0.062v-0.01l-0.121-0.019l-0.062-0.038l-0.041-0.074l-0.033-0.148l-0.047-0.298
			c-0.038-0.183-0.131-0.267-0.18-0.411c-0.023-0.134-0.186-0.266-0.271-0.4c-0.088-0.146-0.207-0.271-0.345-0.381
			c-0.496-0.492-1.168-0.81-1.83-1.046c-0.342-0.09-0.678-0.213-1.024-0.235c-0.354-0.054-0.662-0.093-1.017-0.07
			c-0.172,0.002-0.342,0.005-0.512,0.007c-0.156,0.024-0.312,0.049-0.468,0.073c-0.312,0.029-0.604,0.117-0.885,0.211
			c-0.29,0.07-0.54,0.201-0.776,0.333c-0.252,0.11-0.44,0.278-0.636,0.429c-0.203,0.137-0.347,0.312-0.476,0.479
			c-0.146,0.158-0.25,0.317-0.312,0.483c-0.063,0.16-0.146,0.297-0.184,0.427c-0.021,0.135-0.039,0.25-0.054,0.342
			C274.286-133.829,274.271-133.731,274.271-133.731z M274.271-133.731c0,0,0.014-0.099,0.035-0.285
			c0.016-0.094,0.026-0.209,0.049-0.344c0.027-0.133,0.105-0.271,0.174-0.435c0.057-0.17,0.16-0.333,0.301-0.496
			c0.127-0.171,0.255-0.365,0.453-0.517c0.183-0.166,0.371-0.354,0.617-0.483c0.233-0.146,0.479-0.317,0.767-0.424
			c0.278-0.132,0.573-0.259,0.905-0.331c0.164-0.044,0.33-0.089,0.5-0.135c0.166-0.021,0.335-0.043,0.506-0.066
			c0.18-0.02,0.324-0.052,0.54-0.059c0.184,0.002,0.368,0.005,0.558,0.007c0.381-0.017,0.76,0.069,1.153,0.127
			c0.771,0.168,1.585,0.448,2.256,1.032c0.179,0.13,0.347,0.277,0.481,0.466c0.134,0.192,0.305,0.325,0.396,0.581
			c0.103,0.226,0.231,0.488,0.276,0.695l0.047,0.297l0.021,0.146l0.014,0.074l0.007,0.037l0.01,0.108
			c-0.021,0.995-0.573,1.865-1.255,2.404c-0.673,0.585-1.48,0.861-2.262,1.033c-0.4,0.061-0.801,0.146-1.152,0.126
			c-0.182,0.002-0.359,0.004-0.537,0.007c-0.214-0.004-0.371-0.04-0.555-0.059c-0.176-0.022-0.352-0.045-0.521-0.067
			c-0.166-0.046-0.33-0.091-0.488-0.135c-0.326-0.071-0.621-0.198-0.898-0.329c-0.288-0.107-0.529-0.277-0.768-0.423
			c-0.246-0.13-0.438-0.319-0.617-0.484c-0.197-0.151-0.326-0.345-0.453-0.516c-0.143-0.163-0.244-0.326-0.301-0.497
			c-0.064-0.164-0.146-0.303-0.178-0.436c-0.019-0.135-0.029-0.25-0.045-0.343C274.284-133.631,274.271-133.731,274.271-133.731z"/>
	</g>
	
		<ellipse transform="matrix(0.9919 -0.127 0.127 0.9919 17.7828 32.8229)" fill="#CCCCCC" cx="266.265" cy="-123.028" rx="4.579" ry="7.284"/>
	<g>
		
			<ellipse transform="matrix(0.9919 -0.127 0.127 0.9919 17.7253 32.669)" fill="#B3B3B3" cx="265.016" cy="-122.647" rx="4.025" ry="6.832"/>
		<path d="M268.999-123.126c0,0,0.015,0.135,0.041,0.387c0.032,0.252,0.055,0.624,0.063,1.099c-0.017,0.94-0.062,2.334-0.73,3.856
			c-0.336,0.741-0.882,1.558-1.812,1.985c-0.231,0.115-0.474,0.172-0.759,0.216c-0.118,0.008-0.231,0.024-0.36,0.026l-0.422-0.037
			c-0.539-0.092-1.045-0.332-1.492-0.647c-0.903-0.636-1.567-1.567-2.062-2.569c-0.491-1.007-0.782-2.113-0.942-3.229
			c-0.125-1.093-0.123-2.281,0.1-3.364c0.225-1.093,0.629-2.164,1.346-3.007c0.354-0.418,0.783-0.778,1.28-1.002
			c0.503-0.224,1.044-0.271,1.537-0.189c1.03,0.182,1.75,0.834,2.267,1.467c1.033,1.306,1.432,2.642,1.68,3.548
			c0.107,0.461,0.186,0.827,0.217,1.079C268.98-123.26,268.999-123.126,268.999-123.126z M268.999-123.126
			c0,0-0.021-0.134-0.063-0.384c-0.033-0.252-0.113-0.616-0.231-1.074c-0.13-0.455-0.298-1.007-0.593-1.598
			c-0.291-0.586-0.67-1.235-1.229-1.811c-0.537-0.568-1.301-1.099-2.138-1.167c-0.879-0.099-1.703,0.403-2.229,1.177
			c-0.535,0.766-0.828,1.743-0.99,2.736c-0.139,1.021-0.157,2.021-0.019,3.078c0.122,1.031,0.405,2.037,0.788,2.975
			c0.408,0.92,0.938,1.795,1.65,2.4c0.354,0.299,0.757,0.531,1.179,0.643l0.3,0.057c0.111,0.01,0.239,0.003,0.355,0.005
			c0.186-0.017,0.421-0.043,0.607-0.124c0.812-0.284,1.403-0.986,1.783-1.674c0.396-0.696,0.6-1.42,0.73-2.062
			c0.136-0.646,0.158-1.222,0.17-1.694c0-0.474-0.019-0.847-0.043-1.099C269.011-122.991,268.999-123.126,268.999-123.126z"/>
	</g>
	<g>
		<circle fill="#B3B3B3" cx="286.093" cy="-126.123" r="1.477"/>
		<path d="M284.616-126.123c0,0,0.005,0.036,0.014,0.104c0.019,0.064,0.007,0.17,0.062,0.287c0.027,0.121,0.099,0.258,0.203,0.396
			c0.11,0.131,0.256,0.264,0.438,0.354c0.189,0.075,0.398,0.135,0.618,0.104c0.045-0.008,0.129-0.008,0.139-0.02l0.188-0.053
			c0.144-0.031,0.178-0.104,0.27-0.145c0.344-0.258,0.525-0.64,0.521-1.026c-0.01-0.03-0.014-0.302-0.041-0.312
			c-0.012-0.062-0.062-0.154-0.09-0.25c-0.1-0.17-0.225-0.336-0.396-0.461c-0.174-0.107-0.376-0.213-0.597-0.218
			c-0.25-0.024-0.408,0.023-0.616,0.103c-0.188,0.088-0.327,0.22-0.438,0.352c-0.104,0.137-0.176,0.275-0.205,0.396
			c-0.053,0.117-0.043,0.22-0.06,0.285C284.621-126.16,284.616-126.123,284.616-126.123z M284.616-126.123
			c0,0,0.002-0.036,0.007-0.104c0.011-0.066-0.004-0.17,0.04-0.293c0.024-0.127,0.086-0.269,0.162-0.437
			c0.088-0.161,0.218-0.321,0.388-0.486c0.165-0.139,0.439-0.304,0.691-0.363c0.271-0.088,0.603-0.078,0.932,0.007
			c0.326,0.1,0.637,0.309,0.869,0.604c0.104,0.155,0.211,0.308,0.268,0.529c0.08,0.261,0.066,0.285,0.1,0.542
			c-0.025,0.384-0.131,0.771-0.365,1.068c-0.234,0.295-0.544,0.502-0.869,0.604c-0.164,0.042-0.381,0.085-0.498,0.068l-0.193-0.014
			c-0.117-0.007-0.158-0.033-0.237-0.049c-0.282-0.066-0.507-0.22-0.688-0.361c-0.17-0.168-0.3-0.326-0.388-0.487
			c-0.076-0.167-0.138-0.308-0.162-0.437c-0.044-0.121-0.028-0.224-0.04-0.291C284.618-126.087,284.616-126.123,284.616-126.123z"/>
	</g>
	<g>
		<ellipse fill="#B3B3B3" cx="278.3" cy="-119.919" rx="3.212" ry="3.25"/>
		<path d="M275.088-119.919c0,0,0.01,0.079,0.025,0.226c0.031,0.146,0.008,0.372,0.115,0.631c0.045,0.129,0.082,0.277,0.146,0.431
			c0.084,0.143,0.175,0.297,0.271,0.462c0.108,0.154,0.258,0.297,0.396,0.458c0.152,0.146,0.346,0.264,0.529,0.399
			c0.412,0.201,0.875,0.391,1.391,0.385c0.117,0,0.275,0.015,0.359,0.003l0.42-0.074c0.297-0.043,0.479-0.174,0.723-0.271
			c0.465-0.264,0.84-0.662,1.133-1.108c0.262-0.452,0.401-1.048,0.42-1.489c-0.027-0.706-0.16-1.08-0.422-1.587
			c-0.292-0.446-0.669-0.842-1.132-1.105c-0.471-0.229-0.989-0.396-1.504-0.346c-0.545,0.002-0.957,0.18-1.388,0.385
			c-0.187,0.137-0.377,0.252-0.529,0.399c-0.137,0.16-0.284,0.303-0.396,0.457c-0.1,0.165-0.188,0.319-0.271,0.462
			c-0.062,0.152-0.103,0.301-0.146,0.433c-0.104,0.258-0.08,0.483-0.111,0.629C275.098-119.998,275.088-119.919,275.088-119.919z
			 M275.088-119.919c0,0,0.008-0.079,0.021-0.228c0.022-0.146-0.004-0.373,0.096-0.635c0.041-0.132,0.076-0.283,0.135-0.441
			c0.074-0.15,0.154-0.314,0.24-0.49c0.1-0.167,0.236-0.327,0.365-0.508c0.146-0.16,0.324-0.314,0.502-0.488
			c0.212-0.124,0.41-0.295,0.666-0.398c0.256-0.098,0.539-0.225,0.802-0.248c0.567-0.139,1.213-0.05,1.838,0.15
			c0.623,0.231,1.188,0.67,1.613,1.243c0.415,0.553,0.622,1.429,0.646,1.99c-0.042,0.459-0.045,0.759-0.183,1.121
			c-0.083,0.356-0.28,0.664-0.466,0.968c-0.424,0.573-0.99,1.009-1.611,1.241c-0.312,0.094-0.678,0.209-0.951,0.203l-0.425,0.013
			c-0.194-0.003-0.31-0.044-0.463-0.062c-0.581-0.083-1.063-0.368-1.464-0.646c-0.178-0.174-0.354-0.327-0.504-0.488
			c-0.129-0.18-0.27-0.339-0.365-0.506c-0.086-0.176-0.166-0.339-0.24-0.49c-0.059-0.156-0.094-0.309-0.135-0.441
			c-0.1-0.264-0.069-0.488-0.096-0.635C275.095-119.84,275.088-119.919,275.088-119.919z"/>
	</g>
	<g>
		
			<ellipse transform="matrix(0.9243 0.3817 -0.3817 0.9243 -20.8086 -112.5205)" fill="#B3B3B3" cx="273.26" cy="-108.719" rx="3.175" ry="1.292"/>
		<path d="M276.251-107.444c0,0-0.033,0.047-0.095,0.135c-0.045,0.102-0.199,0.176-0.379,0.262
			c-0.191,0.068-0.436,0.105-0.715,0.132c-0.283,0.009-0.604-0.004-0.951-0.041c-0.348-0.043-0.729-0.104-1.118-0.21
			c-0.427-0.114-0.775-0.215-1.214-0.42c-0.428-0.186-0.825-0.438-1.215-0.764c-0.188-0.186-0.377-0.364-0.521-0.64
			c-0.084-0.11-0.13-0.299-0.173-0.468c-0.028-0.079-0.027-0.182-0.012-0.291l0.021-0.16l0.019-0.078l0.01-0.039l0.005-0.02
			l0.002-0.01c0.026-0.047-0.056,0.095,0.062-0.109l0.104-0.137c0.027-0.042,0.064-0.09,0.169-0.166
			c0.169-0.133,0.397-0.258,0.521-0.268c0.297-0.094,0.559-0.088,0.816-0.087c0.504,0.043,0.977,0.146,1.396,0.315
			c0.429,0.152,0.812,0.352,1.164,0.562c0.336,0.195,0.662,0.428,0.938,0.642c0.273,0.221,0.508,0.438,0.702,0.643
			c0.181,0.22,0.325,0.415,0.413,0.601c0.062,0.187,0.121,0.346,0.082,0.451C276.261-107.499,276.251-107.444,276.251-107.444z
			 M276.251-107.444c0,0,0.007-0.057,0.021-0.162c0.033-0.104-0.028-0.262-0.104-0.439c-0.055-0.083-0.104-0.18-0.177-0.277
			c-0.083-0.085-0.175-0.178-0.271-0.275c-0.215-0.176-0.459-0.367-0.764-0.521c-0.302-0.159-0.619-0.302-1.004-0.42
			c-0.36-0.12-0.759-0.217-1.161-0.275c-0.4-0.074-0.816-0.088-1.214-0.084c-0.188,0.03-0.384,0.041-0.522,0.096
			c-0.109,0.021-0.062,0.045-0.098,0.021c-0.007-0.03-0.042,0.009-0.076,0.065l-0.1,0.14c0.111-0.201,0.031-0.055,0.057-0.101
			l0.001,0.002l0.002,0.002l0.002,0.003l0.005,0.006c0.004,0.004,0.002,0.007-0.004,0.011c-0.008,0.004-0.021,0.016-0.002,0.045
			c0.021,0.049,0.002,0.096,0.062,0.172c0.062,0.137,0.188,0.284,0.303,0.438c0.275,0.279,0.586,0.57,0.914,0.794
			c0.301,0.233,0.713,0.472,1.023,0.628c0.34,0.184,0.685,0.312,1.008,0.411c0.322,0.106,0.633,0.142,0.908,0.17
			c0.272,0.015,0.517-0.015,0.707-0.076c0.176-0.075,0.328-0.14,0.381-0.241C276.216-107.397,276.251-107.444,276.251-107.444z"/>
	</g>
	<g>
		
			<ellipse transform="matrix(-0.5876 -0.8092 0.8092 -0.5876 553.395 57.3202)" fill="#B3B3B3" cx="291.306" cy="-112.374" rx="2.917" ry="5.576"/>
		<path d="M289.585-114.783c0,0-0.351,0.247-0.899,0.751c-0.27,0.259-0.599,0.574-0.902,0.993c-0.312,0.413-0.646,0.9-0.863,1.491
			c-0.225,0.573-0.373,1.284-0.135,1.891c0.051,0.146,0.152,0.294,0.238,0.392c0.138,0.158,0.259,0.232,0.385,0.304
			c0.285,0.155,0.638,0.216,0.998,0.218c0.725,0,1.488-0.214,2.22-0.521c0.722-0.317,1.456-0.721,2.088-1.194
			c0.707-0.502,1.255-1.027,1.802-1.634c0.521-0.598,0.955-1.262,1.184-1.948c0.234-0.687,0.148-1.413-0.372-1.826
			c-0.49-0.405-1.22-0.489-1.832-0.453c-0.629,0.028-1.197,0.192-1.688,0.36c-0.49,0.163-0.895,0.378-1.224,0.553
			C289.928-115.039,289.585-114.783,289.585-114.783z M289.585-114.783c0,0,0.337-0.264,0.979-0.646
			c0.647-0.36,1.604-0.887,2.896-1.111c0.639-0.096,1.407-0.141,2.134,0.32c0.354,0.232,0.621,0.589,0.751,1.029
			c0.131,0.432,0.108,0.889,0.022,1.317c-0.173,0.866-0.604,1.662-1.146,2.36c-0.521,0.695-1.232,1.341-1.904,1.846
			c-0.752,0.525-1.521,0.964-2.366,1.256c-0.832,0.3-1.726,0.461-2.603,0.359c-0.867-0.067-1.774-0.592-1.99-1.465
			c-0.209-0.817,0.063-1.547,0.354-2.119c0.612-1.163,1.408-1.906,1.951-2.414C289.23-114.544,289.585-114.783,289.585-114.783z"/>
	</g>
	<path fill="#CCCCCC" d="M288.447-116.115c3.926-2.947,8.271-3.783,9.789-1.906c-0.077-0.305-0.205-0.582-0.395-0.83
		c-1.469-1.955-5.874-1.127-9.842,1.851c-3.966,2.978-5.991,6.978-4.521,8.933c0.017,0.021,0.033,0.037,0.053,0.057
		C282.997-110.128,284.98-113.512,288.447-116.115z"/>
	<path fill="#CCCCCC" d="M270.695-139.227c-3.473,1.209-6.764,0.828-7.353-0.854c-0.03-0.101-0.058-0.202-0.069-0.308
		c-0.027,0.261-0.013,0.513,0.069,0.75c0.589,1.683,3.88,2.065,7.353,0.854c3.268-1.139,5.527-3.28,5.298-4.932
		C275.816-142.141,273.678-140.266,270.695-139.227z"/>
	<path fill="#CCCCCC" d="M288.812-130.43c-1.902-5.248-1.246-10.368,1.406-11.924c-0.261,0.03-0.518,0.086-0.765,0.178
		c-3.12,1.131-4.005,6.589-1.976,12.188c2.028,5.6,6.205,9.223,9.324,8.092c0.197-0.07,0.389-0.16,0.563-0.265
		C294.365-121.801,290.684-125.276,288.812-130.43z"/>
</g>
</svg>
